Hubli-Regular.ufo
<glyph name="numbersign" format="1">
  <advance width="586"/>
  <unicode hex="0023"/>
  <outline>
    <contour>
      <point x="476" y="511" type="move"/>
      <point x="300" y="27" type="line"/>
    </contour>
    <contour>
      <point x="276" y="511" type="move"/>
      <point x="100" y="27" type="line"/>
    </contour>
    <contour>
      <point x="527" y="382" type="move"/>
      <point x="123" y="382" type="line"/>
    </contour>
    <contour>
      <point x="458" y="182" type="move"/>
      <point x="54" y="182" type="line"/>
    </contour>
  </outline>
</glyph>
<glyph name="dollar" format="1">
  <advance width="584"/>
  <unicode hex="0024"/>
  <outline>
    <contour>
      <point x="442" y="488" type="move"/>
      <point x="388" y="507"/>
      <point x="349" y="518"/>
      <point x="270" y="518" type="curve" smooth="yes"/>
      <point x="172" y="518"/>
      <point x="114" y="467"/>
      <point x="114" y="414" type="curve" smooth="yes"/>
      <point x="114" y="364"/>
      <point x="140" y="308"/>
      <point x="294" y="282" type="curve" smooth="yes"/>
      <point x="434" y="255"/>
      <point x="481" y="204"/>
      <point x="481" y="140" type="curve" smooth="yes"/>
      <point x="481" y="76"/>
      <point x="424" y="18"/>
      <point x="293" y="18" type="curve" smooth="yes"/>
      <point x="224" y="18"/>
      <point x="159" y="32"/>
      <point x="99" y="61" type="curve"/>
      <point x="99" y="61"/>
    </contour>
    <contour>
      <point x="289" y="610" type="move"/>
      <point x="289" y="-80" type="line"/>
    </contour>
  </outline>
</glyph>
<glyph name="percent" format="1">
  <advance width="806"/>
  <unicode hex="0025"/>
  <outline>
    <contour>
      <point x="555" y="512" type="move"/>
      <point x="272" y="27" type="line"/>
    </contour>
    <contour>
      <point x="208" y="519" type="curve" smooth="yes"/>
      <point x="144" y="519"/>
      <point x="99" y="462"/>
      <point x="99" y="382" type="curve" smooth="yes"/>
      <point x="99" y="309"/>
      <point x="145" y="247"/>
      <point x="208" y="247" type="curve" smooth="yes"/>
      <point x="277" y="247"/>
      <point x="316" y="309"/>
      <point x="316" y="383" type="curve" smooth="yes"/>
      <point x="316" y="462"/>
      <point x="268" y="519"/>
    </contour>
    <contour>
      <point x="604" y="289" type="curve" smooth="yes"/>
      <point x="540" y="289"/>
      <point x="495" y="232"/>
      <point x="495" y="152" type="curve" smooth="yes"/>
      <point x="495" y="79"/>
      <point x="541" y="17"/>
      <point x="604" y="17" type="curve" smooth="yes"/>
      <point x="673" y="17"/>
      <point x="712" y="79"/>
      <point x="712" y="153" type="curve" smooth="yes"/>
      <point x="712" y="232"/>
      <point x="664" y="289"/>
    </contour>
  </outline>
</glyph>
<glyph name="ampersand" format="1">
  <advance width="644"/>
  <unicode hex="0026"/>
  <outline>
    <contour>
      <point x="525.0" y="281.0" type="move"/>
      <point x="439" y="159" type="line" smooth="yes"/>
      <point x="365" y="54"/>
      <point x="311" y="19"/>
      <point x="238" y="19" type="curve" smooth="yes"/>
      <point x="155" y="19"/>
      <point x="97" y="70"/>
      <point x="97" y="137" type="curve" smooth="yes"/>
      <point x="97" y="202"/>
      <point x="131" y="253"/>
      <point x="277" y="313" type="curve" smooth="yes"/>
      <point x="340" y="339"/>
      <point x="369" y="376"/>
      <point x="369" y="423" type="curve" smooth="yes"/>
      <point x="369" y="477"/>
      <point x="323" y="519"/>
      <point x="263" y="519" type="curve" smooth="yes"/>
      <point x="204" y="519"/>
      <point x="160" y="479"/>
      <point x="160" y="419" type="curve" smooth="yes"/>
      <point x="160" y="365"/>
      <point x="200.0" y="324.0"/>
      <point x="259.0" y="272.0" type="curve" smooth="yes"/>
      <point x="540.0" y="27.0" type="line"/>
    </contour>
  </outline>
</glyph>
<glyph name="asterisk" format="1">
  <advance width="423"/>
  <unicode hex="002A"/>
  <outline>
    <contour>
      <point x="210" y="511" type="move"/>
      <point x="210" y="285" type="line"/>
    </contour>
    <contour>
      <point x="104" y="458" type="move"/>
      <point x="317" y="334" type="line"/>
    </contour>
    <contour>
      <point x="104" y="334" type="move"/>
      <point x="317" y="458" type="line"/>
    </contour>
  </outline>
</glyph>
<glyph name="plus" format="1">
  <advance width="491"/>
  <unicode hex="002B"/>
  <outline>
    <contour>
      <point x="114" y="253" type="move"/>
      <point x="377" y="253" type="line"/>
    </contour>
    <contour>
      <point x="245" y="125" type="move"/>
      <point x="245" y="380" type="line"/>
    </contour>
  </outline>
</glyph>
<glyph name="period" format="1">
  <advance width="235"/>
  <unicode hex="002E"/>
  <outline>
    <contour>
      <point x="119" y="80" type="curve" smooth="yes"/>
      <point x="107" y="80"/>
      <point x="98" y="65"/>
      <point x="98" y="51" type="curve" smooth="yes"/>
      <point x="98" y="34"/>
      <point x="107" y="22"/>
      <point x="119" y="22" type="curve" smooth="yes"/>
      <point x="133" y="22"/>
      <point x="139" y="34"/>
      <point x="139" y="51" type="curve" smooth="yes"/>
      <point x="139" y="65"/>
      <point x="133" y="80"/>
    </contour>
  </outline>
</glyph>
<glyph name="colon" format="1">
  <advance width="235"/>
  <unicode hex="003A"/>
  <outline>
    <contour>
      <point x="116" y="368" type="move"/>
      <point x="116" y="354"/>
      <point x="116" y="346"/>
      <point x="116" y="327" type="curve" smooth="yes"/>
      <point x="116" y="313"/>
      <point x="117" y="291"/>
      <point x="119" y="279" type="curve"/>
    </contour>
    <contour>
      <point x="116" y="115" type="move"/>
      <point x="116" y="102"/>
      <point x="116" y="94"/>
      <point x="116" y="75" type="curve" smooth="yes"/>
      <point x="116" y="61"/>
      <point x="117" y="39"/>
      <point x="119" y="27" type="curve"/>
    </contour>
  </outline>
</glyph>
<glyph name="equal" format="1">
  <advance width="491"/>
  <unicode hex="003D"/>
  <outline>
    <contour>
      <point x="92" y="343" type="move"/>
      <point x="398" y="343" type="line"/>
    </contour>
    <contour>
      <point x="92" y="163" type="move"/>
      <point x="398" y="163" type="line"/>
    </contour>
  </outline>
</glyph>
<glyph name="at" format="1">
  <advance width="675"/>
  <unicode hex="0040"/>
  <outline>
    <contour>
      <point x="427" y="384" type="move"/>
      <point x="427" y="254" type="line" smooth="yes"/>
      <point x="427" y="193"/>
      <point x="464" y="157"/>
      <point x="509" y="157" type="curve" smooth="yes"/>
      <point x="559" y="157"/>
      <point x="596" y="201"/>
      <point x="596" y="279" type="curve" smooth="yes"/>
      <point x="596" y="405"/>
      <point x="502" y="522"/>
      <point x="341" y="522" type="curve" smooth="yes"/>
      <point x="191" y="522"/>
      <point x="81" y="405"/>
      <point x="81" y="265" type="curve" smooth="yes"/>
      <point x="81" y="125"/>
      <point x="188" y="17"/>
      <point x="344" y="17" type="curve" smooth="yes"/>
      <point x="406" y="17"/>
      <point x="458" y="31"/>
      <point x="497" y="48" type="curve"/>
    </contour>
    <contour>
      <point x="427" y="357" type="move"/>
      <point x="401" y="374"/>
      <point x="373" y="384"/>
      <point x="336" y="384" type="curve" smooth="yes"/>
      <point x="276" y="384"/>
      <point x="225" y="338"/>
      <point x="225" y="261" type="curve" smooth="yes"/>
      <point x="225" y="196"/>
      <point x="270" y="158"/>
      <point x="318" y="158" type="curve" smooth="yes"/>
      <point x="358" y="158"/>
      <point x="398" y="181"/>
      <point x="426" y="229" type="curve"/>
    </contour>
  </outline>
</glyph>
<glyph name="B" format="1">
  <advance width="551"/>
  <unicode hex="0042"/>
  <outline>
    <contour>
      <point x="137" y="287" type="move"/>
      <point x="306" y="287" type="line" smooth="yes"/>
      <point x="412" y="287"/>
      <point x="469" y="228"/>
      <point x="469" y="154" type="curve" smooth="yes"/>
      <point x="469" y="85"/>
      <point x="425" y="27"/>
      <point x="303" y="27" type="curve" smooth="yes"/>
      <point x="128" y="27" type="line"/>
      <point x="128" y="512" type="line"/>
      <point x="286" y="512" type="line" smooth="yes"/>
      <point x="383" y="512"/>
      <point x="425" y="459"/>
      <point x="425" y="400" type="curve" smooth="yes"/>
      <point x="425" y="340"/>
      <point x="378" y="298"/>
      <point x="319" y="287" type="curve"/>
    </contour>
  </outline>
</glyph>
<glyph name="C" format="1">
  <advance width="563"/>
  <unicode hex="0043"/>
  <outline>
    <contour>
      <point x="470" y="492" type="move"/>
      <point x="437" y="510"/>
      <point x="387" y="521"/>
      <point x="334" y="521" type="curve" smooth="yes"/>
      <point x="201" y="521"/>
      <point x="86" y="419"/>
      <point x="86" y="266" type="curve" smooth="yes"/>
      <point x="86" y="126"/>
      <point x="179" y="18"/>
      <point x="340" y="18" type="curve" smooth="yes"/>
      <point x="392" y="18"/>
      <point x="438" y="29"/>
      <point x="475" y="48" type="curve"/>
    </contour>
  </outline>
</glyph>
<glyph name="P" format="1">
  <advance width="515"/>
  <unicode hex="0050"/>
  <outline>
    <contour>
      <point x="154" y="203" type="move"/>
      <point x="265" y="203" type="line" smooth="yes"/>
      <point x="378" y="203"/>
      <point x="433" y="273"/>
      <point x="433" y="358" type="curve" smooth="yes"/>
      <point x="433" y="448"/>
      <point x="366" y="512"/>
      <point x="265" y="512" type="curve" smooth="yes"/>
      <point x="128" y="512" type="line"/>
      <point x="128" y="27" type="line"/>
    </contour>
  </outline>
</glyph>
<glyph name="i" format="1">
  <advance width="217"/>
  <unicode hex="0069"/>
  <outline>
    <contour>
      <point x="108" y="27" type="move"/>
      <point x="108" y="369" type="line"/>
    </contour>
    <contour>
      <point x="109" y="577" type="curve" smooth="yes"/>
      <point x="97" y="577"/>
      <point x="90" y="564"/>
      <point x="90" y="551" type="curve" smooth="yes"/>
      <point x="90" y="538"/>
      <point x="97" y="527"/>
      <point x="109" y="527" type="curve" smooth="yes"/>
      <point x="120" y="527"/>
      <point x="126" y="538"/>
      <point x="126" y="551" type="curve" smooth="yes"/>
      <point x="126" y="564"/>
      <point x="120" y="577"/>
    </contour>
  </outline>
</glyph>
<glyph name="j" format="1">
  <advance width="220"/>
  <unicode hex="006A"/>
  <outline>
    <contour>
      <point x="1" y="-131" type="move"/>
      <point x="71" y="-104"/>
      <point x="111" y="-53"/>
      <point x="111" y="46" type="curve" smooth="yes"/>
      <point x="111" y="369" type="line"/>
    </contour>
    <contour>
      <point x="112" y="575" type="move"/>
      <point x="112" y="531" type="line"/>
    </contour>
  </outline>
</glyph>
<glyph name="asciitilde" format="1">
  <advance width="491"/>
  <unicode hex="007E"/>
  <outline>
    <contour>
      <point x="98" y="221" type="move"/>
      <point x="124" y="267"/>
      <point x="147" y="290"/>
      <point x="178" y="290" type="curve" smooth="yes"/>
      <point x="205" y="290"/>
      <point x="222" y="274"/>
      <point x="243" y="253" type="curve" smooth="yes"/>
      <point x="266" y="230"/>
      <point x="286" y="216"/>
      <point x="311" y="216" type="curve" smooth="yes"/>
      <point x="346" y="216"/>
      <point x="367" y="241"/>
      <point x="397" y="293" type="curve"/>
    </contour>
    <component base="minus"/>
  </outline>
</glyph>
<glyph name="section" format="1">
  <advance width="535"/>
  <unicode hex="00A7"/>
  <outline>
    <contour>
      <point x="398" y="494" type="move"/>
      <point x="351" y="509"/>
      <point x="317" y="518"/>
      <point x="248" y="518" type="curve" smooth="yes"/>
      <point x="163" y="518"/>
      <point x="112" y="476"/>
      <point x="112" y="432" type="curve" smooth="yes"/>
      <point x="112" y="391"/>
      <point x="135" y="344"/>
      <point x="269" y="324" type="curve" smooth="yes"/>
      <point x="391" y="300"/>
      <point x="432" y="258"/>
      <point x="432" y="205" type="curve" smooth="yes"/>
      <point x="432" y="152"/>
      <point x="382" y="109"/>
      <point x="268" y="109" type="curve" smooth="yes"/>
    </contour>
    <contour>
      <point x="238" y="325" type="move" smooth="yes"/>
      <point x="153" y="325"/>
      <point x="102" y="286"/>
      <point x="102" y="225" type="curve" smooth="yes"/>
      <point x="102" y="181"/>
      <point x="125" y="132"/>
      <point x="259" y="109" type="curve" smooth="yes"/>
      <point x="381" y="88"/>
      <point x="422" y="59"/>
      <point x="422" y="5" type="curve" smooth="yes"/>
      <point x="422" y="-48"/>
      <point x="372" y="-96"/>
      <point x="258" y="-96" type="curve" smooth="yes"/>
      <point x="198" y="-96"/>
      <point x="141" y="-85"/>
      <point x="89" y="-61" type="curve"/>
    </contour>
  </outline>
</glyph>
<glyph name="dieresis" format="1">
  <advance width="500"/>
  <unicode hex="00A8"/>
  <outline>
    <contour>
      <point x="160" y="575" type="move"/>
      <point x="160" y="565"/>
      <point x="160" y="543"/>
      <point x="159" y="530" type="curve"/>
    </contour>
    <contour>
      <point x="333" y="575" type="move"/>
      <point x="334" y="564"/>
      <point x="333" y="544"/>
      <point x="332" y="530" type="curve"/>
    </contour>
  </outline>
</glyph>
<glyph name="copyright" format="1">
  <advance width="663"/>
  <unicode hex="00A9"/>
  <outline>
    <contour>
      <point x="410" y="384" type="move"/>
      <point x="393" y="393"/>
      <point x="368" y="400"/>
      <point x="340" y="400" type="curve" smooth="yes"/>
      <point x="272" y="400"/>
      <point x="211" y="346"/>
      <point x="211" y="268" type="curve" smooth="yes"/>
      <point x="211" y="195"/>
      <point x="260" y="139"/>
      <point x="343" y="139" type="curve" smooth="yes"/>
      <point x="370" y="139"/>
      <point x="394" y="145"/>
      <point x="413" y="155" type="curve"/>
    </contour>
    <contour>
      <point x="334" y="521" type="curve" smooth="yes"/>
      <point x="181" y="521"/>
      <point x="79" y="417"/>
      <point x="79" y="266" type="curve" smooth="yes"/>
      <point x="79" y="128"/>
      <point x="184" y="18"/>
      <point x="334" y="18" type="curve" smooth="yes"/>
      <point x="492" y="18"/>
      <point x="584" y="128"/>
      <point x="584" y="269" type="curve" smooth="yes"/>
      <point x="584" y="417"/>
      <point x="473" y="521"/>
    </contour>
  </outline>
</glyph>
<glyph name="ordfeminine" format="1">
  <advance width="379"/>
  <unicode hex="00AA"/>
  <outline>
    <contour>
      <point x="103" y="252" type="move"/>
      <point x="284" y="252" type="line"/>
    </contour>
    <contour>
      <point x="137" y="504" type="move"/>
      <point x="147" y="507"/>
      <point x="165" y="511"/>
      <point x="181" y="511" type="curve" smooth="yes"/>
      <point x="225" y="511"/>
      <point x="245" y="486"/>
      <point x="245" y="450" type="curve" smooth="yes"/>
      <point x="245" y="410" type="line" smooth="yes"/>
      <point x="245" y="386"/>
      <point x="251" y="372"/>
      <point x="262" y="360" type="curve"/>
    </contour>
    <contour>
      <point x="244" y="445" type="move"/>
      <point x="228" y="446"/>
      <point x="214" y="447"/>
      <point x="200" y="447" type="curve" smooth="yes"/>
      <point x="165" y="447"/>
      <point x="142" y="439"/>
      <point x="127" y="426" type="curve" smooth="yes"/>
      <point x="117" y="417"/>
      <point x="114" y="407"/>
      <point x="114" y="396" type="curve" smooth="yes"/>
      <point x="114" y="380"/>
      <point x="127" y="360"/>
      <point x="160" y="360" type="curve" smooth="yes"/>
      <point x="196" y="360"/>
      <point x="222" y="373"/>
      <point x="245" y="402" type="curve"/>
    </contour>
  </outline>
</glyph>
<glyph name="registered" format="1">
  <advance width="511"/>
  <unicode hex="00AE"/>
  <outline>
    <contour>
      <point x="208" y="396" type="move"/>
      <point x="255" y="396" type="line" smooth="yes"/>
      <point x="298" y="396"/>
      <point x="319" y="424"/>
      <point x="319" y="456" type="curve" smooth="yes"/>
      <point x="319" y="491"/>
      <point x="293" y="512"/>
      <point x="255" y="512" type="curve" smooth="yes"/>
      <point x="198" y="512" type="line"/>
      <point x="198" y="335" type="line"/>
    </contour>
    <contour>
      <point x="282" y="390" type="move"/>
      <point x="330" y="335" type="line"/>
    </contour>
    <contour>
      <point x="252" y="603" type="curve" smooth="yes"/>
      <point x="354" y="603"/>
      <point x="424" y="533"/>
      <point x="424" y="438" type="curve" smooth="yes"/>
      <point x="424" y="343"/>
      <point x="353" y="272"/>
      <point x="257" y="272" type="curve" smooth="yes"/>
      <point x="156" y="272"/>
      <point x="90" y="349"/>
      <point x="90" y="440" type="curve" smooth="yes"/>
      <point x="90" y="536"/>
      <point x="156" y="603"/>
    </contour>
  </outline>
</glyph>
<glyph name="plusminus" format="1">
  <advance width="491"/>
  <unicode hex="00B1"/>
  <outline>
    <contour>
      <point x="114" y="295" type="move"/>
      <point x="377" y="295" type="line"/>
    </contour>
    <contour>
      <point x="245" y="209" type="move"/>
      <point x="245" y="380" type="line"/>
    </contour>
    <contour>
      <point x="114" y="106" type="move"/>
      <point x="377" y="106" type="line"/>
    </contour>
  </outline>
</glyph>
<glyph name="cedilla" format="1">
  <advance width="500"/>
  <unicode hex="00B8"/>
  <outline>
    <contour>
      <point x="293" y="-70" type="move"/>
      <point x="268" y="-96"/>
      <point x="242" y="-127"/>
      <point x="219" y="-152" type="curve"/>
    </contour>
  </outline>
</glyph>
<glyph name="ordmasculine" format="1">
  <advance width="369"/>
  <unicode hex="00BA"/>
  <outline>
    <contour>
      <point x="185" y="511" type="curve" smooth="yes"/>
      <point x="137" y="511"/>
      <point x="108" y="475"/>
      <point x="108" y="432" type="curve" smooth="yes"/>
      <point x="108" y="389"/>
      <point x="138" y="356"/>
      <point x="185" y="356" type="curve" smooth="yes"/>
      <point x="232" y="356"/>
      <point x="262" y="389"/>
      <point x="262" y="432" type="curve" smooth="yes"/>
      <point x="262" y="475"/>
      <point x="232" y="511"/>
    </contour>
    <contour>
      <point x="103" y="252" type="move"/>
      <point x="272" y="252" type="line"/>
    </contour>
  </outline>
</glyph>
<glyph name="onehalf" format="1">
  <advance width="790"/>
  <unicode hex="00BD"/>
  <outline>
    <contour>
      <point x="497" y="512" type="move"/>
      <point x="214" y="27" type="line"/>
    </contour>
    <contour>
      <point x="207" y="519" type="move"/>
      <point x="207" y="261" type="line"/>
    </contour>
    <contour>
      <point x="207" y="522" type="move"/>
      <point x="125" y="478" type="line"/>
    </contour>
    <contour>
      <point x="476" y="32" type="move"/>
      <point x="565" y="115" type="line" smooth="yes"/>
      <point x="623" y="170"/>
      <point x="641" y="191"/>
      <point x="641" y="224" type="curve" smooth="yes"/>
      <point x="641" y="254"/>
      <point x="617" y="283"/>
      <point x="566" y="283" type="curve" smooth="yes"/>
      <point x="537" y="283"/>
      <point x="514" y="275"/>
      <point x="489" y="259" type="curve"/>
    </contour>
    <contour>
      <point x="660" y="27" type="move"/>
      <point x="471" y="27" type="line"/>
    </contour>
  </outline>
</glyph>
<glyph name="multiply" format="1">
  <advance width="491"/>
  <unicode hex="00D7"/>
  <outline>
    <contour>
      <point x="147" y="158" type="move"/>
      <point x="341" y="344" type="line"/>
    </contour>
    <contour>
      <point x="344" y="158" type="move"/>
      <point x="150" y="343" type="line"/>
    </contour>
  </outline>
</glyph>
<glyph name="germandbls" format="1">
  <advance width="539"/>
  <unicode hex="00DF"/>
  <outline>
    <contour>
      <point x="53" y="369" type="move"/>
      <point x="138" y="369" type="line"/>
    </contour>
    <contour>
      <point x="275" y="298" type="move"/>
      <point x="345" y="359"/>
      <point x="378" y="401"/>
      <point x="379" y="452" type="curve" smooth="yes"/>
      <point x="381" y="504"/>
      <point x="344" y="564"/>
      <point x="258" y="564" type="curve" smooth="yes"/>
      <point x="180" y="564"/>
      <point x="141.0" y="513.0"/>
      <point x="141.0" y="442.0" type="curve" smooth="yes"/>
      <point x="141.0" y="27.0" type="line"/>
    </contour>
    <contour>
      <point x="254" y="39" type="move"/>
      <point x="279" y="29"/>
      <point x="310" y="23"/>
      <point x="337" y="23" type="curve" smooth="yes"/>
      <point x="412" y="23"/>
      <point x="453" y="66"/>
      <point x="453" y="127" type="curve" smooth="yes"/>
      <point x="453" y="177"/>
      <point x="424" y="222"/>
      <point x="358" y="254" type="curve" smooth="yes"/>
      <point x="275" y="294" type="line"/>
    </contour>
  </outline>
</glyph>
<glyph name="ae" format="1">
  <advance width="743"/>
  <unicode hex="00E6"/>
  <outline>
    <contour>
      <point x="127" y="353" type="move"/>
      <point x="148" y="360"/>
      <point x="187" y="369"/>
      <point x="220" y="369" type="curve" smooth="yes"/>
      <point x="312" y="369"/>
      <point x="354" y="313"/>
      <point x="354" y="232" type="curve" smooth="yes"/>
      <point x="354" y="206" type="line" smooth="yes"/>
    </contour>
    <contour>
      <point x="353" y="221" type="move"/>
      <point x="319" y="222"/>
      <point x="289" y="224"/>
      <point x="260" y="224" type="curve" smooth="yes"/>
      <point x="187" y="224"/>
      <point x="138" y="206"/>
      <point x="108" y="176" type="curve" smooth="yes"/>
      <point x="87" y="156"/>
      <point x="80" y="133"/>
      <point x="80" y="108" type="curve" smooth="yes"/>
      <point x="80" y="72"/>
      <point x="106" y="27"/>
      <point x="177" y="27" type="curve" smooth="yes"/>
      <point x="251" y="27"/>
      <point x="315" y="63"/>
      <point x="362" y="130" type="curve"/>
    </contour>
    <component base="e" xOffset="275"/>
  </outline>
</glyph>
<glyph name="divide" format="1">
  <advance width="491"/>
  <unicode hex="00F7"/>
  <outline>
    <contour>
      <point x="245" y="390" type="move"/>
      <point x="245" y="424" type="line"/>
    </contour>
    <contour>
      <point x="245" y="81" type="move"/>
      <point x="245" y="115" type="line"/>
    </contour>
    <contour>
      <point x="92" y="253" type="move"/>
      <point x="398" y="253" type="line"/>
    </contour>
  </outline>
</glyph>
<glyph name="jcircumflex" format="1">
  <advance width="220"/>
  <unicode hex="0135"/>
  <outline>
    <contour>
      <point x="1" y="-131" type="move"/>
      <point x="71" y="-104"/>
      <point x="111" y="-53"/>
      <point x="111" y="46" type="curve" smooth="yes"/>
      <point x="111" y="369" type="line"/>
    </contour>
    <component base="circumflexcmb" xOffset="103"/>
  </outline>
</glyph>
<glyph name="Lslash" format="1">
  <advance width="479"/>
  <unicode hex="0141"/>
  <outline>
    <contour>
      <point x="267" y="349" type="move"/>
      <point x="52" y="207" type="line"/>
    </contour>
    <component base="L"/>
  </outline>
</glyph>
<glyph name="OE" format="1">
  <advance width="774"/>
  <unicode hex="0152"/>
  <outline>
    <contour>
      <point x="425" y="512" type="move"/>
      <point x="402" y="512"/>
      <point x="346" y="512"/>
      <point x="322" y="512" type="curve" smooth="yes"/>
      <point x="181" y="512"/>
      <point x="86" y="412"/>
      <point x="86" y="267" type="curve" smooth="yes"/>
      <point x="86" y="133"/>
      <point x="183" y="27"/>
      <point x="322" y="27" type="curve" smooth="yes"/>
      <point x="365" y="27"/>
      <point x="422" y="27"/>
      <point x="454" y="27" type="curve" smooth="yes"/>
    </contour>
    <component base="E" xOffset="279"/>
  </outline>
</glyph>
<glyph name="ogonek" format="1">
  <advance width="500"/>
  <unicode hex="02DB"/>
  <outline>
    <contour>
      <point x="262" y="27" type="move"/>
      <point x="210" y="-20"/>
      <point x="197" y="-56"/>
      <point x="197" y="-85" type="curve" smooth="yes"/>
      <point x="197" y="-104"/>
      <point x="204" y="-120"/>
      <point x="217" y="-133" type="curve" smooth="yes"/>
      <point x="233" y="-149"/>
      <point x="256" y="-155"/>
      <point x="276" y="-155" type="curve" smooth="yes"/>
      <point x="295" y="-155"/>
      <point x="314" y="-150"/>
      <point x="327" y="-146" type="curve"/>
    </contour>
  </outline>
</glyph>
<glyph name="pi" format="1">
  <advance width="643"/>
  <unicode hex="03C0"/>
  <outline>
    <contour>
      <point x="443" y="402" type="move"/>
      <point x="443" y="27" type="line"/>
    </contour>
    <contour>
      <point x="96" y="407" type="move"/>
      <point x="546" y="407" type="line"/>
    </contour>
    <contour>
      <point x="203" y="402" type="move"/>
      <point x="203" y="223" type="line" smooth="yes"/>
      <point x="203" y="107"/>
      <point x="177" y="60"/>
      <point x="123" y="27" type="curve"/>
    </contour>
  </outline>
</glyph>
<glyph name="knA" format="1">
  <advance width="758"/>
  <unicode hex="0C85"/>
  <outline>
    <contour>
      <point x="328" y="208" type="move"/>
      <point x="540" y="208" type="line"/>
    </contour>
    <contour>
      <point x="102" y="346" type="move"/>
      <point x="133" y="304"/>
      <point x="171" y="280"/>
      <point x="211" y="280" type="curve" smooth="yes"/>
      <point x="260" y="280"/>
      <point x="298" y="312"/>
      <point x="298" y="363" type="curve" smooth="yes"/>
      <point x="298" y="412"/>
      <point x="265" y="452"/>
      <point x="209" y="452" type="curve" smooth="yes"/>
      <point x="140" y="452"/>
      <point x="85" y="356"/>
      <point x="85" y="253" type="curve" smooth="yes"/>
      <point x="85" y="130"/>
      <point x="183" y="27"/>
      <point x="366" y="27" type="curve" smooth="yes"/>
      <point x="585" y="27"/>
      <point x="673" y="132"/>
      <point x="673" y="263" type="curve" smooth="yes"/>
      <point x="673" y="384"/>
      <point x="606" y="441"/>
      <point x="547" y="441" type="curve" smooth="yes"/>
      <point x="488" y="441"/>
      <point x="456" y="396"/>
      <point x="456" y="347" type="curve" smooth="yes"/>
      <point x="456" y="298"/>
      <point x="489" y="253"/>
      <point x="534" y="214" type="curve" smooth="yes"/>
      <point x="534" y="214"/>
    </contour>
  </outline>
</glyph>
<glyph name="knI" format="1">
  <advance width="689"/>
  <unicode hex="0C87"/>
  <outline>
    <contour>
      <point x="560" y="-19" type="move"/>
      <point x="510" y="128"/>
      <point x="418" y="206"/>
      <point x="324" y="206" type="curve" smooth="yes"/>
      <point x="252" y="206"/>
      <point x="219" y="163"/>
      <point x="219" y="126" type="curve" smooth="yes"/>
      <point x="219" y="88"/>
      <point x="252" y="47"/>
      <point x="325" y="47" type="curve" smooth="yes"/>
      <point x="492" y="47"/>
      <point x="613" y="209"/>
      <point x="613" y="316" type="curve" smooth="yes"/>
      <point x="613" y="395"/>
      <point x="566" y="443"/>
      <point x="497" y="443" type="curve" smooth="yes"/>
      <point x="429" y="443"/>
      <point x="388" y="398"/>
      <point x="349" y="330" type="curve"/>
      <point x="344" y="330" type="line"/>
      <point x="307" y="397"/>
      <point x="260" y="444"/>
      <point x="188" y="444" type="curve" smooth="yes"/>
      <point x="119" y="444"/>
      <point x="77" y="393"/>
      <point x="77" y="332" type="curve" smooth="yes"/>
      <point x="77" y="308"/>
      <point x="84" y="284"/>
      <point x="100" y="258" type="curve"/>
    </contour>
  </outline>
</glyph>
<glyph name="knII" format="1">
  <advance width="901"/>
  <unicode hex="0C88"/>
  <outline>
    <contour>
      <point x="731" y="36" type="move"/>
      <point x="737" y="58"/>
      <point x="742" y="83"/>
      <point x="742" y="106" type="curve" smooth="yes"/>
      <point x="742" y="175"/>
      <point x="693" y="254"/>
      <point x="693" y="308" type="curve" smooth="yes"/>
      <point x="693" y="357"/>
      <point x="728" y="390"/>
      <point x="768" y="390" type="curve" smooth="yes"/>
      <point x="811" y="390"/>
      <point x="841" y="356"/>
      <point x="841" y="317" type="curve" smooth="yes"/>
      <point x="841" y="267"/>
      <point x="803" y="223"/>
      <point x="729" y="223" type="curve" smooth="yes"/>
      <point x="56" y="223" type="line"/>
    </contour>
    <contour>
      <point x="136" y="437" type="move"/>
      <point x="479" y="437" type="line" smooth="yes"/>
      <point x="552" y="437"/>
      <point x="595" y="463"/>
      <point x="627" y="515" type="curve" smooth="yes"/>
    </contour>
    <contour>
      <point x="250" y="437"/>
      <point x="158" y="330"/>
      <point x="158" y="222" type="curve" smooth="yes"/>
      <point x="158" y="103"/>
      <point x="243" y="23"/>
      <point x="367" y="23" type="curve" smooth="yes"/>
      <point x="491" y="23"/>
      <point x="575" y="105"/>
      <point x="575" y="222" type="curve" smooth="yes"/>
      <point x="575" y="328"/>
      <point x="485" y="437"/>
      <point x="367" y="437" type="curve" smooth="yes"/>
    </contour>
  </outline>
</glyph>
<glyph name="knU" format="1">
  <advance width="953"/>
  <unicode hex="0C89"/>
  <outline>
    <contour>
      <point x="104" y="346" type="move"/>
      <point x="136" y="304"/>
      <point x="175" y="280"/>
      <point x="217" y="280" type="curve" smooth="yes"/>
      <point x="268" y="280"/>
      <point x="307" y="313"/>
      <point x="307" y="363" type="curve" smooth="yes"/>
      <point x="307" y="412"/>
      <point x="273" y="452"/>
      <point x="215" y="452" type="curve" smooth="yes"/>
      <point x="143" y="452"/>
      <point x="85" y="367"/>
      <point x="85" y="240" type="curve" smooth="yes"/>
      <point x="85" y="113"/>
      <point x="160" y="27"/>
      <point x="247" y="27" type="curve" smooth="yes"/>
      <point x="282" y="27"/>
      <point x="313" y="39"/>
      <point x="338" y="64" type="curve" smooth="yes"/>
      <point x="365" y="91"/>
      <point x="386" y="150"/>
      <point x="402" y="242" type="curve" smooth="yes"/>
      <point x="424" y="367"/>
      <point x="450" y="415"/>
      <point x="504" y="415" type="curve" smooth="yes"/>
      <point x="568" y="415"/>
      <point x="596" y="361"/>
      <point x="604" y="220" type="curve" smooth="yes"/>
      <point x="609" y="130"/>
      <point x="633" y="90"/>
      <point x="658" y="65" type="curve" smooth="yes"/>
      <point x="682" y="41"/>
      <point x="717" y="27"/>
      <point x="761" y="27" type="curve" smooth="yes"/>
      <point x="829" y="27"/>
      <point x="889" y="78"/>
      <point x="889" y="179" type="curve" smooth="yes"/>
      <point x="889" y="279"/>
      <point x="838" y="373"/>
      <point x="773" y="437" type="curve"/>
    </contour>
  </outline>
</glyph>
<glyph name="knvR" format="1">
  <advance width="1035"/>
  <unicode hex="0C8B"/>
  <outline>
    <contour>
      <point x="444" y="437" type="move"/>
      <point x="556" y="437" type="line" smooth="yes"/>
      <point x="629" y="437"/>
      <point x="672" y="463"/>
      <point x="704" y="515" type="curve"/>
    </contour>
    <component base="knKha" xOffset="-59" yOffset="-142"/>
    <component base="knUsign" xOffset="986" yOffset="-356"/>
    <component base="knKHA"/>
    <component base="knmU" xOffset="750"/>
  </outline>
</glyph>
<glyph name="knvL" format="1">
  <advance width="798"/>
  <unicode hex="0C8C"/>
  <outline>
    <contour>
      <point x="93.0" y="258.0" type="move"/>
      <point x="77.0" y="284.0"/>
      <point x="70.0" y="308.0"/>
      <point x="70.0" y="338.0" type="curve" smooth="yes"/>
      <point x="70.0" y="393.0"/>
      <point x="108" y="444"/>
      <point x="177" y="444" type="curve" smooth="yes"/>
      <point x="240" y="444"/>
      <point x="287" y="397"/>
      <point x="324" y="330" type="curve"/>
      <point x="329" y="330" type="line"/>
      <point x="368" y="398"/>
      <point x="416" y="443"/>
      <point x="481" y="443" type="curve"/>
      <point x="545" y="443"/>
      <point x="584" y="393"/>
      <point x="584" y="341" type="curve" smooth="yes"/>
      <point x="584" y="310"/>
      <point x="569" y="281"/>
      <point x="549" y="261" type="curve" smooth="yes"/>
      <point x="535" y="247"/>
      <point x="505" y="225"/>
      <point x="465" y="202" type="curve" smooth="yes"/>
      <point x="414" y="172"/>
      <point x="398" y="148"/>
      <point x="398" y="116" type="curve" smooth="yes"/>
      <point x="398" y="98"/>
      <point x="407" y="80"/>
      <point x="421" y="65" type="curve"/>
      <point x="440" y="47"/>
      <point x="476" y="27"/>
      <point x="570" y="27" type="curve" smooth="yes"/>
      <point x="656" y="27"/>
      <point x="703" y="55"/>
      <point x="717" y="69" type="curve" smooth="yes"/>
      <point x="732" y="84"/>
      <point x="744" y="106"/>
      <point x="744" y="134" type="curve" smooth="yes"/>
      <point x="744" y="177"/>
      <point x="729" y="212"/>
      <point x="699" y="238" type="curve"/>
    </contour>
  </outline>
</glyph>
<glyph name="knE" format="1">
  <advance width="700"/>
  <unicode hex="0C8E"/>
  <outline>
    <contour>
      <point x="181" y="225" type="move"/>
      <point x="116" y="225"/>
      <point x="72" y="173"/>
      <point x="72" y="125" type="curve" smooth="yes"/>
      <point x="72" y="72"/>
      <point x="116" y="27"/>
      <point x="182" y="27" type="curve" smooth="yes"/>
      <point x="257" y="27"/>
      <point x="303" y="60"/>
      <point x="340" y="128" type="curve"/>
      <point x="345" y="128" type="line"/>
      <point x="386" y="57"/>
      <point x="427" y="27"/>
      <point x="490" y="27" type="curve" smooth="yes"/>
      <point x="561" y="27"/>
      <point x="622" y="78"/>
      <point x="621" y="172" type="curve" smooth="yes"/>
      <point x="620" y="322"/>
      <point x="482" y="463"/>
      <point x="197" y="463" type="curve"/>
    </contour>
  </outline>
</glyph>
<glyph name="knO" format="1">
  <advance width="716"/>
  <unicode hex="0C92"/>
  <outline>
    <contour>
      <point x="69" y="405" type="move"/>
      <point x="97" y="433"/>
      <point x="130" y="452"/>
      <point x="169" y="452" type="curve" smooth="yes"/>
      <point x="221" y="452"/>
      <point x="254" y="418"/>
      <point x="254" y="375" type="curve" smooth="yes"/>
      <point x="254" y="336"/>
      <point x="232" y="303"/>
      <point x="175" y="257" type="curve" smooth="yes"/>
      <point x="127" y="218"/>
      <point x="96" y="177"/>
      <point x="96" y="129" type="curve" smooth="yes"/>
      <point x="96" y="74"/>
      <point x="135" y="27"/>
      <point x="208" y="27" type="curve" smooth="yes"/>
      <point x="275" y="27"/>
      <point x="320" y="56"/>
      <point x="365" y="128" type="curve"/>
      <point x="370" y="128" type="line"/>
      <point x="412" y="63"/>
      <point x="458" y="27"/>
      <point x="531" y="27" type="curve" smooth="yes"/>
      <point x="603" y="27"/>
      <point x="646" y="76"/>
      <point x="646" y="134" type="curve" smooth="yes"/>
      <point x="646" y="181"/>
      <point x="622" y="215"/>
      <point x="581" y="238" type="curve"/>
    </contour>
  </outline>
</glyph>
<glyph name="knOO" format="1">
  <advance width="694"/>
  <unicode hex="0C93"/>
  <outline>
    <contour>
      <point x="306" y="597" type="move"/>
      <point x="290" y="604"/>
      <point x="274" y="611"/>
      <point x="249" y="611" type="curve" smooth="yes"/>
      <point x="201" y="611"/>
      <point x="168" y="574"/>
      <point x="168" y="529" type="curve" smooth="yes"/>
      <point x="168" y="503"/>
      <point x="174" y="479"/>
      <point x="178" y="463" type="curve"/>
    </contour>
    <component base="knO"/>
  </outline>
</glyph>
<glyph name="knAU" format="1">
  <advance width="694"/>
  <unicode hex="0C94"/>
  <outline>
    <contour>
      <point x="113" y="637" type="move"/>
      <point x="427" y="637" type="line" smooth="yes"/>
      <point x="573" y="637"/>
      <point x="638" y="570"/>
      <point x="638" y="480" type="curve"/>
      <point x="638" y="397"/>
      <point x="594" y="348"/>
      <point x="536" y="348" type="curve" smooth="yes"/>
      <point x="481" y="348"/>
      <point x="450" y="385"/>
      <point x="449" y="426" type="curve" smooth="yes"/>
      <point x="448" y="475"/>
      <point x="486" y="521"/>
      <point x="555" y="521" type="curve" smooth="yes"/>
      <point x="582" y="521"/>
      <point x="610" y="518"/>
      <point x="633" y="510" type="curve"/>
    </contour>
    <contour>
      <point x="114" y="466" type="move"/>
      <point x="159" y="466" type="line" smooth="yes"/>
      <point x="258" y="466"/>
      <point x="317" y="531"/>
      <point x="316" y="629" type="curve"/>
    </contour>
    <component base="knO"/>
  </outline>
</glyph>
<glyph name="knKA" format="1">
  <advance width="673"/>
  <unicode hex="0C95"/>
  <outline>
    <contour>
      <point x="83" y="437" type="move"/>
      <point x="465" y="437" type="line" smooth="yes"/>
      <point x="538" y="437"/>
      <point x="581" y="463"/>
      <point x="613" y="515" type="curve"/>
    </contour>
    <contour>
      <point x="79" y="282" type="move"/>
      <point x="592" y="282" type="line" smooth="yes"/>
    </contour>
    <contour>
      <point x="337" y="285" type="move"/>
      <point x="337" y="409" type="line" smooth="yes"/>
    </contour>
    <contour>
      <point x="294" y="280" type="move"/>
      <point x="218" y="268"/>
      <point x="170" y="213"/>
      <point x="170" y="151" type="curve" smooth="yes"/>
      <point x="170" y="87"/>
      <point x="213" y="19"/>
      <point x="336" y="19" type="curve" smooth="yes"/>
      <point x="462" y="19"/>
      <point x="504" y="88"/>
      <point x="504" y="151" type="curve" smooth="yes"/>
      <point x="504" y="213"/>
      <point x="455" y="269"/>
      <point x="379" y="280" type="curve"/>
    </contour>
  </outline>
</glyph>
<glyph name="knKHA" format="1">
  <advance width="726"/>
  <unicode hex="0C96"/>
  <outline>
    <contour>
      <point x="247" y="438" type="move"/>
      <point x="253" y="423"/>
      <point x="261" y="401"/>
      <point x="261" y="377" type="curve" smooth="yes"/>
      <point x="261" y="327"/>
      <point x="224" y="292"/>
      <point x="166" y="292" type="curve" smooth="yes"/>
      <point x="120" y="292"/>
      <point x="84" y="326"/>
      <point x="84" y="369" type="curve" smooth="yes"/>
      <point x="84" y="408"/>
      <point x="115" y="451"/>
      <point x="181" y="451" type="curve" smooth="yes"/>
      <point x="306" y="451"/>
      <point x="392" y="357"/>
      <point x="392" y="242" type="curve" smooth="yes"/>
      <point x="392" y="145"/>
      <point x="315" y="23"/>
      <point x="181" y="23" type="curve" smooth="yes"/>
      <point x="103" y="23"/>
      <point x="73" y="63"/>
      <point x="73" y="101" type="curve" smooth="yes"/>
      <point x="73" y="136"/>
      <point x="107" y="179"/>
      <point x="170" y="179" type="curve" smooth="yes"/>
      <point x="235" y="179"/>
      <point x="297" y="146"/>
      <point x="352" y="100" type="curve" smooth="yes"/>
      <point x="412" y="49"/>
      <point x="465" y="27"/>
      <point x="529" y="27" type="curve" smooth="yes"/>
      <point x="601" y="27"/>
      <point x="657" y="78"/>
      <point x="657" y="179" type="curve" smooth="yes"/>
      <point x="657" y="279"/>
      <point x="606" y="373"/>
      <point x="541" y="437" type="curve"/>
    </contour>
  </outline>
</glyph>
<glyph name="knGA" format="1">
  <advance width="634"/>
  <unicode hex="0C97"/>
  <outline>
    <contour>
      <point x="77" y="437" type="move"/>
      <point x="438" y="437" type="line" smooth="yes"/>
      <point x="511" y="437"/>
      <point x="554" y="463"/>
      <point x="586" y="515" type="curve"/>
    </contour>
    <contour>
      <point x="488" y="27" type="move"/>
      <point x="510" y="73"/>
      <point x="523" y="118"/>
      <point x="523" y="180" type="curve" smooth="yes"/>
      <point x="523" y="273"/>
      <point x="461" y="379"/>
      <point x="336" y="437" type="curve"/>
    </contour>
    <contour>
      <point x="298" y="437" type="move"/>
      <point x="175" y="380"/>
      <point x="118" y="274"/>
      <point x="118" y="180" type="curve" smooth="yes"/>
      <point x="118" y="119"/>
      <point x="130" y="71"/>
      <point x="153" y="27" type="curve"/>
    </contour>
  </outline>
</glyph>
<glyph name="knGHA" format="1">
  <advance width="734"/>
  <unicode hex="0C98"/>
  <outline>
    <contour>
      <point x="719" y="339" type="move"/>
      <point x="729" y="322"/>
      <point x="734" y="309"/>
      <point x="734" y="282" type="curve" smooth="yes"/>
      <point x="734" y="246"/>
      <point x="702" y="210"/>
      <point x="660" y="210" type="curve" smooth="yes"/>
      <point x="635" y="210"/>
      <point x="613" y="220"/>
      <point x="593" y="235" type="curve"/>
    </contour>
    <contour>
      <point x="369" y="-89" type="move"/>
      <point x="369" y="-192" type="line"/>
    </contour>
    <contour>
      <point x="91" y="437" type="move"/>
      <point x="526" y="437" type="line" smooth="yes"/>
      <point x="599" y="437"/>
      <point x="642" y="463"/>
      <point x="674" y="515" type="curve"/>
    </contour>
    <contour>
      <point x="368" y="415" type="curve" smooth="yes"/>
      <point x="320" y="415"/>
      <point x="285" y="379"/>
      <point x="285" y="333" type="curve" smooth="yes"/>
      <point x="285" y="289"/>
      <point x="319" y="253"/>
      <point x="369" y="253" type="curve" smooth="yes"/>
      <point x="420" y="253"/>
      <point x="453" y="288"/>
      <point x="453" y="334" type="curve" smooth="yes"/>
      <point x="453" y="379"/>
      <point x="420" y="415"/>
    </contour>
    <contour>
      <point x="184" y="220" type="move"/>
      <point x="122" y="211"/>
      <point x="88" y="170"/>
      <point x="88" y="122" type="curve" smooth="yes"/>
      <point x="88" y="69"/>
      <point x="131" y="25"/>
      <point x="207" y="25" type="curve" smooth="yes"/>
      <point x="275" y="25"/>
      <point x="319" y="59"/>
      <point x="366" y="128" type="curve"/>
      <point x="371" y="128" type="line"/>
      <point x="413" y="63"/>
      <point x="459" y="27"/>
      <point x="532" y="27" type="curve"/>
      <point x="604" y="27"/>
      <point x="647" y="76"/>
      <point x="647" y="129" type="curve" smooth="yes"/>
      <point x="647" y="176"/>
      <point x="620" y="215"/>
      <point x="586" y="240" type="curve"/>
    </contour>
    <component base="knPha" xOffset="10"/>
  </outline>
</glyph>
<glyph name="knNGA" format="1">
  <advance width="694"/>
  <unicode hex="0C99"/>
  <outline>
    <contour>
      <point x="249" y="343" type="move"/>
      <point x="288" y="462"/>
      <point x="358" y="505"/>
      <point x="430" y="505" type="curve" smooth="yes"/>
      <point x="498" y="505"/>
      <point x="554" y="476"/>
      <point x="606" y="397" type="curve"/>
    </contour>
    <contour>
      <point x="415" y="351" type="curve" smooth="yes"/>
      <point x="396" y="351"/>
      <point x="381" y="333"/>
      <point x="381" y="318" type="curve" smooth="yes"/>
      <point x="381" y="299"/>
      <point x="396" y="284"/>
      <point x="415" y="284" type="curve" smooth="yes"/>
      <point x="435" y="284"/>
      <point x="449" y="299"/>
      <point x="449" y="317" type="curve" smooth="yes"/>
      <point x="449" y="333"/>
      <point x="435" y="351"/>
    </contour>
    <component base="knO" xOffset="2" yOffset="1"/>
  </outline>
</glyph>
<glyph name="knCA" format="1">
  <advance width="786"/>
  <unicode hex="0C9A"/>
  <outline>
    <contour>
      <point x="420" y="290" type="move"/>
      <point x="702" y="290" type="line"/>
    </contour>
    <contour>
      <point x="422" y="437" type="move"/>
      <point x="579" y="437" type="line" smooth="yes"/>
      <point x="652" y="437"/>
      <point x="695" y="463"/>
      <point x="727" y="515" type="curve" smooth="yes"/>
    </contour>
    <contour>
      <point x="572" y="296" type="move"/>
      <point x="572" y="409" type="line" smooth="yes"/>
    </contour>
    <contour>
      <point x="69" y="407" type="move"/>
      <point x="97" y="435"/>
      <point x="130" y="454"/>
      <point x="169" y="454" type="curve" smooth="yes"/>
      <point x="221" y="454"/>
      <point x="254" y="420"/>
      <point x="254" y="377" type="curve" smooth="yes"/>
      <point x="254" y="338"/>
      <point x="232" y="305"/>
      <point x="175" y="259" type="curve" smooth="yes"/>
      <point x="127" y="220"/>
      <point x="96" y="179"/>
      <point x="96" y="131" type="curve" smooth="yes"/>
      <point x="96" y="76"/>
      <point x="135" y="29"/>
      <point x="208" y="29" type="curve" smooth="yes"/>
      <point x="275" y="29"/>
      <point x="320" y="58"/>
      <point x="365" y="130" type="curve"/>
      <point x="370" y="130" type="line"/>
      <point x="412" y="65"/>
      <point x="458" y="29"/>
      <point x="531" y="29" type="curve" smooth="yes"/>
      <point x="603" y="29"/>
      <point x="646" y="81"/>
      <point x="646" y="139" type="curve" smooth="yes"/>
      <point x="646" y="191"/>
      <point x="623" y="235"/>
      <point x="567" y="279" type="curve"/>
    </contour>
  </outline>
</glyph>
<glyph name="knNYA" format="1">
  <advance width="897"/>
  <unicode hex="0C9E"/>
  <outline>
    <contour>
      <point x="603" y="349" type="move"/>
      <point x="632" y="399"/>
      <point x="670" y="437"/>
      <point x="723" y="437" type="curve" smooth="yes"/>
      <point x="787" y="437"/>
      <point x="809" y="388"/>
      <point x="809" y="350" type="curve" smooth="yes"/>
      <point x="809" y="317"/>
      <point x="798" y="286"/>
      <point x="783" y="255" type="curve"/>
    </contour>
    <component base="knI"/>
  </outline>
</glyph>
<glyph name="knTTA" format="1">
  <advance width="719"/>
  <unicode hex="0C9F"/>
  <outline>
    <contour>
      <point x="501" y="284" type="move"/>
      <point x="587" y="297"/>
      <point x="610" y="335"/>
      <point x="610" y="380" type="curve" smooth="yes"/>
      <point x="610" y="423"/>
      <point x="579" y="464"/>
      <point x="523" y="486" type="curve"/>
    </contour>
    <contour>
      <point x="195" y="492" type="move"/>
      <point x="150" y="480"/>
      <point x="130" y="447"/>
      <point x="129" y="418" type="curve" smooth="yes"/>
      <point x="128" y="390"/>
      <point x="139" y="353"/>
      <point x="196" y="339" type="curve"/>
    </contour>
    <contour>
      <point x="99" y="248" type="move"/>
      <point x="125" y="209"/>
      <point x="158" y="188"/>
      <point x="192" y="188" type="curve" smooth="yes"/>
      <point x="235" y="188"/>
      <point x="272" y="217"/>
      <point x="272" y="264" type="curve" smooth="yes"/>
      <point x="272" y="307"/>
      <point x="240" y="339"/>
      <point x="195" y="339" type="curve" smooth="yes"/>
      <point x="141" y="339"/>
      <point x="80" y="270"/>
      <point x="80" y="178" type="curve" smooth="yes"/>
      <point x="80" y="78"/>
      <point x="136" y="27"/>
      <point x="213" y="27" type="curve" smooth="yes"/>
      <point x="285" y="27"/>
      <point x="335" y="65"/>
      <point x="366" y="128" type="curve"/>
      <point x="371" y="128" type="line"/>
      <point x="409" y="65"/>
      <point x="455" y="27"/>
      <point x="519" y="27" type="curve" smooth="yes"/>
      <point x="601" y="27"/>
      <point x="643" y="72"/>
      <point x="643" y="141" type="curve" smooth="yes"/>
      <point x="643" y="206"/>
      <point x="596" y="264"/>
      <point x="500" y="283" type="curve" smooth="yes"/>
      <point x="494" y="284"/>
      <point x="504" y="283"/>
      <point x="493" y="283" type="curve"/>
    </contour>
  </outline>
</glyph>
<glyph name="knTTHA" format="1">
  <advance width="658"/>
  <unicode hex="0CA0"/>
  <outline>
    <contour>
      <point x="92" y="437" type="move"/>
      <point x="462" y="437" type="line" smooth="yes"/>
      <point x="535" y="437"/>
      <point x="577" y="463"/>
      <point x="609" y="515" type="curve"/>
    </contour>
    <contour>
      <point x="205" y="437"/>
      <point x="112" y="332"/>
      <point x="112" y="224" type="curve" smooth="yes"/>
      <point x="112" y="108"/>
      <point x="199" y="17"/>
      <point x="336" y="17" type="curve" smooth="yes"/>
      <point x="475" y="17"/>
      <point x="559" y="110"/>
      <point x="559" y="224" type="curve" smooth="yes"/>
      <point x="559" y="330"/>
      <point x="471" y="437"/>
      <point x="337" y="437" type="curve" smooth="yes"/>
    </contour>
    <contour>
      <point x="337" y="263" type="move"/>
      <point x="333" y="256"/>
      <point x="330" y="240"/>
      <point x="330" y="234" type="curve" smooth="yes"/>
      <point x="330" y="225"/>
      <point x="332" y="213"/>
      <point x="337" y="203" type="curve"/>
    </contour>
  </outline>
</glyph>
<glyph name="knDDA" format="1">
  <advance width="740"/>
  <unicode hex="0CA1"/>
  <outline>
    <contour>
      <point x="93" y="437" type="move"/>
      <point x="513" y="437" type="line" smooth="yes"/>
      <point x="586" y="437"/>
      <point x="629" y="463"/>
      <point x="661" y="515" type="curve"/>
    </contour>
    <contour>
      <point x="284" y="437" type="move"/>
      <point x="160" y="382"/>
      <point x="91" y="270"/>
      <point x="91" y="168" type="curve" smooth="yes"/>
      <point x="91" y="78"/>
      <point x="150" y="27"/>
      <point x="218" y="27" type="curve" smooth="yes"/>
      <point x="283" y="27"/>
      <point x="323" y="60"/>
      <point x="359" y="128" type="curve"/>
      <point x="364" y="128" type="line"/>
      <point x="402" y="58"/>
      <point x="462" y="27"/>
      <point x="518" y="27" type="curve" smooth="yes"/>
      <point x="609" y="27"/>
      <point x="663" y="85"/>
      <point x="663" y="172" type="curve" smooth="yes"/>
      <point x="663" y="241"/>
      <point x="612" y="348"/>
      <point x="463" y="437" type="curve"/>
    </contour>
    <contour>
      <point x="556" y="356" type="move"/>
      <point x="487" y="356"/>
      <point x="446" y="304"/>
      <point x="446" y="261" type="curve" smooth="yes"/>
      <point x="446" y="218"/>
      <point x="482" y="181"/>
      <point x="532" y="181" type="curve" smooth="yes"/>
      <point x="580" y="181"/>
      <point x="617" y="207"/>
      <point x="639" y="255" type="curve"/>
    </contour>
  </outline>
</glyph>
<glyph name="knDDHA" format="1">
  <advance width="740"/>
  <unicode hex="0CA2"/>
  <outline>
    <contour>
      <point x="361" y="-89" type="move"/>
      <point x="361" y="-192" type="line"/>
    </contour>
    <component base="knDda"/>
    <component base="knDda"/>
    <component base="knDDA"/>
  </outline>
</glyph>
<glyph name="knNNA" format="1">
  <advance width="734"/>
  <unicode hex="0CA3"/>
  <outline>
    <contour>
      <point x="214" y="229" type="move"/>
      <point x="151" y="231"/>
      <point x="87" y="191"/>
      <point x="87" y="128" type="curve" smooth="yes"/>
      <point x="87" y="66"/>
      <point x="134" y="28"/>
      <point x="211" y="28" type="curve" smooth="yes"/>
      <point x="240" y="28"/>
      <point x="262" y="32"/>
      <point x="280" y="37" type="curve"/>
    </contour>
    <contour>
      <point x="641" y="147" type="move"/>
      <point x="613" y="178"/>
      <point x="580" y="203"/>
      <point x="530" y="203" type="curve" smooth="yes"/>
      <point x="468" y="203"/>
      <point x="433" y="158"/>
      <point x="433" y="111" type="curve" smooth="yes"/>
      <point x="433" y="59"/>
      <point x="474" y="22"/>
      <point x="525" y="22" type="curve" smooth="yes"/>
      <point x="602" y="22"/>
      <point x="655" y="74"/>
      <point x="654" y="230" type="curve" smooth="yes"/>
      <point x="653" y="380"/>
      <point x="597" y="445"/>
      <point x="517" y="445" type="curve" smooth="yes"/>
      <point x="455" y="445"/>
      <point x="404" y="402"/>
      <point x="369" y="334" type="curve"/>
      <point x="365" y="334" type="line"/>
      <point x="333" y="402"/>
      <point x="283" y="445"/>
      <point x="211" y="445" type="curve" smooth="yes"/>
      <point x="139" y="445"/>
      <point x="99" y="395"/>
      <point x="99" y="340" type="curve" smooth="yes"/>
      <point x="99" y="281"/>
      <point x="148" y="229"/>
      <point x="227" y="229" type="curve" smooth="yes"/>
      <point x="231" y="229"/>
      <point x="233" y="229"/>
      <point x="237" y="229" type="curve"/>
    </contour>
  </outline>
</glyph>
<glyph name="knTA" format="1">
  <advance width="628"/>
  <unicode hex="0CA4"/>
  <outline>
    <contour>
      <point x="85" y="437" type="move"/>
      <point x="423" y="437" type="line" smooth="yes"/>
      <point x="496" y="437"/>
      <point x="539" y="463"/>
      <point x="571" y="515" type="curve"/>
    </contour>
    <contour>
      <point x="66" y="114" type="move"/>
      <point x="114" y="61"/>
      <point x="186" y="18"/>
      <point x="320" y="18" type="curve" smooth="yes"/>
      <point x="483" y="18"/>
      <point x="557" y="88"/>
      <point x="557" y="168" type="curve" smooth="yes"/>
      <point x="557" y="249"/>
      <point x="481" y="320"/>
      <point x="323" y="320" type="curve" smooth="yes"/>
      <point x="237" y="320"/>
      <point x="203" y="283"/>
      <point x="203" y="245" type="curve" smooth="yes"/>
      <point x="203" y="208"/>
      <point x="236" y="175"/>
      <point x="298" y="174" type="curve" smooth="yes"/>
      <point x="394" y="173"/>
      <point x="446" y="230"/>
      <point x="446" y="293" type="curve" smooth="yes"/>
      <point x="446" y="338"/>
      <point x="431" y="386"/>
      <point x="386" y="437" type="curve"/>
    </contour>
  </outline>
</glyph>
<glyph name="knTHA" format="1">
  <advance width="721"/>
  <unicode hex="0CA5"/>
  <outline>
    <contour>
      <point x="357" y="298" type="move"/>
      <point x="353" y="291"/>
      <point x="350" y="275"/>
      <point x="350" y="269" type="curve" smooth="yes"/>
      <point x="350" y="260"/>
      <point x="352" y="248"/>
      <point x="357" y="238" type="curve"/>
    </contour>
    <component base="knDa"/>
    <component base="knDA"/>
  </outline>
</glyph>
<glyph name="knNA" format="1">
  <advance width="625"/>
  <unicode hex="0CA8"/>
  <outline>
    <contour>
      <point x="91" y="437" type="move"/>
      <point x="415" y="437" type="line" smooth="yes"/>
      <point x="488" y="437"/>
      <point x="531" y="463"/>
      <point x="563" y="515" type="curve"/>
    </contour>
    <contour>
      <point x="119" y="11" type="move"/>
      <point x="112" y="47"/>
      <point x="109" y="71"/>
      <point x="109" y="102" type="curve" smooth="yes"/>
      <point x="109" y="142"/>
      <point x="122" y="178"/>
      <point x="140" y="196" type="curve" smooth="yes"/>
      <point x="160" y="217"/>
      <point x="179" y="225"/>
      <point x="207" y="225" type="curve" smooth="yes"/>
      <point x="245" y="225"/>
      <point x="290" y="200"/>
      <point x="321" y="147" type="curve" smooth="yes"/>
      <point x="367" y="69"/>
      <point x="396" y="27"/>
      <point x="458" y="27" type="curve" smooth="yes"/>
      <point x="519" y="27"/>
      <point x="562" y="81"/>
      <point x="562" y="155" type="curve" smooth="yes"/>
      <point x="562" y="275"/>
      <point x="481" y="381"/>
      <point x="354" y="437" type="curve"/>
    </contour>
  </outline>
</glyph>
<glyph name="knPA" format="1">
  <advance width="710"/>
  <unicode hex="0CAA"/>
  <outline>
    <contour>
      <point x="91" y="437" type="move"/>
      <point x="506" y="437" type="line" smooth="yes"/>
      <point x="579" y="437"/>
      <point x="622" y="463"/>
      <point x="654" y="515" type="curve"/>
    </contour>
    <contour>
      <point x="368" y="415" type="curve" smooth="yes"/>
      <point x="320" y="415"/>
      <point x="285" y="379"/>
      <point x="285" y="333" type="curve" smooth="yes"/>
      <point x="285" y="289"/>
      <point x="319" y="253"/>
      <point x="369" y="253" type="curve" smooth="yes"/>
      <point x="420" y="253"/>
      <point x="453" y="288"/>
      <point x="453" y="334" type="curve" smooth="yes"/>
      <point x="453" y="379"/>
      <point x="420" y="415"/>
    </contour>
    <contour>
      <point x="371" y="128" type="move"/>
      <point x="413" y="63"/>
      <point x="459" y="27"/>
      <point x="532" y="27" type="curve" smooth="yes"/>
      <point x="604" y="27"/>
      <point x="647" y="76"/>
      <point x="647" y="145" type="curve" smooth="yes"/>
      <point x="647" y="180"/>
      <point x="637" y="214"/>
      <point x="625" y="240" type="curve"/>
    </contour>
    <contour>
      <point x="184" y="220" type="move"/>
      <point x="122" y="211"/>
      <point x="88" y="170"/>
      <point x="88" y="122" type="curve" smooth="yes"/>
      <point x="88" y="69"/>
      <point x="131" y="25"/>
      <point x="207" y="25" type="curve" smooth="yes"/>
      <point x="275" y="25"/>
      <point x="319" y="59"/>
      <point x="366" y="128" type="curve"/>
    </contour>
  </outline>
</glyph>
<glyph name="knPHA" format="1">
  <advance width="710"/>
  <unicode hex="0CAB"/>
  <outline>
    <contour>
      <point x="359" y="-89" type="move"/>
      <point x="359" y="-192" type="line"/>
    </contour>
    <component base="knPa"/>
    <component base="knPA"/>
  </outline>
</glyph>
<glyph name="knBHA" format="1">
  <advance width="701"/>
  <unicode hex="0CAD"/>
  <outline>
    <contour>
      <point x="363" y="-89" type="move"/>
      <point x="363" y="-192" type="line"/>
    </contour>
    <contour>
      <point x="419" y="437" type="move"/>
      <point x="511" y="437" type="line" smooth="yes"/>
      <point x="584" y="437"/>
      <point x="627" y="463"/>
      <point x="659" y="515" type="curve"/>
    </contour>
    <contour>
      <point x="72" y="406" type="move"/>
      <point x="97" y="434"/>
      <point x="127" y="452"/>
      <point x="163" y="452" type="curve" smooth="yes"/>
      <point x="215" y="452"/>
      <point x="248" y="418"/>
      <point x="248" y="375" type="curve" smooth="yes"/>
      <point x="248" y="336"/>
      <point x="226" y="303"/>
      <point x="169" y="257" type="curve" smooth="yes"/>
      <point x="121" y="218"/>
      <point x="90" y="177"/>
      <point x="90" y="129" type="curve" smooth="yes"/>
      <point x="90" y="74"/>
      <point x="129" y="27"/>
      <point x="202" y="27" type="curve"/>
      <point x="269" y="27"/>
      <point x="317" y="60"/>
      <point x="359" y="128" type="curve"/>
      <point x="364" y="128" type="line"/>
      <point x="403" y="60"/>
      <point x="450" y="27"/>
      <point x="516" y="27" type="curve" smooth="yes"/>
      <point x="584" y="27"/>
      <point x="637" y="80"/>
      <point x="637" y="172" type="curve"/>
      <point x="637" y="269"/>
      <point x="573" y="373"/>
      <point x="478" y="437" type="curve"/>
    </contour>
  </outline>
</glyph>
<glyph name="knYA" format="1">
  <advance width="1184"/>
  <unicode hex="0CAF"/>
  <outline>
    <contour>
      <point x="173" y="437"/>
      <point x="80" y="332"/>
      <point x="80" y="227" type="curve" smooth="yes"/>
      <point x="80" y="110"/>
      <point x="160" y="23"/>
      <point x="291" y="23" type="curve" smooth="yes"/>
      <point x="420" y="23"/>
      <point x="502" y="112"/>
      <point x="502" y="227" type="curve" smooth="yes"/>
      <point x="502" y="330"/>
      <point x="411" y="437"/>
      <point x="291" y="437" type="curve" smooth="yes"/>
    </contour>
    <contour>
      <point x="579" y="437" type="move"/>
      <point x="691" y="437" type="line" smooth="yes"/>
      <point x="764" y="437"/>
      <point x="807" y="463"/>
      <point x="839" y="515" type="curve"/>
    </contour>
    <component base="knsignU" xOffset="593"/>
    <component base="knsignU" xOffset="904"/>
  </outline>
</glyph>
<glyph name="knRA" format="1">
  <advance width="627"/>
  <unicode hex="0CB0"/>
  <outline>
    <contour>
      <point x="88" y="437" type="move"/>
      <point x="441" y="437" type="line" smooth="yes"/>
      <point x="514" y="437"/>
      <point x="557" y="463"/>
      <point x="589" y="515" type="curve"/>
    </contour>
    <contour>
      <point x="203" y="428"/>
      <point x="112" y="331"/>
      <point x="112" y="223" type="curve" smooth="yes"/>
      <point x="112" y="108"/>
      <point x="195" y="23"/>
      <point x="320" y="23" type="curve" smooth="yes"/>
      <point x="447" y="23"/>
      <point x="528" y="110"/>
      <point x="528" y="223" type="curve" smooth="yes"/>
      <point x="528" y="329"/>
      <point x="443" y="428"/>
      <point x="322" y="428" type="curve" smooth="yes"/>
    </contour>
  </outline>
</glyph>
<glyph name="knRRA" format="1">
  <advance width="753"/>
  <unicode hex="0CB1"/>
  <outline>
    <contour>
      <point x="111" y="341" type="move"/>
      <point x="139" y="299"/>
      <point x="173" y="273"/>
      <point x="215" y="273" type="curve" smooth="yes"/>
      <point x="263" y="273"/>
      <point x="303" y="305"/>
      <point x="303" y="355" type="curve" smooth="yes"/>
      <point x="303" y="404"/>
      <point x="270" y="439"/>
      <point x="215" y="439" type="curve" smooth="yes"/>
      <point x="146" y="439"/>
      <point x="85" y="352"/>
      <point x="85" y="229" type="curve" smooth="yes"/>
      <point x="85" y="113"/>
      <point x="147" y="27"/>
      <point x="232" y="27" type="curve" smooth="yes"/>
      <point x="297" y="27"/>
      <point x="337" y="59"/>
      <point x="374" y="128" type="curve"/>
      <point x="379" y="128" type="line"/>
      <point x="416" y="59"/>
      <point x="456" y="27"/>
      <point x="521" y="27" type="curve" smooth="yes"/>
      <point x="606" y="27"/>
      <point x="668" y="113"/>
      <point x="668" y="229" type="curve" smooth="yes"/>
      <point x="668" y="352"/>
      <point x="607" y="439"/>
      <point x="538" y="439" type="curve" smooth="yes"/>
      <point x="483" y="439"/>
      <point x="450" y="404"/>
      <point x="450" y="355" type="curve" smooth="yes"/>
      <point x="450" y="305"/>
      <point x="490" y="273"/>
      <point x="538" y="273" type="curve" smooth="yes"/>
      <point x="580" y="273"/>
      <point x="614" y="299"/>
      <point x="642" y="341" type="curve"/>
    </contour>
    <contour>
      <point x="217" y="273" type="move"/>
      <point x="537" y="273" type="line" smooth="yes"/>
    </contour>
  </outline>
</glyph>
<glyph name="knLA" format="1">
  <advance width="690"/>
  <unicode hex="0CB2"/>
  <outline>
    <contour>
      <point x="98" y="346" type="move"/>
      <point x="130" y="304"/>
      <point x="169" y="280"/>
      <point x="211" y="280" type="curve" smooth="yes"/>
      <point x="262" y="280"/>
      <point x="301" y="313"/>
      <point x="301" y="363" type="curve" smooth="yes"/>
      <point x="301" y="412"/>
      <point x="267" y="452"/>
      <point x="209" y="452" type="curve" smooth="yes"/>
      <point x="137" y="452"/>
      <point x="80" y="356"/>
      <point x="80" y="253" type="curve" smooth="yes"/>
      <point x="80" y="130"/>
      <point x="176" y="27"/>
      <point x="356" y="27" type="curve" smooth="yes"/>
      <point x="544" y="27"/>
      <point x="614" y="141"/>
      <point x="614" y="249" type="curve" smooth="yes"/>
      <point x="614" y="329"/>
      <point x="573" y="395"/>
      <point x="515" y="437" type="curve"/>
    </contour>
  </outline>
</glyph>
<glyph name="knLLA" format="1">
  <advance width="700"/>
  <unicode hex="0CB3"/>
  <outline>
    <contour>
      <point x="69" y="355" type="move"/>
      <point x="91" y="324"/>
      <point x="126" y="298"/>
      <point x="173" y="298" type="curve" smooth="yes"/>
      <point x="233" y="298"/>
      <point x="267" y="332"/>
      <point x="267" y="376" type="curve" smooth="yes"/>
      <point x="267" y="418"/>
      <point x="234" y="452"/>
      <point x="179" y="452" type="curve" smooth="yes"/>
      <point x="117" y="452"/>
      <point x="66" y="400"/>
      <point x="66" y="338" type="curve" smooth="yes"/>
      <point x="66" y="299"/>
      <point x="77" y="259"/>
      <point x="104" y="232" type="curve" smooth="yes"/>
      <point x="147" y="189"/>
      <point x="201" y="168"/>
      <point x="345" y="168" type="curve" smooth="yes"/>
      <point x="456" y="168"/>
      <point x="527" y="192"/>
      <point x="562" y="226" type="curve" smooth="yes"/>
      <point x="585" y="248"/>
      <point x="598" y="278"/>
      <point x="598" y="308" type="curve" smooth="yes"/>
      <point x="598" y="351"/>
      <point x="568" y="411"/>
      <point x="506" y="437" type="curve"/>
    </contour>
    <contour>
      <point x="413" y="437" type="move"/>
      <point x="515" y="437" type="line" smooth="yes"/>
      <point x="588" y="437"/>
      <point x="631" y="463"/>
      <point x="663" y="515" type="curve"/>
    </contour>
    <contour>
      <point x="337" y="166" type="curve" smooth="yes"/>
      <point x="259" y="165"/>
      <point x="228" y="128"/>
      <point x="228" y="89" type="curve" smooth="yes"/>
      <point x="228" y="50"/>
      <point x="264" y="11"/>
      <point x="337" y="11" type="curve" smooth="yes"/>
      <point x="413" y="11"/>
      <point x="447" y="50"/>
      <point x="447" y="88" type="curve" smooth="yes"/>
      <point x="447" y="128"/>
      <point x="420" y="167"/>
    </contour>
  </outline>
</glyph>
<glyph name="knVA" format="1">
  <advance width="692"/>
  <unicode hex="0CB5"/>
  <outline>
    <contour>
      <point x="107" y="437" type="move"/>
      <point x="472" y="437" type="line" smooth="yes"/>
      <point x="545" y="437"/>
      <point x="588" y="463"/>
      <point x="620" y="515" type="curve"/>
    </contour>
    <contour>
      <point x="170" y="220" type="move"/>
      <point x="108" y="211"/>
      <point x="74" y="170"/>
      <point x="74" y="122" type="curve" smooth="yes"/>
      <point x="74" y="69"/>
      <point x="117" y="27"/>
      <point x="185" y="27" type="curve" smooth="yes"/>
      <point x="261" y="27"/>
      <point x="305" y="59"/>
      <point x="342" y="128" type="curve"/>
      <point x="347" y="128" type="line"/>
      <point x="389" y="63"/>
      <point x="429" y="27"/>
      <point x="497" y="27" type="curve" smooth="yes"/>
      <point x="563" y="27"/>
      <point x="623" y="78"/>
      <point x="623" y="158" type="curve" smooth="yes"/>
      <point x="623" y="256"/>
      <point x="554" y="362"/>
      <point x="388" y="434" type="curve"/>
    </contour>
  </outline>
</glyph>
<glyph name="knSHA" format="1">
  <advance width="619"/>
  <unicode hex="0CB6"/>
  <outline>
    <contour>
      <point x="74" y="437" type="move"/>
      <point x="423" y="437" type="line" smooth="yes"/>
      <point x="496" y="437"/>
      <point x="539" y="463"/>
      <point x="571" y="515" type="curve"/>
    </contour>
    <contour>
      <point x="164" y="349" type="move"/>
      <point x="184" y="394"/>
      <point x="219" y="423"/>
      <point x="259" y="423" type="curve" smooth="yes"/>
      <point x="305" y="423"/>
      <point x="347" y="388"/>
      <point x="347" y="335" type="curve" smooth="yes"/>
      <point x="347" y="280"/>
      <point x="314" y="238"/>
      <point x="241" y="230" type="curve" smooth="yes"/>
      <point x="155" y="221"/>
      <point x="127" y="207"/>
      <point x="110" y="190" type="curve" smooth="yes"/>
      <point x="95" y="175"/>
      <point x="87" y="155"/>
      <point x="87" y="130" type="curve" smooth="yes"/>
      <point x="87" y="83"/>
      <point x="130" y="27"/>
      <point x="279" y="27" type="curve" smooth="yes"/>
      <point x="381" y="27"/>
      <point x="449" y="64"/>
      <point x="475" y="90" type="curve" smooth="yes"/>
      <point x="503" y="118"/>
      <point x="523" y="155"/>
      <point x="523" y="201" type="curve" smooth="yes"/>
      <point x="523" y="282"/>
      <point x="467" y="381"/>
      <point x="340" y="437" type="curve"/>
    </contour>
  </outline>
</glyph>
<glyph name="knSA" format="1">
  <advance width="655"/>
  <unicode hex="0CB8"/>
  <outline>
    <contour>
      <point x="78" y="437" type="move"/>
      <point x="459" y="437" type="line" smooth="yes"/>
      <point x="532" y="437"/>
      <point x="575" y="463"/>
      <point x="607" y="515" type="curve"/>
    </contour>
    <contour>
      <point x="103" y="17" type="move"/>
      <point x="103" y="87"/>
      <point x="119" y="135"/>
      <point x="145" y="161" type="curve" smooth="yes"/>
      <point x="161" y="177"/>
      <point x="185" y="189"/>
      <point x="214" y="189" type="curve" smooth="yes"/>
      <point x="251" y="189"/>
      <point x="294" y="170"/>
      <point x="332" y="118" type="curve" smooth="yes"/>
      <point x="371" y="65"/>
      <point x="401" y="27"/>
      <point x="461" y="27" type="curve" smooth="yes"/>
      <point x="525" y="27"/>
      <point x="576" y="71"/>
      <point x="576" y="172" type="curve" smooth="yes"/>
      <point x="576" y="200"/>
      <point x="570" y="238"/>
      <point x="561" y="267" type="curve"/>
    </contour>
    <contour>
      <point x="282" y="434" type="move"/>
      <point x="256" y="410"/>
      <point x="246" y="381"/>
      <point x="246" y="356" type="curve" smooth="yes"/>
      <point x="246" y="313"/>
      <point x="280" y="273"/>
      <point x="338" y="273" type="curve" smooth="yes"/>
      <point x="398" y="273"/>
      <point x="430" y="312"/>
      <point x="430" y="357" type="curve" smooth="yes"/>
      <point x="430" y="382"/>
      <point x="421" y="411"/>
      <point x="394" y="436" type="curve"/>
    </contour>
  </outline>
</glyph>
<glyph name="knNukta" format="1">
  <advance width="481"/>
  <unicode hex="0CBC"/>
  <outline>
    <contour>
      <point x="401" y="-203"/>
      <point x="434" y="-170"/>
      <point x="434" y="-126" type="curve" smooth="yes"/>
      <point x="434" y="-82"/>
      <point x="401" y="-49"/>
      <point x="357" y="-49" type="curve" smooth="yes"/>
      <point x="313" y="-49"/>
      <point x="280" y="-82"/>
      <point x="280" y="-126" type="curve" smooth="yes"/>
      <point x="280" y="-170"/>
      <point x="313" y="-203"/>
      <point x="357" y="-203" type="curve" smooth="yes"/>
    </contour>
    <contour>
      <point x="170" y="-203"/>
      <point x="203" y="-170"/>
      <point x="203" y="-126" type="curve" smooth="yes"/>
      <point x="203" y="-82"/>
      <point x="170" y="-49"/>
      <point x="126" y="-49" type="curve" smooth="yes"/>
      <point x="82" y="-49"/>
      <point x="49" y="-82"/>
      <point x="49" y="-126" type="curve" smooth="yes"/>
      <point x="49" y="-170"/>
      <point x="82" y="-203"/>
      <point x="126" y="-203" type="curve" smooth="yes"/>
    </contour>
  </outline>
</glyph>
<glyph name="knmAA" format="1">
  <advance width="349"/>
  <unicode hex="0CBE"/>
  <outline>
    <contour>
      <point x="-180" y="437" type="move"/>
      <point x="13" y="437" type="line" smooth="yes"/>
      <point x="159" y="437"/>
      <point x="264" y="341"/>
      <point x="264" y="171" type="curve" smooth="yes"/>
      <point x="264" y="78"/>
      <point x="217" y="23"/>
      <point x="154" y="23" type="curve" smooth="yes"/>
      <point x="95" y="23"/>
      <point x="62" y="65"/>
      <point x="61" y="111" type="curve" smooth="yes"/>
      <point x="60" y="165"/>
      <point x="101" y="217"/>
      <point x="175" y="217" type="curve" smooth="yes"/>
      <point x="204" y="217"/>
      <point x="234" y="213"/>
      <point x="259" y="205" type="curve"/>
    </contour>
  </outline>
</glyph>
<glyph name="knmI" format="1">
  <advance width="384"/>
  <unicode hex="0CBF"/>
  <outline>
    <contour>
      <point x="132" y="290" type="move"/>
      <point x="251" y="299"/>
      <point x="315" y="370"/>
      <point x="315" y="473" type="curve" smooth="yes"/>
      <point x="315" y="544"/>
      <point x="263" y="615"/>
      <point x="193" y="615" type="curve" smooth="yes"/>
      <point x="137" y="615"/>
      <point x="102" y="575"/>
      <point x="102" y="530" type="curve" smooth="yes"/>
      <point x="102" y="484"/>
      <point x="139" y="449"/>
      <point x="187" y="449" type="curve" smooth="yes"/>
      <point x="233" y="449"/>
      <point x="268" y="470"/>
      <point x="305" y="518" type="curve"/>
    </contour>
  </outline>
</glyph>
<glyph name="knsignII" format="1">
  <advance width="579"/>
  <unicode hex="0CC0"/>
  <outline>
    <contour>
      <point x="-68" y="310" type="move"/>
      <point x="50" y="310"/>
      <point x="115" y="380"/>
      <point x="115" y="473" type="curve" smooth="yes"/>
      <point x="115" y="544"/>
      <point x="63" y="615"/>
      <point x="-7" y="615" type="curve" smooth="yes"/>
      <point x="-63" y="615"/>
      <point x="-98" y="575"/>
      <point x="-98" y="530" type="curve" smooth="yes"/>
      <point x="-98" y="484"/>
      <point x="-61" y="449"/>
      <point x="-13" y="449" type="curve" smooth="yes"/>
      <point x="33" y="449"/>
      <point x="68" y="470"/>
      <point x="105" y="518" type="curve"/>
    </contour>
    <contour>
      <point x="276" y="353" type="move"/>
      <point x="307" y="309"/>
      <point x="347" y="288"/>
      <point x="384" y="288" type="curve" smooth="yes"/>
      <point x="430" y="288"/>
      <point x="470" y="323"/>
      <point x="470" y="370" type="curve" smooth="yes"/>
      <point x="470" y="417"/>
      <point x="435" y="452"/>
      <point x="383" y="452" type="curve" smooth="yes"/>
      <point x="309" y="452"/>
      <point x="263" y="370"/>
      <point x="263" y="260" type="curve" smooth="yes"/>
      <point x="263" y="149"/>
      <point x="332" y="60"/>
      <point x="443" y="27" type="curve"/>
    </contour>
    <component base="knIsign"/>
    <component base="knLength" xOffset="365" yOffset="-174"/>
  </outline>
</glyph>
<glyph name="knmU" format="1">
  <advance width="281"/>
  <unicode hex="0CC1"/>
  <outline>
    <contour>
      <point x="-93" y="160" type="move"/>
      <point x="-42" y="63"/>
      <point x="15" y="27"/>
      <point x="81" y="27" type="curve"/>
      <point x="152" y="27"/>
      <point x="196" y="81"/>
      <point x="196" y="167" type="curve" smooth="yes"/>
      <point x="196" y="258"/>
      <point x="155" y="351"/>
      <point x="87" y="416" type="curve"/>
    </contour>
  </outline>
</glyph>
<glyph name="knmUU" format="1">
  <advance width="592"/>
  <unicode hex="0CC2"/>
  <outline>
    <contour>
      <point x="-93" y="134" type="move"/>
      <point x="-47" y="64"/>
      <point x="5" y="27"/>
      <point x="63" y="27" type="curve" smooth="yes"/>
      <point x="131" y="27"/>
      <point x="164" y="68"/>
      <point x="164" y="129" type="curve" smooth="yes"/>
      <point x="164" y="182"/>
      <point x="139" y="232"/>
      <point x="139" y="292" type="curve" smooth="yes"/>
      <point x="139" y="359"/>
      <point x="187" y="437"/>
      <point x="281" y="437" type="curve" smooth="yes"/>
      <point x="382" y="437"/>
      <point x="507" y="341"/>
      <point x="507" y="171" type="curve" smooth="yes"/>
      <point x="507" y="78"/>
      <point x="460" y="23"/>
      <point x="397" y="23" type="curve" smooth="yes"/>
      <point x="338" y="23"/>
      <point x="305" y="65"/>
      <point x="304" y="111" type="curve" smooth="yes"/>
      <point x="303" y="165"/>
      <point x="344" y="217"/>
      <point x="418" y="217" type="curve" smooth="yes"/>
      <point x="447" y="217"/>
      <point x="477" y="213"/>
      <point x="502" y="205" type="curve"/>
    </contour>
  </outline>
</glyph>
<glyph name="knsignvR" format="1">
  <advance width="94"/>
  <unicode hex="0CC3"/>
  <outline>
    <contour>
      <point x="-232.0" y="-184.0" type="move"/>
      <point x="-214.0" y="-197.0"/>
      <point x="-194.0" y="-211.0"/>
      <point x="-154.0" y="-211.0" type="curve" smooth="yes"/>
      <point x="-117.0" y="-211.0"/>
      <point x="-81.0" y="-184.0"/>
      <point x="-81.0" y="-137.0" type="curve" smooth="yes"/>
      <point x="-81.0" y="-103.0"/>
      <point x="-106.0" y="-66.0"/>
      <point x="-154.0" y="-66.0" type="curve" smooth="yes"/>
      <point x="-202.0" y="-66.0"/>
      <point x="-234.0" y="-113.0"/>
      <point x="-234.0" y="-168.0" type="curve" smooth="yes"/>
      <point x="-234.0" y="-219.0"/>
      <point x="-218" y="-259"/>
      <point x="-184" y="-293" type="curve" smooth="yes"/>
      <point x="-154" y="-323"/>
      <point x="-106" y="-339"/>
      <point x="-57.0" y="-339.0" type="curve" smooth="yes"/>
      <point x="-4" y="-339"/>
      <point x="38" y="-322"/>
      <point x="68" y="-292" type="curve" smooth="yes"/>
      <point x="101" y="-259"/>
      <point x="118" y="-222"/>
      <point x="118.0" y="-158.0" type="curve" smooth="yes"/>
      <point x="118" y="-84"/>
      <point x="76.0" y="27.0"/>
      <point x="11.0" y="129.0" type="curve"/>
    </contour>
  </outline>
</glyph>
<glyph name="knsignvRR" format="1">
  <advance width="466"/>
  <unicode hex="0CC4"/>
  <outline>
    <contour>
      <point x="48" y="79" type="move"/>
      <point x="216" y="79" type="line" smooth="yes"/>
      <point x="338" y="79"/>
      <point x="392" y="23"/>
      <point x="392" y="-52" type="curve"/>
      <point x="392" y="-121"/>
      <point x="355" y="-162"/>
      <point x="307" y="-162" type="curve" smooth="yes"/>
      <point x="261" y="-162"/>
      <point x="235" y="-131"/>
      <point x="234" y="-97" type="curve" smooth="yes"/>
      <point x="234" y="-56"/>
      <point x="265" y="-18"/>
      <point x="323" y="-18" type="curve" smooth="yes"/>
      <point x="345" y="-18"/>
      <point x="369" y="-20"/>
      <point x="388" y="-27" type="curve"/>
    </contour>
    <contour>
      <point x="-232" y="-234" type="move"/>
      <point x="-214" y="-247"/>
      <point x="-194" y="-261"/>
      <point x="-154" y="-261" type="curve" smooth="yes"/>
      <point x="-117" y="-261"/>
      <point x="-81" y="-234"/>
      <point x="-81" y="-187" type="curve" smooth="yes"/>
      <point x="-81" y="-153"/>
      <point x="-106" y="-116"/>
      <point x="-154" y="-116" type="curve" smooth="yes"/>
      <point x="-202" y="-116"/>
      <point x="-234" y="-163"/>
      <point x="-234" y="-218" type="curve" smooth="yes"/>
      <point x="-234" y="-269"/>
      <point x="-218" y="-309"/>
      <point x="-184" y="-343" type="curve" smooth="yes"/>
      <point x="-154" y="-373"/>
      <point x="-106" y="-389"/>
      <point x="-57" y="-389" type="curve" smooth="yes"/>
      <point x="-4" y="-389"/>
      <point x="38" y="-372"/>
      <point x="68" y="-342" type="curve" smooth="yes"/>
      <point x="101" y="-309"/>
      <point x="118" y="-272"/>
      <point x="118" y="-208" type="curve" smooth="yes"/>
      <point x="118" y="-134"/>
      <point x="88" y="-31"/>
      <point x="41" y="79" type="curve"/>
    </contour>
  </outline>
</glyph>
<glyph name="knmE" format="1">
  <advance width="0"/>
  <unicode hex="0CC6"/>
  <outline>
    <contour>
      <point x="-207" y="437" type="move" smooth="yes"/>
      <point x="-103" y="437"/>
      <point x="-59" y="486"/>
      <point x="-59" y="535" type="curve" smooth="yes"/>
      <point x="-59" y="581"/>
      <point x="-95" y="622"/>
      <point x="-150" y="622" type="curve" smooth="yes"/>
      <point x="-208" y="622"/>
      <point x="-251" y="573"/>
      <point x="-251" y="509" type="curve" smooth="yes"/>
      <point x="-251" y="480"/>
      <point x="-245" y="457"/>
      <point x="-241" y="440" type="curve"/>
    </contour>
  </outline>
</glyph>
<glyph name="knsignE" format="1">
  <advance width="0"/>
  <unicode hex="0CC6"/>
  <outline>
    <contour>
      <point x="-207" y="437" type="move" smooth="yes"/>
      <point x="-93" y="437"/>
      <point x="-53" y="483"/>
      <point x="-53" y="540" type="curve" smooth="yes"/>
      <point x="-53" y="589"/>
      <point x="-90" y="628"/>
      <point x="-146" y="628" type="curve" smooth="yes"/>
      <point x="-204" y="628"/>
      <point x="-246" y="581"/>
      <point x="-246" y="517" type="curve" smooth="yes"/>
      <point x="-246" y="488"/>
      <point x="-238" y="459"/>
      <point x="-234" y="442" type="curve"/>
    </contour>
  </outline>
</glyph>
<glyph name="knmAU" format="1">
  <advance width="337"/>
  <unicode hex="0CCC"/>
  <outline>
    <contour>
      <point x="-251" y="608" type="move"/>
      <point x="23" y="608" type="line" smooth="yes"/>
      <point x="169" y="608"/>
      <point x="274" y="514"/>
      <point x="274" y="331" type="curve"/>
      <point x="274" y="238"/>
      <point x="227" y="183"/>
      <point x="164" y="183" type="curve" smooth="yes"/>
      <point x="105" y="183"/>
      <point x="72" y="225"/>
      <point x="71" y="271" type="curve" smooth="yes"/>
      <point x="70" y="325"/>
      <point x="111" y="377"/>
      <point x="185" y="377" type="curve" smooth="yes"/>
      <point x="214" y="377"/>
      <point x="244" y="373"/>
      <point x="269" y="365" type="curve"/>
    </contour>
    <contour>
      <point x="-205" y="437" type="move"/>
      <point x="-106" y="437"/>
      <point x="-54" y="484"/>
      <point x="-25" y="603" type="curve"/>
    </contour>
  </outline>
</glyph>
<glyph name="knsignAU" format="1">
  <advance width="312"/>
  <unicode hex="0CCC"/>
  <outline>
    <contour>
      <point x="-241" y="608" type="move"/>
      <point x="-17" y="608" type="line" smooth="yes"/>
      <point x="129" y="608"/>
      <point x="234" y="534"/>
      <point x="234" y="371" type="curve"/>
      <point x="234" y="278"/>
      <point x="187" y="223"/>
      <point x="124" y="223" type="curve" smooth="yes"/>
      <point x="65" y="223"/>
      <point x="32" y="265"/>
      <point x="31" y="311" type="curve" smooth="yes"/>
      <point x="30" y="365"/>
      <point x="71" y="417"/>
      <point x="145" y="417" type="curve" smooth="yes"/>
      <point x="174" y="417"/>
      <point x="204" y="413"/>
      <point x="229" y="405" type="curve"/>
    </contour>
    <contour>
      <point x="-205" y="437" type="move"/>
      <point x="-106" y="437"/>
      <point x="-45" y="493"/>
      <point x="-45" y="603" type="curve"/>
    </contour>
  </outline>
</glyph>
<glyph name="knVirama" format="1">
  <advance width="252"/>
  <unicode hex="0CCD"/>
  <outline>
    <contour>
      <point x="-218" y="437" type="move"/>
      <point x="57" y="437" type="line" smooth="yes"/>
      <point x="147" y="437"/>
      <point x="185" y="386"/>
      <point x="185" y="333" type="curve" smooth="yes"/>
      <point x="185" y="286"/>
      <point x="154" y="247"/>
      <point x="103" y="247" type="curve" smooth="yes"/>
      <point x="54" y="247"/>
      <point x="18" y="284"/>
      <point x="18" y="345" type="curve" smooth="yes"/>
      <point x="18" y="424"/>
      <point x="64" y="504"/>
      <point x="219" y="544" type="curve"/>
    </contour>
  </outline>
</glyph>
<glyph name="knAIlengthmark" format="1">
  <advance width="94"/>
  <unicode hex="0CD6"/>
  <outline>
    <contour>
      <point x="-232" y="-182" type="move"/>
      <point x="-206" y="-197"/>
      <point x="-186" y="-205"/>
      <point x="-155" y="-205" type="curve" smooth="yes"/>
      <point x="-118" y="-205"/>
      <point x="-83" y="-179"/>
      <point x="-83" y="-135" type="curve" smooth="yes"/>
      <point x="-83" y="-103"/>
      <point x="-106" y="-66"/>
      <point x="-154" y="-66" type="curve" smooth="yes"/>
      <point x="-202" y="-66"/>
      <point x="-234" y="-113"/>
      <point x="-234" y="-165" type="curve" smooth="yes"/>
      <point x="-234" y="-213"/>
      <point x="-216" y="-249"/>
      <point x="-182" y="-283" type="curve" smooth="yes"/>
      <point x="-152" y="-313"/>
      <point x="-101" y="-328"/>
      <point x="-52" y="-328" type="curve" smooth="yes"/>
      <point x="-1" y="-328"/>
      <point x="42" y="-310"/>
      <point x="69" y="-283" type="curve" smooth="yes"/>
      <point x="94" y="-258"/>
      <point x="109" y="-229"/>
      <point x="109" y="-185" type="curve" smooth="yes"/>
      <point x="109" y="-147"/>
      <point x="88" y="-112"/>
      <point x="71" y="-95" type="curve" smooth="yes"/>
      <point x="54" y="-78"/>
      <point x="39" y="-68"/>
      <point x="14" y="-55" type="curve"/>
    </contour>
    <contour>
      <point x="20" y="-54" type="move"/>
      <point x="60" y="-40"/>
      <point x="89" y="-11"/>
      <point x="89" y="33" type="curve" smooth="yes"/>
      <point x="89" y="71"/>
      <point x="68" y="103"/>
      <point x="43" y="128" type="curve"/>
    </contour>
  </outline>
</glyph>
<glyph name="knsignvLL" format="1">
  <advance width="0"/>
  <unicode hex="0CE3"/>
  <outline>
    <contour>
      <point x="196" y="-76" type="move"/>
      <point x="277" y="-76" type="line" smooth="yes"/>
      <point x="379" y="-76"/>
      <point x="452" y="-137"/>
      <point x="452" y="-244" type="curve" smooth="yes"/>
      <point x="452" y="-303"/>
      <point x="420" y="-337"/>
      <point x="376" y="-337" type="curve" smooth="yes"/>
      <point x="334" y="-337"/>
      <point x="311" y="-311"/>
      <point x="311" y="-282" type="curve" smooth="yes"/>
      <point x="310" y="-248"/>
      <point x="339" y="-215"/>
      <point x="390" y="-215" type="curve" smooth="yes"/>
      <point x="410" y="-215"/>
      <point x="431" y="-218"/>
      <point x="449" y="-223" type="curve"/>
    </contour>
    <contour>
      <point x="-239" y="-189" type="move"/>
      <point x="-250" y="-173"/>
      <point x="-255" y="-158"/>
      <point x="-255" y="-139" type="curve" smooth="yes"/>
      <point x="-255" y="-104"/>
      <point x="-229" y="-72"/>
      <point x="-180" y="-72" type="curve" smooth="yes"/>
      <point x="-137" y="-72"/>
      <point x="-104" y="-102"/>
      <point x="-78" y="-144" type="curve"/>
      <point x="-74" y="-144" type="line"/>
      <point x="-47" y="-101"/>
      <point x="-14" y="-73"/>
      <point x="32" y="-73" type="curve" smooth="yes"/>
      <point x="76" y="-73"/>
      <point x="103" y="-104"/>
      <point x="103" y="-137" type="curve" smooth="yes"/>
      <point x="103" y="-156"/>
      <point x="93" y="-175"/>
      <point x="79" y="-187" type="curve" smooth="yes"/>
      <point x="69" y="-196"/>
      <point x="48" y="-210"/>
      <point x="20" y="-225" type="curve" smooth="yes"/>
      <point x="-15" y="-243"/>
      <point x="-26" y="-259"/>
      <point x="-26" y="-279" type="curve" smooth="yes"/>
      <point x="-26" y="-290"/>
      <point x="-20" y="-302"/>
      <point x="-10" y="-311" type="curve"/>
      <point x="3" y="-322"/>
      <point x="28" y="-335"/>
      <point x="85" y="-335" type="curve" smooth="yes"/>
      <point x="133" y="-335"/>
      <point x="166" y="-320"/>
      <point x="186" y="-303" type="curve" smooth="yes"/>
      <point x="210" y="-281"/>
      <point x="221" y="-249"/>
      <point x="221" y="-218" type="curve" smooth="yes"/>
      <point x="221" y="-170"/>
      <point x="209" y="-122"/>
      <point x="192" y="-76" type="curve"/>
    </contour>
  </outline>
</glyph>
<glyph name="knTwo" format="1">
  <advance width="576"/>
  <unicode hex="0CE8"/>
  <outline>
    <contour>
      <point x="91" y="27" type="move"/>
      <point x="225" y="27" type="line" smooth="yes"/>
      <point x="383" y="27"/>
      <point x="485" y="119"/>
      <point x="485" y="253" type="curve" smooth="yes"/>
      <point x="485" y="388"/>
      <point x="399" y="452"/>
      <point x="323" y="452" type="curve" smooth="yes"/>
      <point x="252" y="452"/>
      <point x="212" y="406"/>
      <point x="212" y="348" type="curve" smooth="yes"/>
      <point x="212" y="288"/>
      <point x="264" y="248"/>
      <point x="328" y="248" type="curve" smooth="yes"/>
      <point x="384" y="248"/>
      <point x="440" y="281"/>
      <point x="471" y="329" type="curve"/>
    </contour>
  </outline>
</glyph>
<glyph name="knThree" format="1">
  <advance width="639"/>
  <unicode hex="0CE9"/>
  <outline>
    <contour>
      <point x="247" y="438" type="move"/>
      <point x="253" y="423"/>
      <point x="261" y="401"/>
      <point x="261" y="377" type="curve" smooth="yes"/>
      <point x="261" y="327"/>
      <point x="224" y="292"/>
      <point x="166" y="292" type="curve" smooth="yes"/>
      <point x="120" y="292"/>
      <point x="84" y="326"/>
      <point x="84" y="369" type="curve" smooth="yes"/>
      <point x="84" y="408"/>
      <point x="115" y="451"/>
      <point x="181" y="451" type="curve" smooth="yes"/>
      <point x="306" y="451"/>
      <point x="372" y="357"/>
      <point x="372" y="242" type="curve" smooth="yes"/>
      <point x="372" y="145"/>
      <point x="315" y="23"/>
      <point x="181" y="23" type="curve" smooth="yes"/>
      <point x="103" y="23"/>
      <point x="73" y="63"/>
      <point x="73" y="101" type="curve" smooth="yes"/>
      <point x="73" y="136"/>
      <point x="107" y="179"/>
      <point x="170" y="179" type="curve" smooth="yes"/>
      <point x="235" y="179"/>
      <point x="287" y="146"/>
      <point x="342" y="100" type="curve" smooth="yes"/>
      <point x="402" y="49"/>
      <point x="437" y="27"/>
      <point x="481" y="27" type="curve" smooth="yes"/>
      <point x="544" y="27"/>
      <point x="581" y="81"/>
      <point x="579" y="153" type="curve"/>
    </contour>
  </outline>
</glyph>
<glyph name="knFour" format="1">
  <advance width="617"/>
  <unicode hex="0CEA"/>
  <outline>
    <contour>
      <point x="249" y="317" type="move"/>
      <point x="260" y="330"/>
      <point x="271" y="349"/>
      <point x="271" y="376" type="curve" smooth="yes"/>
      <point x="271" y="415"/>
      <point x="247" y="452"/>
      <point x="189" y="452" type="curve" smooth="yes"/>
      <point x="131" y="452"/>
      <point x="83" y="403"/>
      <point x="83" y="333" type="curve" smooth="yes"/>
      <point x="83" y="294"/>
      <point x="97" y="257"/>
      <point x="128" y="227" type="curve" smooth="yes"/>
      <point x="163" y="193"/>
      <point x="209" y="168"/>
      <point x="319" y="168" type="curve" smooth="yes"/>
      <point x="430" y="168"/>
      <point x="477" y="196"/>
      <point x="505" y="224" type="curve" smooth="yes"/>
      <point x="528" y="247"/>
      <point x="542" y="278"/>
      <point x="542" y="315" type="curve" smooth="yes"/>
      <point x="542" y="360"/>
      <point x="520" y="398"/>
      <point x="480" y="437" type="curve"/>
    </contour>
    <contour>
      <point x="308" y="166" type="curve" smooth="yes"/>
      <point x="230" y="165"/>
      <point x="202" y="128"/>
      <point x="202" y="89" type="curve" smooth="yes"/>
      <point x="202" y="50"/>
      <point x="238" y="11"/>
      <point x="311" y="11" type="curve" smooth="yes"/>
      <point x="387" y="11"/>
      <point x="421" y="50"/>
      <point x="421" y="88" type="curve" smooth="yes"/>
      <point x="421" y="128"/>
      <point x="401" y="167"/>
    </contour>
  </outline>
</glyph>
<glyph name="knFive" format="1">
  <advance width="572"/>
  <unicode hex="0CEB"/>
  <outline>
    <contour>
      <point x="433" y="27" type="move"/>
      <point x="401" y="94"/>
      <point x="375" y="152"/>
      <point x="375" y="241" type="curve" smooth="yes"/>
      <point x="375" y="311"/>
      <point x="386" y="372"/>
      <point x="405" y="407" type="curve" smooth="yes"/>
      <point x="422" y="438"/>
      <point x="444" y="452"/>
      <point x="466" y="452" type="curve" smooth="yes"/>
      <point x="492" y="452"/>
      <point x="520" y="430"/>
      <point x="520" y="395" type="curve" smooth="yes"/>
      <point x="520" y="340"/>
      <point x="478" y="302"/>
      <point x="257" y="222" type="curve" smooth="yes"/>
      <point x="115" y="171"/>
      <point x="75" y="126"/>
      <point x="75" y="82" type="curve" smooth="yes"/>
      <point x="75" y="40"/>
      <point x="104" y="17"/>
      <point x="138" y="17" type="curve" smooth="yes"/>
      <point x="166" y="17"/>
      <point x="189" y="31"/>
      <point x="206" y="54" type="curve" smooth="yes"/>
      <point x="227" y="82"/>
      <point x="247" y="152"/>
      <point x="247" y="241" type="curve" smooth="yes"/>
      <point x="247" y="311"/>
      <point x="231" y="372"/>
      <point x="205" y="407" type="curve" smooth="yes"/>
      <point x="183" y="438"/>
      <point x="157" y="452"/>
      <point x="128" y="452" type="curve" smooth="yes"/>
      <point x="98" y="452"/>
      <point x="72" y="430"/>
      <point x="72" y="396" type="curve" smooth="yes"/>
      <point x="72" y="368"/>
      <point x="91" y="349"/>
      <point x="111" y="343" type="curve"/>
    </contour>
  </outline>
</glyph>
<glyph name="knSeven" format="1">
  <advance width="583"/>
  <unicode hex="0CED"/>
  <outline>
    <contour>
      <point x="167" y="375" type="move"/>
      <point x="176" y="417"/>
      <point x="207" y="451"/>
      <point x="257" y="451" type="curve" smooth="yes"/>
      <point x="319" y="451"/>
      <point x="358" y="407"/>
      <point x="358" y="348" type="curve"/>
      <point x="358" y="287"/>
      <point x="319" y="243"/>
      <point x="215" y="203" type="curve" smooth="yes"/>
      <point x="112" y="163"/>
      <point x="83" y="129"/>
      <point x="83" y="94" type="curve" smooth="yes"/>
      <point x="83" y="60"/>
      <point x="106" y="27"/>
      <point x="171" y="27" type="curve" smooth="yes"/>
      <point x="531" y="27" type="line"/>
    </contour>
  </outline>
</glyph>
<glyph name="knEight" format="1">
  <advance width="624"/>
  <unicode hex="0CEE"/>
  <outline>
    <contour>
      <point x="101" y="346" type="move"/>
      <point x="133" y="304"/>
      <point x="172" y="280"/>
      <point x="214" y="280" type="curve" smooth="yes"/>
      <point x="265" y="280"/>
      <point x="304" y="313"/>
      <point x="304" y="363" type="curve" smooth="yes"/>
      <point x="304" y="412"/>
      <point x="270" y="452"/>
      <point x="212" y="452" type="curve" smooth="yes"/>
      <point x="140" y="452"/>
      <point x="83" y="356"/>
      <point x="83" y="253" type="curve" smooth="yes"/>
      <point x="83" y="130"/>
      <point x="179" y="27"/>
      <point x="332" y="27" type="curve" smooth="yes"/>
      <point x="467" y="27"/>
      <point x="523" y="103"/>
      <point x="523" y="172" type="curve" smooth="yes"/>
      <point x="523" y="217"/>
      <point x="496" y="253"/>
      <point x="474" y="283" type="curve" smooth="yes"/>
      <point x="454" y="311"/>
      <point x="442" y="336"/>
      <point x="442" y="366" type="curve" smooth="yes"/>
      <point x="442" y="400"/>
      <point x="470" y="437"/>
      <point x="521" y="437" type="curve" smooth="yes"/>
      <point x="559" y="437" type="line"/>
    </contour>
  </outline>
</glyph>
<glyph name="knNine" format="1">
  <advance width="474"/>
  <unicode hex="0CEF"/>
  <outline>
    <contour>
      <point x="417" y="437" type="move"/>
      <point x="202" y="437" type="line" smooth="yes"/>
      <point x="112" y="437"/>
      <point x="67" y="386"/>
      <point x="67" y="318" type="curve" smooth="yes"/>
      <point x="67" y="247"/>
      <point x="134" y="159"/>
      <point x="238" y="159" type="curve" smooth="yes"/>
      <point x="300" y="159"/>
      <point x="329" y="195"/>
      <point x="329" y="229" type="curve" smooth="yes"/>
      <point x="329" y="263"/>
      <point x="291" y="298"/>
      <point x="239" y="298" type="curve" smooth="yes"/>
      <point x="165" y="298"/>
      <point x="128" y="242"/>
      <point x="128" y="176" type="curve" smooth="yes"/>
      <point x="128" y="131"/>
      <point x="144" y="98"/>
      <point x="171" y="71" type="curve" smooth="yes"/>
      <point x="188" y="54"/>
      <point x="220" y="35"/>
      <point x="265" y="27" type="curve"/>
    </contour>
  </outline>
</glyph>
<glyph name="zerowidthnonjoiner" format="1">
  <advance width="0"/>
  <unicode hex="200C"/>
  <outline>
    <contour>
      <point x="-24" y="794" type="line"/>
      <point x="-24" y="-346" type="line"/>
      <point x="27" y="-346" type="line"/>
      <point x="27" y="794" type="line"/>
    </contour>
  </outline>
</glyph>
<glyph name="zerowidthjoiner" format="1">
  <advance width="0"/>
  <unicode hex="200D"/>
  <outline>
    <contour>
      <point x="-33" y="666" type="line"/>
      <point x="-33" y="-346" type="line"/>
      <point x="18" y="-346" type="line"/>
      <point x="18" y="666" type="line"/>
    </contour>
    <contour>
      <point x="133" y="570" type="line"/>
      <point x="29" y="665" type="line"/>
      <point x="133" y="761" type="line"/>
      <point x="93" y="799" type="line"/>
      <point x="-7" y="700" type="line"/>
      <point x="-108" y="799" type="line"/>
      <point x="-149" y="761" type="line"/>
      <point x="-45" y="665" type="line"/>
      <point x="-149" y="570" type="line"/>
      <point x="-107" y="531" type="line"/>
      <point x="-7" y="630" type="line"/>
      <point x="92" y="531" type="line"/>
    </contour>
  </outline>
</glyph>
<glyph name="bullet" format="1">
  <advance width="658"/>
  <unicode hex="2022"/>
  <outline>
    <contour>
      <point x="333" y="312" type="curve" smooth="yes"/>
      <point x="286" y="312"/>
      <point x="253" y="272"/>
      <point x="253" y="233" type="curve" smooth="yes"/>
      <point x="253" y="188"/>
      <point x="288" y="154"/>
      <point x="333" y="154" type="curve" smooth="yes"/>
      <point x="381" y="154"/>
      <point x="414" y="189"/>
      <point x="414" y="232" type="curve" smooth="yes"/>
      <point x="414" y="272"/>
      <point x="384" y="312"/>
    </contour>
    <contour>
      <point x="334" y="267" type="curve" smooth="yes"/>
      <point x="314" y="267"/>
      <point x="300" y="251"/>
      <point x="300" y="234" type="curve" smooth="yes"/>
      <point x="300" y="215"/>
      <point x="315" y="200"/>
      <point x="334" y="200" type="curve" smooth="yes"/>
      <point x="354" y="200"/>
      <point x="368" y="215"/>
      <point x="368" y="233" type="curve" smooth="yes"/>
      <point x="368" y="251"/>
      <point x="356" y="267"/>
    </contour>
  </outline>
</glyph>
<glyph name="Euro" format="1">
  <advance width="605"/>
  <unicode hex="20AC"/>
  <outline>
    <contour>
      <point x="80" y="333" type="move"/>
      <point x="428" y="333" type="line"/>
    </contour>
    <contour>
      <point x="80" y="193" type="move"/>
      <point x="428" y="193" type="line"/>
    </contour>
    <contour>
      <point x="513" y="492" type="move"/>
      <point x="482" y="510"/>
      <point x="435" y="521"/>
      <point x="385" y="521" type="curve" smooth="yes"/>
      <point x="260" y="521"/>
      <point x="152" y="419"/>
      <point x="152" y="266" type="curve" smooth="yes"/>
      <point x="152" y="126"/>
      <point x="239" y="18"/>
      <point x="390" y="18" type="curve" smooth="yes"/>
      <point x="439" y="18"/>
      <point x="483" y="29"/>
      <point x="517" y="48" type="curve"/>
    </contour>
  </outline>
</glyph>
<glyph name="trademark" format="1">
  <advance width="729"/>
  <unicode hex="2122"/>
  <outline>
    <contour>
      <point x="170" y="537" type="move"/>
      <point x="170" y="296" type="line"/>
    </contour>
    <contour>
      <point x="65" y="537" type="move"/>
      <point x="277" y="537" type="line"/>
    </contour>
    <contour>
      <point x="381" y="541" type="move"/>
      <point x="369" y="470"/>
      <point x="353" y="353"/>
      <point x="347" y="295" type="curve"/>
    </contour>
    <contour>
      <point x="608" y="542" type="move"/>
      <point x="624" y="464"/>
      <point x="640" y="362"/>
      <point x="649" y="295" type="curve"/>
    </contour>
    <contour>
      <point x="387" y="535" type="move"/>
      <point x="417" y="472"/>
      <point x="464" y="374"/>
      <point x="497" y="305" type="curve"/>
    </contour>
    <contour>
      <point x="499" y="311" type="move"/>
      <point x="528" y="378"/>
      <point x="568" y="465"/>
      <point x="605" y="538" type="curve"/>
    </contour>
  </outline>
</glyph>
<glyph name="estimated" format="1">
  <advance width="512"/>
  <unicode hex="212E"/>
  <outline>
    <contour>
      <point x="86" y="225" type="move"/>
      <point x="352" y="225" type="line" smooth="yes"/>
      <point x="412" y="225"/>
      <point x="440" y="246"/>
      <point x="440" y="291" type="curve" smooth="yes"/>
      <point x="440" y="347"/>
      <point x="383" y="412"/>
      <point x="274" y="412" type="curve" smooth="yes"/>
      <point x="161" y="412"/>
      <point x="70" y="332"/>
      <point x="70" y="214" type="curve" smooth="yes"/>
      <point x="70" y="92"/>
      <point x="177" y="27"/>
      <point x="292" y="27" type="curve" smooth="yes"/>
      <point x="341" y="27"/>
      <point x="385" y="38"/>
      <point x="417" y="54" type="curve"/>
      <point x="417" y="54"/>
    </contour>
  </outline>
</glyph>
<glyph name="infinity" format="1">
  <advance width="732"/>
  <unicode hex="221E"/>
  <outline>
    <contour>
      <point x="375" y="261" type="curve" smooth="yes"/>
      <point x="312" y="350"/>
      <point x="272" y="398"/>
      <point x="207" y="398" type="curve" smooth="yes"/>
      <point x="149" y="398"/>
      <point x="97" y="352"/>
      <point x="97" y="273" type="curve" smooth="yes"/>
      <point x="97" y="198"/>
      <point x="147" y="150"/>
      <point x="212" y="150" type="curve" smooth="yes"/>
      <point x="274" y="150"/>
      <point x="324" y="195"/>
      <point x="365" y="266" type="curve" smooth="yes"/>
      <point x="408" y="341"/>
      <point x="452" y="397"/>
      <point x="518" y="397" type="curve" smooth="yes"/>
      <point x="573" y="397"/>
      <point x="635" y="352"/>
      <point x="635" y="271" type="curve" smooth="yes"/>
      <point x="635" y="195"/>
      <point x="584" y="149"/>
      <point x="523" y="149" type="curve" smooth="yes"/>
      <point x="467" y="149"/>
      <point x="424" y="191"/>
    </contour>
  </outline>
</glyph>
<glyph name="notequal" format="1">
  <advance width="491"/>
  <unicode hex="2260"/>
  <outline>
    <contour>
      <point x="327" y="460" type="move"/>
      <point x="171" y="37" type="line"/>
    </contour>
    <component base="equal"/>
  </outline>
</glyph>
<glyph name="lozenge" format="1">
  <advance width="399"/>
  <unicode hex="25CA"/>
  <outline>
    <contour>
      <point x="80" y="263" type="move"/>
      <point x="102" y="197"/>
      <point x="178" y="42"/>
      <point x="200" y="3" type="curve"/>
    </contour>
    <contour>
      <point x="202" y="0" type="move"/>
      <point x="227" y="45"/>
      <point x="296" y="187"/>
      <point x="323" y="263" type="curve"/>
    </contour>
    <contour>
      <point x="200" y="534" type="move"/>
      <point x="178" y="495"/>
      <point x="102" y="340"/>
      <point x="80" y="274" type="curve"/>
    </contour>
    <contour>
      <point x="323" y="274" type="move"/>
      <point x="296" y="350"/>
      <point x="227" y="492"/>
      <point x="202" y="537" type="curve"/>
    </contour>
  </outline>
</glyph>
<glyph name="acutecmb.cap" format="1">
  <advance width="0"/>
  <outline>
    <contour>
      <point x="113" y="729" type="move"/>
      <point x="67" y="702"/>
      <point x="19" y="671"/>
      <point x="-10" y="650" type="curve"/>
    </contour>
  </outline>
</glyph>
<glyph name="brevecmb.cap" format="1">
  <advance width="0"/>
  <outline>
    <contour>
      <point x="-119" y="733" type="move"/>
      <point x="-90" y="696"/>
      <point x="-47" y="670"/>
      <point x="0" y="670" type="curve" smooth="yes"/>
      <point x="53" y="670"/>
      <point x="90" y="695"/>
      <point x="116" y="733" type="curve"/>
    </contour>
  </outline>
</glyph>
<glyph name="circumflexcmb.cap" format="1">
  <advance width="0"/>
  <outline>
    <contour>
      <point x="-3" y="727" type="move"/>
      <point x="-36" y="703"/>
      <point x="-71" y="679"/>
      <point x="-99" y="658" type="curve"/>
    </contour>
    <contour>
      <point x="100" y="658" type="move"/>
      <point x="72" y="679"/>
      <point x="38" y="703"/>
      <point x="4" y="727" type="curve"/>
    </contour>
  </outline>
</glyph>
<glyph name="commaaccent" format="1">
  <advance width="240"/>
  <outline>
    <contour>
      <point x="138" y="-110" type="move"/>
      <point x="141" y="-119"/>
      <point x="143" y="-129"/>
      <point x="143" y="-137" type="curve" smooth="yes"/>
      <point x="143" y="-174"/>
      <point x="114" y="-205"/>
      <point x="76" y="-223" type="curve"/>
    </contour>
  </outline>
</glyph>
<glyph name="dieresiscmb.cap" format="1">
  <advance width="0"/>
  <outline>
    <contour>
      <point x="-97" y="705" type="move"/>
      <point x="-97" y="695"/>
      <point x="-97" y="673"/>
      <point x="-98" y="660" type="curve"/>
    </contour>
    <contour>
      <point x="96" y="705" type="move"/>
      <point x="97" y="694"/>
      <point x="96" y="674"/>
      <point x="95" y="660" type="curve"/>
    </contour>
  </outline>
</glyph>
<glyph name="dotaccentcmb.cap" format="1">
  <advance width="0"/>
  <outline>
    <contour>
      <point x="-1" y="727" type="move"/>
      <point x="1" y="718"/>
      <point x="1" y="705"/>
      <point x="1" y="687" type="curve" smooth="yes"/>
      <point x="1" y="674"/>
      <point x="0" y="661"/>
      <point x="-2" y="650" type="curve"/>
    </contour>
  </outline>
</glyph>
<glyph name="gravecmb.cap" format="1">
  <advance width="0"/>
  <outline>
    <contour>
      <point x="-105" y="730" type="move"/>
      <point x="-69" y="710"/>
      <point x="-16" y="670"/>
      <point x="11" y="649" type="curve"/>
    </contour>
  </outline>
</glyph>
<glyph name="hungarianumlautcmb.cap" format="1">
  <advance width="0"/>
  <outline>
    <contour>
      <point x="-19" y="725" type="move"/>
      <point x="-52" y="700"/>
      <point x="-82" y="676"/>
      <point x="-108" y="649" type="curve"/>
    </contour>
    <contour>
      <point x="186" y="725" type="move"/>
      <point x="150" y="696"/>
      <point x="121" y="670"/>
      <point x="97" y="649" type="curve"/>
    </contour>
  </outline>
</glyph>
<glyph name="hungarumlautcmb.cap" format="1">
  <advance width="0"/>
  <outline>
    <contour>
      <point x="-59" y="743" type="move"/>
      <point x="-81" y="708"/>
      <point x="-96" y="678"/>
      <point x="-108" y="648" type="curve"/>
    </contour>
    <contour>
      <point x="146" y="743" type="move"/>
      <point x="124" y="708"/>
      <point x="109" y="678"/>
      <point x="97" y="648" type="curve"/>
    </contour>
  </outline>
</glyph>
<glyph name="knAvagraha" format="1">
  <advance width="438"/>
  <outline>
    <contour>
      <point x="85" y="60" type="move"/>
      <point x="125" y="40"/>
      <point x="168" y="27"/>
      <point x="218" y="27" type="curve" smooth="yes"/>
      <point x="294" y="27"/>
      <point x="340" y="74"/>
      <point x="340" y="132" type="curve" smooth="yes"/>
      <point x="340" y="183"/>
      <point x="315" y="222"/>
      <point x="219" y="270" type="curve" smooth="yes"/>
      <point x="144" y="308"/>
      <point x="116" y="339"/>
      <point x="116" y="375" type="curve" smooth="yes"/>
      <point x="116" y="410"/>
      <point x="144" y="437"/>
      <point x="184" y="437" type="curve" smooth="yes"/>
      <point x="306" y="437" type="line"/>
    </contour>
  </outline>
</glyph>
<glyph name="knB" format="1">
  <advance width="1202"/>
  <outline>
    <contour>
      <point x="550" y="464" type="line"/>
      <point x="979" y="464" type="line" smooth="yes"/>
      <point x="1039" y="464"/>
      <point x="1062" y="449"/>
      <point x="1062" y="419" type="curve" smooth="yes"/>
      <point x="1062" y="395"/>
      <point x="1045" y="379"/>
      <point x="1015" y="379" type="curve" smooth="yes"/>
      <point x="966" y="379"/>
      <point x="937" y="421"/>
      <point x="937" y="479" type="curve" smooth="yes"/>
      <point x="937" y="556"/>
      <point x="976" y="619"/>
      <point x="1075" y="619" type="curve" smooth="yes"/>
      <point x="1101" y="619"/>
      <point x="1129" y="614"/>
      <point x="1159" y="603" type="curve"/>
      <point x="1159" y="717" type="line"/>
      <point x="1131" y="725"/>
      <point x="1102" y="729"/>
      <point x="1074" y="729" type="curve" smooth="yes"/>
      <point x="930" y="729"/>
      <point x="829" y="624"/>
      <point x="829" y="480" type="curve" smooth="yes"/>
      <point x="829" y="357"/>
      <point x="902" y="270"/>
      <point x="1018" y="270" type="curve" smooth="yes"/>
      <point x="1115" y="270"/>
      <point x="1182" y="332"/>
      <point x="1182" y="423" type="curve" smooth="yes"/>
      <point x="1182" y="510"/>
      <point x="1127" y="576"/>
      <point x="1001" y="576" type="curve" smooth="yes"/>
      <point x="550" y="576" type="line"/>
    </contour>
    <component base="knBA.base"/>
  </outline>
</glyph>
<glyph name="knBA.base" format="1">
  <advance width="708"/>
  <outline>
    <contour>
      <point x="426" y="437" type="move"/>
      <point x="518" y="437" type="line" smooth="yes"/>
    </contour>
    <contour>
      <point x="79" y="406" type="move"/>
      <point x="104" y="434"/>
      <point x="134" y="452"/>
      <point x="170" y="452" type="curve" smooth="yes"/>
      <point x="222" y="452"/>
      <point x="255" y="418"/>
      <point x="255" y="375" type="curve" smooth="yes"/>
      <point x="255" y="336"/>
      <point x="233" y="303"/>
      <point x="176" y="257" type="curve" smooth="yes"/>
      <point x="128" y="218"/>
      <point x="97" y="177"/>
      <point x="97" y="129" type="curve" smooth="yes"/>
      <point x="97" y="74"/>
      <point x="136" y="27"/>
      <point x="209" y="27" type="curve"/>
      <point x="276" y="27"/>
      <point x="324" y="60"/>
      <point x="366" y="128" type="curve"/>
      <point x="371" y="128" type="line"/>
      <point x="410" y="60"/>
      <point x="457" y="27"/>
      <point x="523" y="27" type="curve" smooth="yes"/>
      <point x="591" y="27"/>
      <point x="644" y="80"/>
      <point x="644" y="172" type="curve"/>
      <point x="644" y="269"/>
      <point x="580" y="373"/>
      <point x="485" y="437" type="curve"/>
    </contour>
  </outline>
</glyph>
<glyph name="knBAU" format="1">
  <advance width="1228"/>
  <outline>
    <contour>
      <point x="330" y="-10"/>
      <point x="401" y="32"/>
      <point x="420" y="114" type="curve"/>
      <point x="431" y="39"/>
      <point x="493" y="-10"/>
      <point x="578" y="-10" type="curve" smooth="yes"/>
      <point x="724" y="-10"/>
      <point x="791" y="115"/>
      <point x="791" y="258" type="curve" smooth="yes"/>
      <point x="791" y="437"/>
      <point x="694" y="543"/>
      <point x="528" y="543" type="curve" smooth="yes"/>
      <point x="508" y="543"/>
      <point x="487" y="540"/>
      <point x="466" y="536" type="curve"/>
      <point x="466" y="464" type="line"/>
      <point x="502" y="464" type="line"/>
      <point x="603" y="464"/>
      <point x="650" y="379"/>
      <point x="650" y="256" type="curve" smooth="yes"/>
      <point x="650" y="181"/>
      <point x="633" y="106"/>
      <point x="567" y="106" type="curve" smooth="yes"/>
      <point x="519" y="106"/>
      <point x="491" y="147"/>
      <point x="491" y="210" type="curve" smooth="yes"/>
      <point x="491" y="251" type="line"/>
      <point x="349" y="251" type="line"/>
      <point x="349" y="210" type="line" smooth="yes"/>
      <point x="349" y="144"/>
      <point x="313" y="106"/>
      <point x="250" y="106" type="curve" smooth="yes"/>
      <point x="216" y="106"/>
      <point x="181" y="120"/>
      <point x="181" y="160" type="curve" smooth="yes"/>
      <point x="181" y="250"/>
      <point x="406" y="276"/>
      <point x="406" y="427" type="curve" smooth="yes"/>
      <point x="406" y="527"/>
      <point x="329" y="587"/>
      <point x="232" y="587" type="curve" smooth="yes"/>
      <point x="115" y="587"/>
      <point x="54" y="517"/>
      <point x="54" y="430" type="curve" smooth="yes"/>
      <point x="54" y="414"/>
      <point x="56" y="401"/>
      <point x="60" y="384" type="curve"/>
      <point x="192" y="384" type="line"/>
      <point x="189" y="396"/>
      <point x="187" y="406"/>
      <point x="187" y="418" type="curve" smooth="yes"/>
      <point x="187" y="447"/>
      <point x="200" y="470"/>
      <point x="232" y="470" type="curve" smooth="yes"/>
      <point x="259" y="470"/>
      <point x="275" y="450"/>
      <point x="275" y="423" type="curve" smooth="yes"/>
      <point x="275" y="334"/>
      <point x="40" y="318"/>
      <point x="40" y="154" type="curve" smooth="yes"/>
      <point x="40" y="53"/>
      <point x="119" y="-10"/>
      <point x="236" y="-10" type="curve" smooth="yes"/>
    </contour>
    <contour>
      <point x="639" y="464" type="line" smooth="yes"/>
      <point x="760" y="464"/>
      <point x="808" y="531"/>
      <point x="808" y="630" type="curve" smooth="yes"/>
      <point x="808" y="674" type="line"/>
      <point x="676" y="675" type="line"/>
      <point x="676" y="638" type="line" smooth="yes"/>
      <point x="676" y="597"/>
      <point x="656" y="576"/>
      <point x="605" y="576" type="curve" smooth="yes"/>
      <point x="466" y="576" type="line"/>
      <point x="466" y="464" type="line"/>
    </contour>
    <contour>
      <point x="1128" y="280"/>
      <point x="1208" y="374"/>
      <point x="1208" y="507" type="curve" smooth="yes"/>
      <point x="1208" y="657"/>
      <point x="1112" y="773"/>
      <point x="930" y="773" type="curve" smooth="yes"/>
      <point x="545" y="773" type="line"/>
      <point x="545" y="661" type="line"/>
      <point x="913" y="661" type="line" smooth="yes"/>
      <point x="1030" y="661"/>
      <point x="1082" y="597"/>
      <point x="1082" y="501" type="curve" smooth="yes"/>
      <point x="1082" y="436"/>
      <point x="1056" y="386"/>
      <point x="1008" y="386" type="curve" smooth="yes"/>
      <point x="982" y="386"/>
      <point x="967" y="401"/>
      <point x="967" y="423" type="curve" smooth="yes"/>
      <point x="967" y="448"/>
      <point x="985" y="463"/>
      <point x="1009" y="463" type="curve" smooth="yes"/>
      <point x="1015" y="463"/>
      <point x="1023" y="463"/>
      <point x="1029" y="461" type="curve"/>
      <point x="1029" y="555" type="line"/>
      <point x="1015" y="558"/>
      <point x="999" y="559"/>
      <point x="986" y="559" type="curve" smooth="yes"/>
      <point x="905" y="559"/>
      <point x="849" y="497"/>
      <point x="849" y="422" type="curve" smooth="yes"/>
      <point x="849" y="336"/>
      <point x="910" y="280"/>
      <point x="1007" y="280" type="curve" smooth="yes"/>
    </contour>
  </outline>
</glyph>
<glyph name="knBAc2" format="1">
  <advance width="188"/>
  <outline>
    <contour>
      <point x="-17" y="-237" type="move"/>
      <point x="16" y="-292"/>
      <point x="47" y="-322"/>
      <point x="97" y="-322" type="curve" smooth="yes"/>
      <point x="147" y="-322"/>
      <point x="188" y="-276"/>
      <point x="188" y="-186" type="curve" smooth="yes"/>
      <point x="188" y="-101"/>
      <point x="146" y="27"/>
      <point x="81" y="129" type="curve"/>
    </contour>
    <contour>
      <point x="-233" y="-90" type="move"/>
      <point x="-216" y="-75"/>
      <point x="-195" y="-64"/>
      <point x="-171" y="-64" type="curve" smooth="yes"/>
      <point x="-136" y="-64"/>
      <point x="-112" y="-89"/>
      <point x="-112" y="-117" type="curve" smooth="yes"/>
      <point x="-112" y="-145"/>
      <point x="-130" y="-166"/>
      <point x="-162" y="-187" type="curve" smooth="yes"/>
      <point x="-198" y="-211"/>
      <point x="-213" y="-236"/>
      <point x="-213" y="-261" type="curve" smooth="yes"/>
      <point x="-213" y="-293"/>
      <point x="-189" y="-324"/>
      <point x="-141" y="-324" type="curve" smooth="yes"/>
      <point x="-94" y="-324"/>
      <point x="-47" y="-286"/>
      <point x="-20" y="-237" type="curve"/>
    </contour>
  </outline>
</glyph>
<glyph name="knBE" format="1">
  <advance width="849"/>
  <outline>
    <contour>
      <point x="333" y="-10"/>
      <point x="402" y="35"/>
      <point x="420" y="114" type="curve"/>
      <point x="431" y="39"/>
      <point x="493" y="-10"/>
      <point x="578" y="-10" type="curve" smooth="yes"/>
      <point x="709" y="-10"/>
      <point x="803" y="85"/>
      <point x="803" y="241" type="curve" smooth="yes"/>
      <point x="803" y="385"/>
      <point x="691" y="491"/>
      <point x="508" y="497" type="curve"/>
      <point x="474" y="464" type="line"/>
      <point x="585" y="460"/>
      <point x="661" y="390"/>
      <point x="661" y="265" type="curve" smooth="yes"/>
      <point x="661" y="183"/>
      <point x="636" y="106"/>
      <point x="567" y="106" type="curve" smooth="yes"/>
      <point x="519" y="106"/>
      <point x="491" y="147"/>
      <point x="491" y="210" type="curve" smooth="yes"/>
      <point x="491" y="251" type="line"/>
      <point x="349" y="251" type="line"/>
      <point x="349" y="210" type="line" smooth="yes"/>
      <point x="349" y="144"/>
      <point x="313" y="106"/>
      <point x="250" y="106" type="curve" smooth="yes"/>
      <point x="216" y="106"/>
      <point x="181" y="120"/>
      <point x="181" y="160" type="curve" smooth="yes"/>
      <point x="181" y="250"/>
      <point x="406" y="276"/>
      <point x="406" y="427" type="curve" smooth="yes"/>
      <point x="406" y="527"/>
      <point x="329" y="587"/>
      <point x="232" y="587" type="curve" smooth="yes"/>
      <point x="115" y="587"/>
      <point x="54" y="517"/>
      <point x="54" y="430" type="curve" smooth="yes"/>
      <point x="54" y="414"/>
      <point x="56" y="401"/>
      <point x="60" y="384" type="curve"/>
      <point x="192" y="384" type="line"/>
      <point x="189" y="396"/>
      <point x="187" y="406"/>
      <point x="187" y="418" type="curve" smooth="yes"/>
      <point x="187" y="447"/>
      <point x="200" y="470"/>
      <point x="232" y="470" type="curve" smooth="yes"/>
      <point x="259" y="470"/>
      <point x="275" y="450"/>
      <point x="275" y="423" type="curve" smooth="yes"/>
      <point x="275" y="334"/>
      <point x="40" y="318"/>
      <point x="40" y="154" type="curve" smooth="yes"/>
      <point x="40" y="53"/>
      <point x="119" y="-10"/>
      <point x="236" y="-10" type="curve" smooth="yes"/>
    </contour>
    <contour>
      <point x="608" y="464" type="line" smooth="yes"/>
      <point x="735" y="464"/>
      <point x="809" y="527"/>
      <point x="809" y="630" type="curve" smooth="yes"/>
      <point x="809" y="709"/>
      <point x="755" y="780"/>
      <point x="655" y="780" type="curve" smooth="yes"/>
      <point x="624" y="780"/>
      <point x="596" y="775"/>
      <point x="572" y="765" type="curve"/>
      <point x="572" y="655" type="line"/>
      <point x="588" y="661"/>
      <point x="606" y="665"/>
      <point x="623" y="665" type="curve" smooth="yes"/>
      <point x="655" y="665"/>
      <point x="669" y="646"/>
      <point x="669" y="623" type="curve" smooth="yes"/>
      <point x="669" y="593"/>
      <point x="648" y="576"/>
      <point x="606" y="576" type="curve" smooth="yes"/>
      <point x="474" y="576" type="line"/>
      <point x="474" y="464" type="line"/>
    </contour>
  </outline>
</glyph>
<glyph name="knBH" format="1">
  <advance width="1197"/>
  <outline>
    <contour>
      <point x="545" y="464" type="line"/>
      <point x="974" y="464" type="line" smooth="yes"/>
      <point x="1034" y="464"/>
      <point x="1057" y="449"/>
      <point x="1057" y="419" type="curve" smooth="yes"/>
      <point x="1057" y="395"/>
      <point x="1040" y="379"/>
      <point x="1010" y="379" type="curve" smooth="yes"/>
      <point x="961" y="379"/>
      <point x="932" y="421"/>
      <point x="932" y="479" type="curve" smooth="yes"/>
      <point x="932" y="556"/>
      <point x="971" y="619"/>
      <point x="1070" y="619" type="curve" smooth="yes"/>
      <point x="1096" y="619"/>
      <point x="1124" y="614"/>
      <point x="1154" y="603" type="curve"/>
      <point x="1154" y="717" type="line"/>
      <point x="1126" y="725"/>
      <point x="1097" y="729"/>
      <point x="1069" y="729" type="curve" smooth="yes"/>
      <point x="925" y="729"/>
      <point x="824" y="624"/>
      <point x="824" y="480" type="curve" smooth="yes"/>
      <point x="824" y="357"/>
      <point x="897" y="270"/>
      <point x="1013" y="270" type="curve" smooth="yes"/>
      <point x="1110" y="270"/>
      <point x="1177" y="332"/>
      <point x="1177" y="423" type="curve" smooth="yes"/>
      <point x="1177" y="510"/>
      <point x="1122" y="576"/>
      <point x="996" y="576" type="curve" smooth="yes"/>
      <point x="545" y="576" type="line"/>
    </contour>
    <component base="knBHA.base" xOffset="5"/>
  </outline>
</glyph>
<glyph name="knBHA.base" format="1">
  <advance width="701"/>
  <outline>
    <contour>
      <point x="363" y="-89" type="move"/>
      <point x="363" y="-192" type="line"/>
    </contour>
    <contour>
<<<<<<< HEAD
      <point x="447" y="437" type="move"/>
      <point x="539" y="437" type="line" smooth="yes"/>
=======
      <point x="409" y="437" type="move"/>
      <point x="511" y="437" type="line" smooth="yes"/>
>>>>>>> reforming
    </contour>
    <contour>
      <point x="72" y="406" type="move"/>
      <point x="97" y="434"/>
      <point x="127" y="452"/>
      <point x="163" y="452" type="curve" smooth="yes"/>
      <point x="215" y="452"/>
      <point x="248" y="418"/>
      <point x="248" y="375" type="curve" smooth="yes"/>
      <point x="248" y="336"/>
      <point x="226" y="303"/>
      <point x="169" y="257" type="curve" smooth="yes"/>
      <point x="121" y="218"/>
      <point x="90" y="177"/>
      <point x="90" y="129" type="curve" smooth="yes"/>
      <point x="90" y="74"/>
      <point x="129" y="27"/>
      <point x="202" y="27" type="curve"/>
      <point x="269" y="27"/>
      <point x="317" y="60"/>
      <point x="359" y="128" type="curve"/>
      <point x="364" y="128" type="line"/>
      <point x="403" y="60"/>
      <point x="450" y="27"/>
      <point x="516" y="27" type="curve" smooth="yes"/>
      <point x="584" y="27"/>
      <point x="637" y="80"/>
      <point x="637" y="172" type="curve" smooth="yes"/>
      <point x="637" y="269"/>
      <point x="573" y="373"/>
      <point x="478" y="437" type="curve"/>
    </contour>
  </outline>
</glyph>
<glyph name="knBHAU" format="1">
  <advance width="1238"/>
  <outline>
    <contour>
      <point x="649" y="464" type="line" smooth="yes"/>
      <point x="770" y="464"/>
      <point x="818" y="531"/>
      <point x="818" y="630" type="curve" smooth="yes"/>
      <point x="818" y="674" type="line"/>
      <point x="686" y="675" type="line"/>
      <point x="686" y="638" type="line" smooth="yes"/>
      <point x="686" y="597"/>
      <point x="666" y="576"/>
      <point x="615" y="576" type="curve" smooth="yes"/>
      <point x="505" y="576" type="line"/>
      <point x="505" y="464" type="line"/>
    </contour>
    <contour>
      <point x="1138" y="280"/>
      <point x="1218" y="374"/>
      <point x="1218" y="507" type="curve" smooth="yes"/>
      <point x="1218" y="657"/>
      <point x="1122" y="773"/>
      <point x="940" y="773" type="curve" smooth="yes"/>
      <point x="555" y="773" type="line"/>
      <point x="555" y="661" type="line"/>
      <point x="923" y="661" type="line" smooth="yes"/>
      <point x="1040" y="661"/>
      <point x="1092" y="597"/>
      <point x="1092" y="501" type="curve" smooth="yes"/>
      <point x="1092" y="436"/>
      <point x="1066" y="386"/>
      <point x="1018" y="386" type="curve" smooth="yes"/>
      <point x="992" y="386"/>
      <point x="977" y="401"/>
      <point x="977" y="423" type="curve" smooth="yes"/>
      <point x="977" y="448"/>
      <point x="995" y="463"/>
      <point x="1019" y="463" type="curve" smooth="yes"/>
      <point x="1025" y="463"/>
      <point x="1033" y="463"/>
      <point x="1039" y="461" type="curve"/>
      <point x="1039" y="555" type="line"/>
      <point x="1025" y="558"/>
      <point x="1009" y="559"/>
      <point x="996" y="559" type="curve" smooth="yes"/>
      <point x="915" y="559"/>
      <point x="859" y="497"/>
      <point x="859" y="422" type="curve" smooth="yes"/>
      <point x="859" y="336"/>
      <point x="920" y="280"/>
      <point x="1017" y="280" type="curve" smooth="yes"/>
    </contour>
    <component base="knBHA.base" xOffset="5"/>
  </outline>
</glyph>
<glyph name="knBHAc2" format="1">
  <advance width="138"/>
  <outline>
    <contour>
      <point x="-30" y="-380" type="move"/>
      <point x="-30" y="-446" type="line"/>
    </contour>
    <contour>
      <point x="-27" y="-237" type="move"/>
      <point x="6" y="-292"/>
      <point x="37" y="-322"/>
      <point x="87" y="-322" type="curve" smooth="yes"/>
      <point x="137" y="-322"/>
      <point x="178" y="-276"/>
      <point x="178" y="-186" type="curve" smooth="yes"/>
      <point x="178" y="-101"/>
      <point x="136" y="27"/>
      <point x="71" y="129" type="curve"/>
    </contour>
    <contour>
      <point x="-243" y="-90" type="move"/>
      <point x="-226" y="-75"/>
      <point x="-205" y="-64"/>
      <point x="-181" y="-64" type="curve" smooth="yes"/>
      <point x="-146" y="-64"/>
      <point x="-122" y="-89"/>
      <point x="-122" y="-117" type="curve" smooth="yes"/>
      <point x="-122" y="-145"/>
      <point x="-140" y="-166"/>
      <point x="-172" y="-187" type="curve" smooth="yes"/>
      <point x="-208" y="-211"/>
      <point x="-223" y="-236"/>
      <point x="-223" y="-261" type="curve" smooth="yes"/>
      <point x="-223" y="-293"/>
      <point x="-199" y="-324"/>
      <point x="-151" y="-324" type="curve" smooth="yes"/>
      <point x="-104" y="-324"/>
      <point x="-57" y="-286"/>
      <point x="-30" y="-237" type="curve"/>
    </contour>
  </outline>
</glyph>
<glyph name="knBHI" format="1">
  <advance width="878"/>
  <outline>
    <contour>
      <point x="330" y="-10"/>
      <point x="401" y="32"/>
      <point x="420" y="114" type="curve"/>
      <point x="430" y="34"/>
      <point x="493" y="-10"/>
      <point x="578" y="-10" type="curve" smooth="yes"/>
      <point x="742" y="-10"/>
      <point x="828" y="128"/>
      <point x="828" y="356" type="curve" smooth="yes"/>
      <point x="828" y="657"/>
      <point x="688" y="876"/>
      <point x="488" y="876" type="curve" smooth="yes"/>
      <point x="389" y="876"/>
      <point x="326" y="811"/>
      <point x="326" y="735" type="curve" smooth="yes"/>
      <point x="326" y="650"/>
      <point x="389" y="604"/>
      <point x="467" y="604" type="curve" smooth="yes"/>
      <point x="492" y="604"/>
      <point x="517" y="607"/>
      <point x="543" y="618" type="curve"/>
      <point x="543" y="706" type="line"/>
      <point x="526" y="698"/>
      <point x="510" y="694"/>
      <point x="493" y="694" type="curve" smooth="yes"/>
      <point x="467" y="694"/>
      <point x="445" y="706"/>
      <point x="445" y="734" type="curve" smooth="yes"/>
      <point x="445" y="757"/>
      <point x="464" y="774"/>
      <point x="494" y="774" type="curve" smooth="yes"/>
      <point x="605" y="774"/>
      <point x="686" y="604"/>
      <point x="686" y="365" type="curve" smooth="yes"/>
      <point x="686" y="201"/>
      <point x="655" y="106"/>
      <point x="574" y="106" type="curve" smooth="yes"/>
      <point x="519" y="106"/>
      <point x="491" y="147"/>
      <point x="491" y="210" type="curve" smooth="yes"/>
      <point x="491" y="251" type="line"/>
      <point x="349" y="251" type="line"/>
      <point x="349" y="210" type="line" smooth="yes"/>
      <point x="349" y="144"/>
      <point x="313" y="106"/>
      <point x="250" y="106" type="curve" smooth="yes"/>
      <point x="216" y="106"/>
      <point x="181" y="120"/>
      <point x="181" y="160" type="curve" smooth="yes"/>
      <point x="181" y="250"/>
      <point x="406" y="276"/>
      <point x="406" y="427" type="curve" smooth="yes"/>
      <point x="406" y="527"/>
      <point x="329" y="587"/>
      <point x="232" y="587" type="curve" smooth="yes"/>
      <point x="115" y="587"/>
      <point x="54" y="517"/>
      <point x="54" y="430" type="curve" smooth="yes"/>
      <point x="54" y="414"/>
      <point x="56" y="401"/>
      <point x="60" y="384" type="curve"/>
      <point x="192" y="384" type="line"/>
      <point x="189" y="396"/>
      <point x="187" y="406"/>
      <point x="187" y="418" type="curve" smooth="yes"/>
      <point x="187" y="447"/>
      <point x="200" y="470"/>
      <point x="232" y="470" type="curve" smooth="yes"/>
      <point x="259" y="470"/>
      <point x="275" y="450"/>
      <point x="275" y="423" type="curve" smooth="yes"/>
      <point x="275" y="334"/>
      <point x="40" y="318"/>
      <point x="40" y="154" type="curve" smooth="yes"/>
      <point x="40" y="53"/>
      <point x="119" y="-10"/>
      <point x="236" y="-10" type="curve" smooth="yes"/>
    </contour>
    <contour>
      <point x="494" y="-196" type="line"/>
      <point x="494" y="-181" type="line"/>
      <point x="450" y="4" type="line"/>
      <point x="384" y="4" type="line"/>
      <point x="340" y="-181" type="line"/>
      <point x="340" y="-196" type="line"/>
    </contour>
  </outline>
</glyph>
<glyph name="knBI" format="1">
  <advance width="714"/>
  <outline>
    <contour>
      <point x="72" y="406" type="move"/>
      <point x="97" y="434"/>
      <point x="127" y="452"/>
      <point x="163" y="452" type="curve" smooth="yes"/>
      <point x="215" y="452"/>
      <point x="248" y="418"/>
      <point x="248" y="375" type="curve" smooth="yes"/>
      <point x="248" y="336"/>
      <point x="226" y="303"/>
      <point x="169" y="257" type="curve" smooth="yes"/>
      <point x="121" y="218"/>
      <point x="90" y="177"/>
      <point x="90" y="129" type="curve" smooth="yes"/>
      <point x="90" y="74"/>
      <point x="129" y="27"/>
      <point x="202" y="27" type="curve"/>
      <point x="269" y="27"/>
      <point x="317" y="60"/>
      <point x="359" y="128" type="curve"/>
      <point x="364" y="128" type="line"/>
      <point x="403" y="60"/>
      <point x="450" y="27"/>
      <point x="516" y="27" type="curve" smooth="yes"/>
      <point x="584" y="27"/>
      <point x="640" y="86"/>
      <point x="640" y="215" type="curve" smooth="yes"/>
      <point x="640" y="354"/>
      <point x="572" y="508"/>
      <point x="479" y="601" type="curve"/>
      <point x="420" y="660"/>
      <point x="384" y="677"/>
      <point x="341" y="677" type="curve" smooth="yes"/>
      <point x="281" y="677"/>
      <point x="252" y="633"/>
      <point x="252" y="595" type="curve" smooth="yes"/>
      <point x="252" y="554"/>
      <point x="291" y="516"/>
      <point x="339" y="516" type="curve" smooth="yes"/>
      <point x="387" y="516"/>
      <point x="431" y="545"/>
      <point x="456" y="585" type="curve"/>
    </contour>
  </outline>
</glyph>
<glyph name="knC" format="1">
  <advance width="1217"/>
  <outline>
    <contour>
      <point x="565" y="469" type="line"/>
      <point x="994" y="469" type="line" smooth="yes"/>
      <point x="1054" y="469"/>
      <point x="1077" y="449"/>
      <point x="1077" y="419" type="curve" smooth="yes"/>
      <point x="1077" y="395"/>
      <point x="1060" y="379"/>
      <point x="1030" y="379" type="curve" smooth="yes"/>
      <point x="981" y="379"/>
      <point x="952" y="421"/>
      <point x="952" y="479" type="curve" smooth="yes"/>
      <point x="952" y="556"/>
      <point x="991" y="619"/>
      <point x="1090" y="619" type="curve" smooth="yes"/>
      <point x="1116" y="619"/>
      <point x="1144" y="614"/>
      <point x="1174" y="603" type="curve"/>
      <point x="1174" y="717" type="line"/>
      <point x="1146" y="725"/>
      <point x="1117" y="729"/>
      <point x="1089" y="729" type="curve" smooth="yes"/>
      <point x="945" y="729"/>
      <point x="844" y="624"/>
      <point x="844" y="480" type="curve" smooth="yes"/>
      <point x="844" y="357"/>
      <point x="917" y="270"/>
      <point x="1033" y="270" type="curve" smooth="yes"/>
      <point x="1130" y="270"/>
      <point x="1197" y="332"/>
      <point x="1197" y="423" type="curve" smooth="yes"/>
      <point x="1197" y="510"/>
      <point x="1142" y="576"/>
      <point x="1016" y="576" type="curve" smooth="yes"/>
      <point x="565" y="576" type="line"/>
    </contour>
    <component base="knCA.base" xOffset="5"/>
  </outline>
</glyph>
<glyph name="knCA.base" format="1">
  <advance width="760"/>
  <outline>
    <contour>
      <point x="418" y="290" type="move"/>
      <point x="700" y="290" type="line"/>
    </contour>
    <contour>
      <point x="420" y="437" type="move"/>
      <point x="577" y="437" type="line" smooth="yes"/>
    </contour>
    <contour>
      <point x="570" y="296" type="move"/>
      <point x="570" y="409" type="line" smooth="yes"/>
    </contour>
    <contour>
      <point x="72" y="406" type="move"/>
      <point x="97" y="434"/>
      <point x="127" y="452"/>
      <point x="163" y="452" type="curve" smooth="yes"/>
      <point x="215" y="452"/>
      <point x="248" y="418"/>
      <point x="248" y="375" type="curve" smooth="yes"/>
      <point x="248" y="336"/>
      <point x="226" y="303"/>
      <point x="169" y="257" type="curve" smooth="yes"/>
      <point x="121" y="218"/>
      <point x="90" y="177"/>
      <point x="90" y="129" type="curve" smooth="yes"/>
      <point x="90" y="74"/>
      <point x="129" y="27"/>
      <point x="202" y="27" type="curve"/>
      <point x="269" y="27"/>
      <point x="314" y="56"/>
      <point x="359" y="128" type="curve"/>
      <point x="364" y="128" type="line"/>
      <point x="406" y="63"/>
      <point x="452" y="27"/>
      <point x="525" y="27" type="curve" smooth="yes"/>
      <point x="597" y="27"/>
      <point x="640" y="79"/>
      <point x="640" y="137" type="curve" smooth="yes"/>
      <point x="640" y="189"/>
      <point x="617" y="233"/>
      <point x="561" y="277" type="curve"/>
    </contour>
  </outline>
</glyph>
<glyph name="knCAU" format="1">
  <advance width="1258"/>
  <outline>
    <contour>
      <point x="669" y="469" type="line" smooth="yes"/>
      <point x="790" y="469"/>
      <point x="838" y="536"/>
      <point x="838" y="635" type="curve" smooth="yes"/>
      <point x="838" y="674" type="line"/>
      <point x="706" y="675" type="line"/>
      <point x="706" y="638" type="line" smooth="yes"/>
      <point x="706" y="597"/>
      <point x="686" y="576"/>
      <point x="635" y="576" type="curve" smooth="yes"/>
      <point x="545" y="576" type="line"/>
      <point x="545" y="469" type="line"/>
    </contour>
    <contour>
      <point x="1158" y="280"/>
      <point x="1238" y="374"/>
      <point x="1238" y="507" type="curve" smooth="yes"/>
      <point x="1238" y="657"/>
      <point x="1142" y="773"/>
      <point x="960" y="773" type="curve" smooth="yes"/>
      <point x="575" y="773" type="line"/>
      <point x="575" y="661" type="line"/>
      <point x="943" y="661" type="line" smooth="yes"/>
      <point x="1060" y="661"/>
      <point x="1112" y="597"/>
      <point x="1112" y="501" type="curve" smooth="yes"/>
      <point x="1112" y="436"/>
      <point x="1086" y="386"/>
      <point x="1038" y="386" type="curve" smooth="yes"/>
      <point x="1012" y="386"/>
      <point x="997" y="401"/>
      <point x="997" y="423" type="curve" smooth="yes"/>
      <point x="997" y="448"/>
      <point x="1015" y="463"/>
      <point x="1039" y="463" type="curve" smooth="yes"/>
      <point x="1045" y="463"/>
      <point x="1053" y="463"/>
      <point x="1059" y="461" type="curve"/>
      <point x="1059" y="555" type="line"/>
      <point x="1045" y="558"/>
      <point x="1029" y="559"/>
      <point x="1016" y="559" type="curve" smooth="yes"/>
      <point x="935" y="559"/>
      <point x="879" y="497"/>
      <point x="879" y="422" type="curve" smooth="yes"/>
      <point x="879" y="336"/>
      <point x="940" y="280"/>
      <point x="1037" y="280" type="curve" smooth="yes"/>
    </contour>
    <contour>
      <point x="333" y="-10"/>
      <point x="407" y="33"/>
      <point x="420" y="114" type="curve"/>
      <point x="431" y="39"/>
      <point x="493" y="-10"/>
      <point x="588" y="-10" type="curve" smooth="yes"/>
      <point x="711" y="-10"/>
      <point x="785" y="60"/>
      <point x="785" y="159" type="curve" smooth="yes"/>
      <point x="785" y="267"/>
      <point x="685" y="316"/>
      <point x="572" y="316" type="curve" smooth="yes"/>
      <point x="538" y="316"/>
      <point x="529" y="314"/>
      <point x="510" y="310" type="curve"/>
      <point x="510" y="279" type="line"/>
      <point x="574" y="279"/>
      <point x="644" y="260"/>
      <point x="644" y="181" type="curve" smooth="yes"/>
      <point x="644" y="137"/>
      <point x="621" y="106"/>
      <point x="577" y="106" type="curve" smooth="yes"/>
      <point x="519" y="106"/>
      <point x="491" y="147"/>
      <point x="491" y="210" type="curve" smooth="yes"/>
      <point x="491" y="244" type="line"/>
      <point x="349" y="244" type="line"/>
      <point x="349" y="210" type="line" smooth="yes"/>
      <point x="349" y="144"/>
      <point x="313" y="106"/>
      <point x="250" y="106" type="curve" smooth="yes"/>
      <point x="216" y="106"/>
      <point x="181" y="120"/>
      <point x="181" y="160" type="curve" smooth="yes"/>
      <point x="181" y="250"/>
      <point x="406" y="276"/>
      <point x="406" y="427" type="curve" smooth="yes"/>
      <point x="406" y="527"/>
      <point x="329" y="587"/>
      <point x="232" y="587" type="curve" smooth="yes"/>
      <point x="115" y="587"/>
      <point x="54" y="517"/>
      <point x="54" y="430" type="curve" smooth="yes"/>
      <point x="54" y="414"/>
      <point x="56" y="401"/>
      <point x="60" y="384" type="curve"/>
      <point x="192" y="384" type="line"/>
      <point x="189" y="396"/>
      <point x="187" y="406"/>
      <point x="187" y="418" type="curve" smooth="yes"/>
      <point x="187" y="447"/>
      <point x="200" y="470"/>
      <point x="232" y="470" type="curve" smooth="yes"/>
      <point x="259" y="470"/>
      <point x="275" y="450"/>
      <point x="275" y="423" type="curve" smooth="yes"/>
      <point x="275" y="334"/>
      <point x="40" y="318"/>
      <point x="40" y="154" type="curve" smooth="yes"/>
      <point x="40" y="53"/>
      <point x="119" y="-10"/>
      <point x="236" y="-10" type="curve"/>
    </contour>
    <contour>
      <point x="814" y="279" type="line"/>
      <point x="814" y="386" type="line"/>
      <point x="510" y="386" type="line"/>
      <point x="510" y="279" type="line"/>
    </contour>
    <contour>
      <point x="714" y="364" type="line"/>
      <point x="714" y="477" type="line"/>
      <point x="595" y="477" type="line"/>
      <point x="595" y="364" type="line"/>
    </contour>
    <contour>
      <point x="630" y="469" type="line"/>
      <point x="630" y="576" type="line"/>
      <point x="510" y="576" type="line"/>
      <point x="510" y="469" type="line"/>
    </contour>
  </outline>
</glyph>
<glyph name="knCAc2" format="1">
  <advance width="0"/>
  <outline>
    <contour>
      <point x="18" y="-239" type="move"/>
      <point x="224" y="-239" type="line"/>
    </contour>
    <contour>
      <point x="20" y="-131" type="move"/>
      <point x="118" y="-131" type="line" smooth="yes"/>
      <point x="172" y="-131"/>
      <point x="203" y="-114"/>
      <point x="227" y="-79" type="curve" smooth="yes"/>
    </contour>
    <contour>
      <point x="129" y="-225" type="move"/>
      <point x="129" y="-150" type="line" smooth="yes"/>
    </contour>
    <contour>
      <point x="-231" y="-148" type="move"/>
      <point x="-211" y="-137"/>
      <point x="-194" y="-134"/>
      <point x="-171" y="-134" type="curve" smooth="yes"/>
      <point x="-137" y="-134"/>
      <point x="-108" y="-156"/>
      <point x="-108" y="-188" type="curve" smooth="yes"/>
      <point x="-108" y="-215"/>
      <point x="-129" y="-233"/>
      <point x="-163" y="-255" type="curve" smooth="yes"/>
      <point x="-197" y="-278"/>
      <point x="-213" y="-303"/>
      <point x="-213" y="-330" type="curve" smooth="yes"/>
      <point x="-213" y="-363"/>
      <point x="-187" y="-393"/>
      <point x="-138" y="-393" type="curve" smooth="yes"/>
      <point x="-99" y="-393"/>
      <point x="-65" y="-369"/>
      <point x="-26" y="-333" type="curve"/>
      <point x="-22" y="-333" type="line"/>
      <point x="14" y="-372"/>
      <point x="49" y="-393"/>
      <point x="89" y="-393" type="curve" smooth="yes"/>
      <point x="139" y="-393"/>
      <point x="166" y="-360"/>
      <point x="166" y="-322" type="curve" smooth="yes"/>
      <point x="166" y="-303"/>
      <point x="155" y="-274"/>
      <point x="145" y="-258" type="curve"/>
    </contour>
  </outline>
</glyph>
<glyph name="knCE" format="1">
  <advance width="854"/>
  <outline>
    <contour>
      <point x="333" y="-10"/>
      <point x="407" y="33"/>
      <point x="420" y="114" type="curve"/>
      <point x="431" y="39"/>
      <point x="493" y="-10"/>
      <point x="588" y="-10" type="curve" smooth="yes"/>
      <point x="711" y="-10"/>
      <point x="785" y="60"/>
      <point x="785" y="159" type="curve" smooth="yes"/>
      <point x="785" y="267"/>
      <point x="685" y="316"/>
      <point x="572" y="316" type="curve" smooth="yes"/>
      <point x="538" y="316"/>
      <point x="529" y="314"/>
      <point x="510" y="310" type="curve"/>
      <point x="510" y="279" type="line"/>
      <point x="574" y="279"/>
      <point x="644" y="260"/>
      <point x="644" y="181" type="curve" smooth="yes"/>
      <point x="644" y="137"/>
      <point x="621" y="106"/>
      <point x="577" y="106" type="curve" smooth="yes"/>
      <point x="519" y="106"/>
      <point x="491" y="147"/>
      <point x="491" y="210" type="curve" smooth="yes"/>
      <point x="491" y="244" type="line"/>
      <point x="349" y="244" type="line"/>
      <point x="349" y="210" type="line" smooth="yes"/>
      <point x="349" y="144"/>
      <point x="313" y="106"/>
      <point x="250" y="106" type="curve" smooth="yes"/>
      <point x="216" y="106"/>
      <point x="181" y="120"/>
      <point x="181" y="160" type="curve" smooth="yes"/>
      <point x="181" y="250"/>
      <point x="406" y="276"/>
      <point x="406" y="427" type="curve" smooth="yes"/>
      <point x="406" y="527"/>
      <point x="329" y="587"/>
      <point x="232" y="587" type="curve" smooth="yes"/>
      <point x="115" y="587"/>
      <point x="54" y="517"/>
      <point x="54" y="430" type="curve" smooth="yes"/>
      <point x="54" y="414"/>
      <point x="56" y="401"/>
      <point x="60" y="384" type="curve"/>
      <point x="192" y="384" type="line"/>
      <point x="189" y="396"/>
      <point x="187" y="406"/>
      <point x="187" y="418" type="curve" smooth="yes"/>
      <point x="187" y="447"/>
      <point x="200" y="470"/>
      <point x="232" y="470" type="curve" smooth="yes"/>
      <point x="259" y="470"/>
      <point x="275" y="450"/>
      <point x="275" y="423" type="curve" smooth="yes"/>
      <point x="275" y="334"/>
      <point x="40" y="318"/>
      <point x="40" y="154" type="curve" smooth="yes"/>
      <point x="40" y="53"/>
      <point x="119" y="-10"/>
      <point x="236" y="-10" type="curve"/>
    </contour>
    <contour>
      <point x="814" y="279" type="line"/>
      <point x="814" y="386" type="line"/>
      <point x="510" y="386" type="line"/>
      <point x="510" y="279" type="line"/>
    </contour>
    <contour>
      <point x="714" y="364" type="line"/>
      <point x="714" y="487" type="line"/>
      <point x="595" y="487" type="line"/>
      <point x="595" y="364" type="line"/>
    </contour>
    <contour>
      <point x="623" y="469" type="line" smooth="yes"/>
      <point x="750" y="470"/>
      <point x="824" y="527"/>
      <point x="824" y="630" type="curve" smooth="yes"/>
      <point x="824" y="709"/>
      <point x="770" y="780"/>
      <point x="670" y="780" type="curve" smooth="yes"/>
      <point x="639" y="780"/>
      <point x="611" y="775"/>
      <point x="587" y="765" type="curve"/>
      <point x="587" y="655" type="line"/>
      <point x="603" y="662"/>
      <point x="622" y="665"/>
      <point x="637" y="665" type="curve" smooth="yes"/>
      <point x="669" y="665"/>
      <point x="684" y="646"/>
      <point x="684" y="622" type="curve" smooth="yes"/>
      <point x="684" y="592"/>
      <point x="661" y="576"/>
      <point x="621" y="576" type="curve" smooth="yes"/>
      <point x="510" y="576" type="line"/>
      <point x="510" y="469" type="line"/>
    </contour>
  </outline>
</glyph>
<glyph name="knCH" format="1">
  <advance width="1198"/>
  <outline>
    <contour>
      <point x="576" y="464" type="line"/>
      <point x="975" y="464" type="line" smooth="yes"/>
      <point x="1035" y="464"/>
      <point x="1058" y="449"/>
      <point x="1058" y="419" type="curve" smooth="yes"/>
      <point x="1058" y="395"/>
      <point x="1041" y="379"/>
      <point x="1011" y="379" type="curve" smooth="yes"/>
      <point x="962" y="379"/>
      <point x="933" y="421"/>
      <point x="933" y="479" type="curve" smooth="yes"/>
      <point x="933" y="556"/>
      <point x="972" y="619"/>
      <point x="1071" y="619" type="curve" smooth="yes"/>
      <point x="1097" y="619"/>
      <point x="1125" y="614"/>
      <point x="1155" y="603" type="curve"/>
      <point x="1155" y="717" type="line"/>
      <point x="1127" y="725"/>
      <point x="1098" y="729"/>
      <point x="1070" y="729" type="curve" smooth="yes"/>
      <point x="926" y="729"/>
      <point x="825" y="624"/>
      <point x="825" y="480" type="curve" smooth="yes"/>
      <point x="825" y="357"/>
      <point x="898" y="270"/>
      <point x="1014" y="270" type="curve" smooth="yes"/>
      <point x="1111" y="270"/>
      <point x="1178" y="332"/>
      <point x="1178" y="423" type="curve" smooth="yes"/>
      <point x="1178" y="510"/>
      <point x="1123" y="576"/>
      <point x="997" y="576" type="curve" smooth="yes"/>
      <point x="576" y="576" type="line"/>
    </contour>
    <component base="knCHA.base" xOffset="6"/>
  </outline>
</glyph>
<glyph name="knCHA.base" format="1">
  <advance width="734"/>
  <outline>
    <contour>
      <point x="438" y="437" type="move"/>
      <point x="537" y="437" type="line" smooth="yes"/>
    </contour>
    <contour>
      <point x="377" y="-89" type="move"/>
      <point x="377" y="-192" type="line"/>
    </contour>
    <contour>
      <point x="111" y="354" type="move"/>
      <point x="139" y="312"/>
      <point x="173" y="286"/>
      <point x="215" y="286" type="curve" smooth="yes"/>
      <point x="263" y="286"/>
      <point x="303" y="318"/>
      <point x="303" y="368" type="curve" smooth="yes"/>
      <point x="303" y="417"/>
      <point x="270" y="452"/>
      <point x="215" y="452" type="curve" smooth="yes"/>
      <point x="146" y="452"/>
      <point x="85" y="352"/>
      <point x="85" y="229" type="curve" smooth="yes"/>
      <point x="85" y="113"/>
      <point x="147" y="27"/>
      <point x="232" y="27" type="curve" smooth="yes"/>
      <point x="297" y="27"/>
      <point x="337" y="59"/>
      <point x="374" y="128" type="curve"/>
      <point x="379" y="128" type="line"/>
      <point x="417" y="61"/>
      <point x="461" y="27"/>
      <point x="521" y="27" type="curve" smooth="yes"/>
      <point x="598" y="27"/>
      <point x="650" y="90"/>
      <point x="650" y="183" type="curve" smooth="yes"/>
      <point x="650" y="279"/>
      <point x="609" y="364"/>
      <point x="508" y="437" type="curve"/>
    </contour>
  </outline>
</glyph>
<glyph name="knCHAU" format="1">
  <advance width="1229"/>
  <outline>
    <contour>
      <point x="640" y="464" type="line" smooth="yes"/>
      <point x="761" y="464"/>
      <point x="809" y="531"/>
      <point x="809" y="630" type="curve" smooth="yes"/>
      <point x="809" y="674" type="line"/>
      <point x="677" y="675" type="line"/>
      <point x="677" y="638" type="line" smooth="yes"/>
      <point x="677" y="597"/>
      <point x="657" y="576"/>
      <point x="606" y="576" type="curve" smooth="yes"/>
      <point x="526" y="576" type="line"/>
      <point x="526" y="464" type="line"/>
    </contour>
    <contour>
      <point x="1129" y="280"/>
      <point x="1209" y="374"/>
      <point x="1209" y="507" type="curve" smooth="yes"/>
      <point x="1209" y="657"/>
      <point x="1113" y="773"/>
      <point x="931" y="773" type="curve" smooth="yes"/>
      <point x="546" y="773" type="line"/>
      <point x="546" y="661" type="line"/>
      <point x="914" y="661" type="line" smooth="yes"/>
      <point x="1031" y="661"/>
      <point x="1083" y="597"/>
      <point x="1083" y="501" type="curve" smooth="yes"/>
      <point x="1083" y="436"/>
      <point x="1057" y="386"/>
      <point x="1009" y="386" type="curve" smooth="yes"/>
      <point x="983" y="386"/>
      <point x="968" y="401"/>
      <point x="968" y="423" type="curve" smooth="yes"/>
      <point x="968" y="448"/>
      <point x="986" y="463"/>
      <point x="1010" y="463" type="curve" smooth="yes"/>
      <point x="1016" y="463"/>
      <point x="1024" y="463"/>
      <point x="1030" y="461" type="curve"/>
      <point x="1030" y="555" type="line"/>
      <point x="1016" y="558"/>
      <point x="1000" y="559"/>
      <point x="987" y="559" type="curve" smooth="yes"/>
      <point x="906" y="559"/>
      <point x="850" y="497"/>
      <point x="850" y="422" type="curve" smooth="yes"/>
      <point x="850" y="336"/>
      <point x="911" y="280"/>
      <point x="1008" y="280" type="curve" smooth="yes"/>
    </contour>
    <component base="knCHA.base" xOffset="6"/>
  </outline>
</glyph>
<glyph name="knCHAc2" format="1">
  <advance width="86"/>
  <outline>
    <contour>
      <point x="-90" y="-426" type="move"/>
      <point x="-90" y="-495" type="line"/>
    </contour>
    <contour>
      <point x="-281" y="-198" type="move"/>
      <point x="-262" y="-212"/>
      <point x="-233" y="-223"/>
      <point x="-205" y="-223" type="curve" smooth="yes"/>
      <point x="-167" y="-223"/>
      <point x="-142" y="-192"/>
      <point x="-142" y="-164" type="curve" smooth="yes"/>
      <point x="-142" y="-136"/>
      <point x="-161" y="-106"/>
      <point x="-206" y="-106" type="curve" smooth="yes"/>
      <point x="-250" y="-106"/>
      <point x="-290" y="-161"/>
      <point x="-290" y="-233" type="curve" smooth="yes"/>
      <point x="-290" y="-299"/>
      <point x="-249" y="-348"/>
      <point x="-194" y="-348" type="curve" smooth="yes"/>
      <point x="-151" y="-348"/>
      <point x="-121" y="-326"/>
      <point x="-93" y="-280" type="curve"/>
      <point x="-89" y="-280" type="line"/>
      <point x="-60" y="-325"/>
      <point x="-26" y="-348"/>
      <point x="20" y="-348" type="curve" smooth="yes"/>
      <point x="75" y="-348"/>
      <point x="118" y="-306"/>
      <point x="118" y="-213" type="curve" smooth="yes"/>
      <point x="118" y="-131"/>
      <point x="76" y="-23"/>
      <point x="11" y="79" type="curve"/>
    </contour>
  </outline>
</glyph>
<glyph name="knCHE" format="1">
  <advance width="847"/>
  <outline>
    <contour>
      <point x="367" y="-10"/>
      <point x="423" y="38"/>
      <point x="440" y="114" type="curve"/>
      <point x="452" y="37"/>
      <point x="514" y="-10"/>
      <point x="604" y="-10" type="curve" smooth="yes"/>
      <point x="743" y="-10"/>
      <point x="817" y="108"/>
      <point x="817" y="242" type="curve" smooth="yes"/>
      <point x="817" y="379"/>
      <point x="721" y="492"/>
      <point x="556" y="492" type="curve" smooth="yes"/>
      <point x="534" y="492"/>
      <point x="511" y="489"/>
      <point x="489" y="485" type="curve"/>
      <point x="489" y="464" type="line"/>
      <point x="641" y="445"/>
      <point x="676" y="351"/>
      <point x="676" y="246" type="curve" smooth="yes"/>
      <point x="676" y="177"/>
      <point x="651" y="106"/>
      <point x="589" y="106" type="curve" smooth="yes"/>
      <point x="537" y="106"/>
      <point x="511" y="150"/>
      <point x="511" y="210" type="curve" smooth="yes"/>
      <point x="511" y="236" type="line"/>
      <point x="369" y="236" type="line"/>
      <point x="369" y="210" type="line" smooth="yes"/>
      <point x="369" y="147"/>
      <point x="343" y="106"/>
      <point x="286" y="106" type="curve" smooth="yes"/>
      <point x="214" y="106"/>
      <point x="182" y="196"/>
      <point x="182" y="289" type="curve" smooth="yes"/>
      <point x="182" y="318"/>
      <point x="185" y="347"/>
      <point x="191" y="374" type="curve"/>
      <point x="173" y="366" type="line"/>
      <point x="182" y="298"/>
      <point x="226" y="262"/>
      <point x="296" y="262" type="curve" smooth="yes"/>
      <point x="387" y="262"/>
      <point x="444" y="331"/>
      <point x="444" y="421" type="curve" smooth="yes"/>
      <point x="444" y="496"/>
      <point x="394" y="586"/>
      <point x="282" y="586" type="curve" smooth="yes"/>
      <point x="112" y="586"/>
      <point x="40" y="414"/>
      <point x="40" y="284" type="curve" smooth="yes"/>
      <point x="40" y="131"/>
      <point x="116" y="-10"/>
      <point x="278" y="-10" type="curve" smooth="yes"/>
    </contour>
    <contour>
      <point x="516" y="-196" type="line"/>
      <point x="516" y="-181" type="line"/>
      <point x="472" y="4" type="line"/>
      <point x="406" y="4" type="line"/>
      <point x="362" y="-181" type="line"/>
      <point x="362" y="-196" type="line"/>
    </contour>
    <contour>
      <point x="227" y="360"/>
      <point x="206" y="382"/>
      <point x="206" y="416" type="curve" smooth="yes"/>
      <point x="206" y="447"/>
      <point x="226" y="474"/>
      <point x="259" y="474" type="curve" smooth="yes"/>
      <point x="296" y="474"/>
      <point x="315" y="449"/>
      <point x="315" y="418" type="curve" smooth="yes"/>
      <point x="315" y="387"/>
      <point x="297" y="360"/>
      <point x="262" y="360" type="curve" smooth="yes"/>
    </contour>
    <contour>
      <point x="611" y="464" type="line" smooth="yes"/>
      <point x="738" y="464"/>
      <point x="812" y="527"/>
      <point x="812" y="630" type="curve" smooth="yes"/>
      <point x="812" y="709"/>
      <point x="758" y="780"/>
      <point x="658" y="780" type="curve" smooth="yes"/>
      <point x="627" y="780"/>
      <point x="599" y="775"/>
      <point x="575" y="765" type="curve"/>
      <point x="575" y="655" type="line"/>
      <point x="591" y="662"/>
      <point x="610" y="665"/>
      <point x="625" y="665" type="curve" smooth="yes"/>
      <point x="657" y="665"/>
      <point x="672" y="646"/>
      <point x="672" y="622" type="curve" smooth="yes"/>
      <point x="672" y="592"/>
      <point x="649" y="576"/>
      <point x="609" y="576" type="curve" smooth="yes"/>
      <point x="489" y="576" type="line"/>
      <point x="489" y="464" type="line"/>
    </contour>
  </outline>
</glyph>
<glyph name="knCHI" format="1">
  <advance width="754"/>
  <outline>
    <contour>
      <point x="391" y="-89" type="move"/>
      <point x="391" y="-192" type="line"/>
    </contour>
    <contour>
      <point x="391" y="-89" type="move"/>
      <point x="391" y="-192" type="line"/>
    </contour>
    <contour>
      <point x="115" y="354" type="move"/>
      <point x="143" y="312"/>
      <point x="177" y="286"/>
      <point x="219" y="286" type="curve" smooth="yes"/>
      <point x="267" y="286"/>
      <point x="307" y="318"/>
      <point x="307" y="368" type="curve" smooth="yes"/>
      <point x="307" y="417"/>
      <point x="274" y="452"/>
      <point x="219" y="452" type="curve" smooth="yes"/>
      <point x="150" y="452"/>
      <point x="89" y="352"/>
      <point x="89" y="229" type="curve" smooth="yes"/>
      <point x="89" y="113"/>
      <point x="151" y="28"/>
      <point x="246" y="27" type="curve" smooth="yes"/>
      <point x="311" y="26"/>
      <point x="351" y="59"/>
      <point x="388" y="128" type="curve"/>
      <point x="393" y="128" type="line"/>
      <point x="431" y="61"/>
      <point x="478" y="27"/>
      <point x="542" y="27" type="curve" smooth="yes"/>
      <point x="615" y="27"/>
      <point x="672" y="90"/>
      <point x="672" y="196" type="curve" smooth="yes"/>
      <point x="672" y="336"/>
      <point x="594" y="508"/>
      <point x="501" y="601" type="curve"/>
      <point x="442" y="660"/>
      <point x="406" y="677"/>
      <point x="363" y="677" type="curve" smooth="yes"/>
      <point x="303" y="677"/>
      <point x="274" y="633"/>
      <point x="274" y="595" type="curve" smooth="yes"/>
      <point x="274" y="554"/>
      <point x="313" y="516"/>
      <point x="361" y="516" type="curve" smooth="yes"/>
      <point x="409" y="516"/>
      <point x="453" y="545"/>
      <point x="478" y="585" type="curve"/>
    </contour>
  </outline>
</glyph>
<glyph name="knCI" format="1">
  <advance width="760"/>
  <outline>
    <contour>
      <point x="418" y="290" type="move"/>
      <point x="700" y="290" type="line"/>
    </contour>
    <contour>
      <point x="72" y="406" type="move"/>
      <point x="97" y="434"/>
      <point x="127" y="452"/>
      <point x="163" y="452" type="curve" smooth="yes"/>
      <point x="215" y="452"/>
      <point x="248" y="418"/>
      <point x="248" y="375" type="curve" smooth="yes"/>
      <point x="248" y="336"/>
      <point x="226" y="303"/>
      <point x="169" y="257" type="curve" smooth="yes"/>
      <point x="121" y="218"/>
      <point x="90" y="177"/>
      <point x="90" y="129" type="curve" smooth="yes"/>
      <point x="90" y="74"/>
      <point x="129" y="27"/>
      <point x="202" y="27" type="curve"/>
      <point x="269" y="27"/>
      <point x="314" y="56"/>
      <point x="359" y="128" type="curve"/>
      <point x="364" y="128" type="line"/>
      <point x="406" y="63"/>
      <point x="452" y="27"/>
      <point x="525" y="27" type="curve" smooth="yes"/>
      <point x="597" y="27"/>
      <point x="640" y="79"/>
      <point x="640" y="137" type="curve" smooth="yes"/>
      <point x="640" y="189"/>
      <point x="617" y="233"/>
      <point x="561" y="277" type="curve"/>
    </contour>
    <contour>
      <point x="472" y="290" type="move"/>
      <point x="591" y="299"/>
      <point x="655" y="370"/>
      <point x="655" y="473" type="curve" smooth="yes"/>
      <point x="655" y="544"/>
      <point x="603" y="615"/>
      <point x="533" y="615" type="curve" smooth="yes"/>
      <point x="477" y="615"/>
      <point x="442" y="575"/>
      <point x="442" y="530" type="curve" smooth="yes"/>
      <point x="442" y="484"/>
      <point x="479" y="449"/>
      <point x="527" y="449" type="curve" smooth="yes"/>
      <point x="573" y="449"/>
      <point x="608" y="470"/>
      <point x="645" y="518" type="curve"/>
    </contour>
  </outline>
</glyph>
<glyph name="knCO" format="1">
  <advance width="1596"/>
  <outline>
    <contour>
      <point x="1113" y="-12"/>
      <point x="1083" y="471"/>
      <point x="1283" y="471" type="curve" smooth="yes"/>
      <point x="1375" y="471"/>
      <point x="1408" y="386"/>
      <point x="1408" y="277" type="curve" smooth="yes"/>
      <point x="1408" y="249"/>
      <point x="1405" y="226"/>
      <point x="1400" y="202" type="curve"/>
      <point x="1425" y="210" type="line"/>
      <point x="1424" y="276"/>
      <point x="1374" y="314"/>
      <point x="1304" y="314" type="curve" smooth="yes"/>
      <point x="1212" y="314"/>
      <point x="1156" y="243"/>
      <point x="1156" y="152" type="curve" smooth="yes"/>
      <point x="1156" y="65"/>
      <point x="1224" y="-10"/>
      <point x="1336" y="-10" type="curve" smooth="yes"/>
      <point x="1481" y="-10"/>
      <point x="1556" y="117"/>
      <point x="1556" y="271" type="curve" smooth="yes"/>
      <point x="1556" y="440"/>
      <point x="1479" y="586"/>
      <point x="1282" y="586" type="curve" smooth="yes"/>
      <point x="951" y="586"/>
      <point x="979" y="103"/>
      <point x="850" y="103" type="curve" smooth="yes"/>
      <point x="810" y="103"/>
      <point x="785" y="131"/>
      <point x="785" y="170" type="curve"/>
      <point x="699" y="191" type="line"/>
      <point x="699" y="67"/>
      <point x="751" y="-12"/>
      <point x="866" y="-12" type="curve"/>
    </contour>
    <contour>
      <point x="1303" y="102"/>
      <point x="1283" y="126"/>
      <point x="1283" y="158" type="curve" smooth="yes"/>
      <point x="1283" y="189"/>
      <point x="1301" y="216"/>
      <point x="1336" y="216" type="curve" smooth="yes"/>
      <point x="1373" y="216"/>
      <point x="1392" y="191"/>
      <point x="1392" y="160" type="curve" smooth="yes"/>
      <point x="1392" y="129"/>
      <point x="1373" y="102"/>
      <point x="1339" y="102" type="curve" smooth="yes"/>
    </contour>
    <component base="knCE"/>
  </outline>
</glyph>
<glyph name="knCU" format="1">
  <advance width="1149"/>
  <outline>
    <contour>
      <point x="719" y="193" type="line"/>
      <point x="719" y="65"/>
      <point x="771" y="-10"/>
      <point x="888" y="-10" type="curve" smooth="yes"/>
      <point x="1030" y="-10"/>
      <point x="1109" y="126"/>
      <point x="1109" y="265" type="curve" smooth="yes"/>
      <point x="1109" y="446"/>
      <point x="1048" y="576"/>
      <point x="855" y="576" type="curve"/>
      <point x="855" y="461" type="line"/>
      <point x="948" y="461"/>
      <point x="968" y="364"/>
      <point x="968" y="271" type="curve" smooth="yes"/>
      <point x="968" y="168"/>
      <point x="934" y="106"/>
      <point x="862" y="106" type="curve" smooth="yes"/>
      <point x="816" y="106"/>
      <point x="785" y="132"/>
      <point x="785" y="173" type="curve"/>
    </contour>
    <component base="knCA"/>
  </outline>
</glyph>
<glyph name="knCUU" format="1">
  <advance width="1595"/>
  <outline>
    <contour>
      <point x="1112" y="-12"/>
      <point x="1082" y="471"/>
      <point x="1282" y="471" type="curve" smooth="yes"/>
      <point x="1374" y="471"/>
      <point x="1407" y="386"/>
      <point x="1407" y="277" type="curve" smooth="yes"/>
      <point x="1407" y="249"/>
      <point x="1404" y="226"/>
      <point x="1399" y="202" type="curve"/>
      <point x="1424" y="210" type="line"/>
      <point x="1423" y="276"/>
      <point x="1373" y="314"/>
      <point x="1303" y="314" type="curve" smooth="yes"/>
      <point x="1211" y="314"/>
      <point x="1155" y="243"/>
      <point x="1155" y="152" type="curve" smooth="yes"/>
      <point x="1155" y="65"/>
      <point x="1223" y="-10"/>
      <point x="1335" y="-10" type="curve" smooth="yes"/>
      <point x="1480" y="-10"/>
      <point x="1555" y="117"/>
      <point x="1555" y="271" type="curve" smooth="yes"/>
      <point x="1555" y="440"/>
      <point x="1478" y="586"/>
      <point x="1281" y="586" type="curve" smooth="yes"/>
      <point x="950" y="586"/>
      <point x="978" y="103"/>
      <point x="849" y="103" type="curve" smooth="yes"/>
      <point x="809" y="103"/>
      <point x="784" y="131"/>
      <point x="784" y="170" type="curve"/>
      <point x="698" y="191" type="line"/>
      <point x="698" y="67"/>
      <point x="750" y="-12"/>
      <point x="865" y="-12" type="curve"/>
    </contour>
    <contour>
      <point x="1302" y="102"/>
      <point x="1282" y="126"/>
      <point x="1282" y="158" type="curve" smooth="yes"/>
      <point x="1282" y="189"/>
      <point x="1300" y="216"/>
      <point x="1335" y="216" type="curve" smooth="yes"/>
      <point x="1372" y="216"/>
      <point x="1391" y="191"/>
      <point x="1391" y="160" type="curve" smooth="yes"/>
      <point x="1391" y="129"/>
      <point x="1372" y="102"/>
      <point x="1338" y="102" type="curve" smooth="yes"/>
    </contour>
    <component base="knCA"/>
  </outline>
</glyph>
<glyph name="knCandrabindu" format="1">
  <advance width="1"/>
  <outline>
    <contour>
      <point x="-127" y="593" type="move"/>
      <point x="-104" y="555"/>
      <point x="-63" y="521"/>
      <point x="-1" y="521" type="curve" smooth="yes"/>
      <point x="66" y="521"/>
      <point x="96" y="555"/>
      <point x="117" y="589" type="curve"/>
    </contour>
    <contour>
      <point x="-3" y="639" type="curve" smooth="yes"/>
      <point x="8" y="639"/>
      <point x="18" y="647"/>
      <point x="18" y="658" type="curve" smooth="yes"/>
      <point x="18" y="668"/>
      <point x="8" y="677"/>
      <point x="-3" y="677" type="curve" smooth="yes"/>
      <point x="-14" y="677"/>
      <point x="-23" y="668"/>
      <point x="-23" y="658" type="curve" smooth="yes"/>
      <point x="-23" y="647"/>
      <point x="-14" y="639"/>
    </contour>
  </outline>
</glyph>
<glyph name="knDAc2" format="1">
  <advance width="62"/>
  <outline>
    <contour>
      <point x="-5.84" y="-87" type="curve" smooth="yes"/>
      <point x="-133.84" y="-87"/>
      <point x="-201.84" y="-192"/>
      <point x="-201.84" y="-258" type="curve" smooth="yes"/>
      <point x="-201.84" y="-315"/>
      <point x="-163.84" y="-352"/>
      <point x="-114.84" y="-352" type="curve" smooth="yes"/>
      <point x="-69.84" y="-352"/>
      <point x="-30.84" y="-326"/>
      <point x="-8.84" y="-267" type="curve"/>
      <point x="-7.84" y="-267" type="line"/>
      <point x="19.16" y="-325"/>
      <point x="47.16" y="-352"/>
      <point x="96.16" y="-352" type="curve" smooth="yes"/>
      <point x="147.16" y="-352"/>
      <point x="188.16" y="-316"/>
      <point x="188.16" y="-258" type="curve" smooth="yes"/>
      <point x="188.16" y="-192"/>
      <point x="121.16" y="-87"/>
    </contour>
  </outline>
</glyph>
<glyph name="knDDAc2" format="1">
  <advance width="0"/>
  <outline>
    <contour>
      <point x="-26" y="-137" type="curve" smooth="yes"/>
      <point x="-163" y="-137"/>
      <point x="-236" y="-242"/>
      <point x="-236" y="-308" type="curve" smooth="yes"/>
      <point x="-236" y="-365"/>
      <point x="-195" y="-402"/>
      <point x="-143" y="-402" type="curve" smooth="yes"/>
      <point x="-94" y="-402"/>
      <point x="-58" y="-384"/>
      <point x="-29" y="-347" type="curve"/>
      <point x="-28" y="-347" type="line"/>
      <point x="6" y="-382"/>
      <point x="34" y="-402"/>
      <point x="84" y="-402" type="curve" smooth="yes"/>
      <point x="138" y="-402"/>
      <point x="182" y="-366"/>
      <point x="182" y="-308" type="curve" smooth="yes"/>
      <point x="182" y="-242"/>
      <point x="110" y="-137"/>
    </contour>
    <contour>
      <point x="65" y="-174" type="move"/>
      <point x="37" y="-192"/>
      <point x="21" y="-217"/>
      <point x="21" y="-247" type="curve" smooth="yes"/>
      <point x="21" y="-281"/>
      <point x="49" y="-306"/>
      <point x="83" y="-306" type="curve" smooth="yes"/>
      <point x="107" y="-306"/>
      <point x="129" y="-296"/>
      <point x="145" y="-281" type="curve"/>
    </contour>
  </outline>
</glyph>
<glyph name="knDDE" format="1">
  <advance width="872"/>
  <outline>
    <contour>
      <point x="330" y="-9"/>
      <point x="398" y="36"/>
      <point x="414" y="114" type="curve"/>
      <point x="426" y="38"/>
      <point x="505" y="-9"/>
      <point x="592" y="-9" type="curve" smooth="yes"/>
      <point x="729" y="-9"/>
      <point x="835" y="83"/>
      <point x="835" y="225" type="curve" smooth="yes"/>
      <point x="835" y="411"/>
      <point x="668" y="538"/>
      <point x="400" y="538" type="curve" smooth="yes"/>
      <point x="197" y="538"/>
      <point x="30" y="400"/>
      <point x="30" y="209" type="curve" smooth="yes"/>
      <point x="30" y="83"/>
      <point x="106" y="-9"/>
      <point x="243" y="-9" type="curve" smooth="yes"/>
    </contour>
    <contour>
      <point x="202" y="106"/>
      <point x="172" y="151"/>
      <point x="172" y="219" type="curve" smooth="yes"/>
      <point x="172" y="336"/>
      <point x="262" y="464"/>
      <point x="432" y="464" type="curve" smooth="yes"/>
      <point x="480" y="464"/>
      <point x="524" y="457"/>
      <point x="563" y="444" type="curve"/>
      <point x="566" y="465" type="line"/>
      <point x="502" y="452"/>
      <point x="464" y="390"/>
      <point x="464" y="329" type="curve" smooth="yes"/>
      <point x="464" y="246"/>
      <point x="522" y="190"/>
      <point x="609" y="190" type="curve" smooth="yes"/>
      <point x="670" y="190"/>
      <point x="723" y="223"/>
      <point x="740" y="272" type="curve"/>
      <point x="718" y="291" type="line"/>
      <point x="723" y="273"/>
      <point x="726" y="258"/>
      <point x="726" y="242" type="curve" smooth="yes"/>
      <point x="726" y="161"/>
      <point x="675" y="106"/>
      <point x="596" y="106" type="curve" smooth="yes"/>
      <point x="529" y="106"/>
      <point x="485" y="147"/>
      <point x="485" y="210" type="curve" smooth="yes"/>
      <point x="485" y="221" type="line"/>
      <point x="343" y="221" type="line"/>
      <point x="343" y="210" type="line" smooth="yes"/>
      <point x="343" y="147"/>
      <point x="308" y="106"/>
      <point x="258" y="106" type="curve" smooth="yes"/>
    </contour>
    <contour>
      <point x="590" y="281"/>
      <point x="568" y="304"/>
      <point x="568" y="335" type="curve" smooth="yes"/>
      <point x="568" y="368"/>
      <point x="593" y="393"/>
      <point x="624" y="393" type="curve" smooth="yes"/>
      <point x="655" y="393"/>
      <point x="680" y="368"/>
      <point x="680" y="337" type="curve" smooth="yes"/>
      <point x="680" y="306"/>
      <point x="655" y="281"/>
      <point x="624" y="281" type="curve" smooth="yes"/>
    </contour>
    <contour>
      <point x="641" y="464" type="line" smooth="yes"/>
      <point x="768" y="464"/>
      <point x="842" y="527"/>
      <point x="842" y="630" type="curve" smooth="yes"/>
      <point x="842" y="709"/>
      <point x="788" y="780"/>
      <point x="688" y="780" type="curve" smooth="yes"/>
      <point x="657" y="780"/>
      <point x="629" y="775"/>
      <point x="605" y="765" type="curve"/>
      <point x="605" y="655" type="line"/>
      <point x="621" y="662"/>
      <point x="640" y="665"/>
      <point x="655" y="665" type="curve" smooth="yes"/>
      <point x="687" y="665"/>
      <point x="702" y="646"/>
      <point x="702" y="622" type="curve" smooth="yes"/>
      <point x="702" y="592"/>
      <point x="679" y="576"/>
      <point x="639" y="576" type="curve" smooth="yes"/>
      <point x="30" y="576" type="line"/>
      <point x="30" y="464" type="line"/>
    </contour>
  </outline>
</glyph>
<glyph name="knDDHA.base" format="1">
  <advance width="740"/>
  <outline>
    <contour>
      <point x="361" y="-89" type="move"/>
      <point x="361" y="-192" type="line"/>
    </contour>
    <contour>
      <point x="93" y="437" type="move"/>
      <point x="513" y="437" type="line" smooth="yes"/>
    </contour>
    <contour>
      <point x="284" y="437" type="move"/>
      <point x="160" y="382"/>
      <point x="91" y="270"/>
      <point x="91" y="168" type="curve" smooth="yes"/>
      <point x="91" y="78"/>
      <point x="150" y="27"/>
      <point x="218" y="27" type="curve" smooth="yes"/>
      <point x="283" y="27"/>
      <point x="323" y="60"/>
      <point x="359" y="128" type="curve"/>
      <point x="364" y="128" type="line"/>
      <point x="402" y="58"/>
      <point x="462" y="27"/>
      <point x="518" y="27" type="curve" smooth="yes"/>
      <point x="609" y="27"/>
      <point x="653" y="85"/>
      <point x="653" y="157" type="curve" smooth="yes"/>
      <point x="653" y="241"/>
      <point x="592" y="348"/>
      <point x="443" y="437" type="curve"/>
    </contour>
    <contour>
      <point x="514" y="332" type="curve" smooth="yes"/>
      <point x="468" y="332"/>
      <point x="435" y="299"/>
      <point x="435" y="256" type="curve" smooth="yes"/>
      <point x="435" y="215"/>
      <point x="467" y="182"/>
      <point x="515" y="182" type="curve" smooth="yes"/>
      <point x="563" y="182"/>
      <point x="594" y="214"/>
      <point x="594" y="257" type="curve" smooth="yes"/>
      <point x="594" y="299"/>
      <point x="563" y="332"/>
    </contour>
  </outline>
</glyph>
<glyph name="knDDHAc2" format="1">
  <advance width="0"/>
  <outline>
    <contour>
      <point x="-31" y="-470" type="move"/>
      <point x="-31" y="-536" type="line"/>
    </contour>
    <contour>
      <point x="-26" y="-137" type="curve" smooth="yes"/>
      <point x="-163" y="-137"/>
      <point x="-236" y="-242"/>
      <point x="-236" y="-308" type="curve" smooth="yes"/>
      <point x="-236" y="-365"/>
      <point x="-195" y="-402"/>
      <point x="-143" y="-402" type="curve" smooth="yes"/>
      <point x="-94" y="-402"/>
      <point x="-58" y="-384"/>
      <point x="-29" y="-347" type="curve"/>
      <point x="-28" y="-347" type="line"/>
      <point x="6" y="-382"/>
      <point x="34" y="-402"/>
      <point x="84" y="-402" type="curve" smooth="yes"/>
      <point x="138" y="-402"/>
      <point x="182" y="-366"/>
      <point x="182" y="-308" type="curve" smooth="yes"/>
      <point x="182" y="-242"/>
      <point x="110" y="-137"/>
    </contour>
    <contour>
      <point x="65" y="-174" type="move"/>
      <point x="37" y="-192"/>
      <point x="21" y="-217"/>
      <point x="21" y="-247" type="curve" smooth="yes"/>
      <point x="21" y="-281"/>
      <point x="49" y="-306"/>
      <point x="83" y="-306" type="curve" smooth="yes"/>
      <point x="107" y="-306"/>
      <point x="129" y="-296"/>
      <point x="145" y="-281" type="curve"/>
    </contour>
  </outline>
</glyph>
<glyph name="knDDHI" format="1">
  <advance width="740"/>
  <outline>
    <contour>
      <point x="361" y="-89" type="move"/>
      <point x="361" y="-192" type="line"/>
    </contour>
    <component base="knDDI"/>
  </outline>
</glyph>
<glyph name="knDDI" format="1">
  <advance width="740"/>
  <outline>
    <contour>
      <point x="370" y="452" type="curve" smooth="yes"/>
      <point x="227" y="452"/>
      <point x="91" y="320"/>
      <point x="91" y="168" type="curve" smooth="yes"/>
      <point x="91" y="78"/>
      <point x="150" y="27"/>
      <point x="218" y="27" type="curve" smooth="yes"/>
      <point x="283" y="27"/>
      <point x="323" y="60"/>
      <point x="359" y="128" type="curve"/>
      <point x="364" y="128" type="line"/>
      <point x="402" y="58"/>
      <point x="462" y="27"/>
      <point x="518" y="27" type="curve" smooth="yes"/>
      <point x="609" y="27"/>
      <point x="663" y="85"/>
      <point x="663" y="172" type="curve" smooth="yes"/>
      <point x="663" y="291"/>
      <point x="529" y="452"/>
    </contour>
    <contour>
      <point x="524" y="332" type="curve" smooth="yes"/>
      <point x="478" y="332"/>
      <point x="445" y="299"/>
      <point x="445" y="256" type="curve" smooth="yes"/>
      <point x="445" y="215"/>
      <point x="477" y="182"/>
      <point x="525" y="182" type="curve" smooth="yes"/>
      <point x="573" y="182"/>
      <point x="604" y="214"/>
      <point x="604" y="257" type="curve" smooth="yes"/>
      <point x="604" y="299"/>
      <point x="573" y="332"/>
    </contour>
    <contour>
      <point x="602" y="308" type="move"/>
      <point x="609" y="339"/>
      <point x="613" y="364"/>
      <point x="613" y="401" type="curve" smooth="yes"/>
      <point x="613" y="444"/>
      <point x="596" y="496"/>
      <point x="541" y="541" type="curve" smooth="yes"/>
      <point x="490" y="583"/>
      <point x="425" y="613"/>
      <point x="311" y="613" type="curve" smooth="yes"/>
      <point x="183" y="613"/>
      <point x="123" y="547"/>
      <point x="123" y="492" type="curve" smooth="yes"/>
      <point x="123" y="453"/>
      <point x="147" y="419"/>
      <point x="187" y="399" type="curve"/>
    </contour>
  </outline>
</glyph>
<glyph name="knDE" format="1">
  <advance width="825"/>
  <outline>
    <contour>
      <point x="330" y="-9"/>
      <point x="393" y="38"/>
      <point x="405" y="114" type="curve"/>
      <point x="417" y="38"/>
      <point x="480" y="-9"/>
      <point x="567" y="-9" type="curve" smooth="yes"/>
      <point x="704" y="-9"/>
      <point x="780" y="83"/>
      <point x="780" y="225" type="curve" smooth="yes"/>
      <point x="780" y="411"/>
      <point x="646" y="538"/>
      <point x="405" y="538" type="curve" smooth="yes"/>
      <point x="164" y="538"/>
      <point x="30" y="411"/>
      <point x="30" y="225" type="curve" smooth="yes"/>
      <point x="30" y="83"/>
      <point x="106" y="-9"/>
      <point x="243" y="-9" type="curve" smooth="yes"/>
    </contour>
    <contour>
      <point x="201" y="106"/>
      <point x="172" y="160"/>
      <point x="172" y="235" type="curve" smooth="yes"/>
      <point x="172" y="345"/>
      <point x="240" y="464"/>
      <point x="405" y="464" type="curve" smooth="yes"/>
      <point x="570" y="464"/>
      <point x="638" y="345"/>
      <point x="638" y="235" type="curve" smooth="yes"/>
      <point x="638" y="160"/>
      <point x="609" y="106"/>
      <point x="552" y="106" type="curve" smooth="yes"/>
      <point x="504" y="106"/>
      <point x="476" y="147"/>
      <point x="476" y="210" type="curve" smooth="yes"/>
      <point x="476" y="241" type="line"/>
      <point x="334" y="241" type="line"/>
      <point x="334" y="210" type="line" smooth="yes"/>
      <point x="334" y="147"/>
      <point x="306" y="106"/>
      <point x="258" y="106" type="curve" smooth="yes"/>
    </contour>
    <contour>
      <point x="594" y="464" type="line" smooth="yes"/>
      <point x="721" y="464"/>
      <point x="795" y="527"/>
      <point x="795" y="630" type="curve" smooth="yes"/>
      <point x="795" y="709"/>
      <point x="741" y="780"/>
      <point x="641" y="780" type="curve" smooth="yes"/>
      <point x="610" y="780"/>
      <point x="582" y="775"/>
      <point x="558" y="765" type="curve"/>
      <point x="558" y="655" type="line"/>
      <point x="574" y="661"/>
      <point x="592" y="665"/>
      <point x="609" y="665" type="curve" smooth="yes"/>
      <point x="641" y="665"/>
      <point x="655" y="646"/>
      <point x="655" y="623" type="curve" smooth="yes"/>
      <point x="655" y="593"/>
      <point x="634" y="576"/>
      <point x="592" y="576" type="curve" smooth="yes"/>
      <point x="30" y="576" type="line"/>
      <point x="30" y="464" type="line"/>
    </contour>
  </outline>
</glyph>
<glyph name="knDHAc2" format="1">
  <advance width="0"/>
  <outline>
    <contour>
      <point x="-290" y="-382"/>
      <point x="-252" y="-354"/>
      <point x="-245" y="-308" type="curve"/>
      <point x="-251" y="-308" type="line"/>
      <point x="-244" y="-354"/>
      <point x="-206" y="-382"/>
      <point x="-155" y="-382" type="curve" smooth="yes"/>
      <point x="-77" y="-382"/>
      <point x="-30" y="-330"/>
      <point x="-30" y="-245" type="curve" smooth="yes"/>
      <point x="-30" y="-140"/>
      <point x="-114" y="-54"/>
      <point x="-248" y="-54" type="curve" smooth="yes"/>
      <point x="-382" y="-54"/>
      <point x="-466" y="-140"/>
      <point x="-466" y="-245" type="curve" smooth="yes"/>
      <point x="-466" y="-330"/>
      <point x="-419" y="-382"/>
      <point x="-341" y="-382" type="curve" smooth="yes"/>
    </contour>
    <contour>
      <point x="-361" y="-310"/>
      <point x="-379" y="-284"/>
      <point x="-379" y="-239" type="curve" smooth="yes"/>
      <point x="-379" y="-182"/>
      <point x="-341" y="-126"/>
      <point x="-248" y="-126" type="curve" smooth="yes"/>
      <point x="-155" y="-126"/>
      <point x="-117" y="-182"/>
      <point x="-117" y="-239" type="curve" smooth="yes"/>
      <point x="-117" y="-284"/>
      <point x="-135" y="-310"/>
      <point x="-164" y="-310" type="curve" smooth="yes"/>
      <point x="-189" y="-310"/>
      <point x="-204" y="-289"/>
      <point x="-204" y="-253" type="curve" smooth="yes"/>
      <point x="-204" y="-233" type="line"/>
      <point x="-292" y="-233" type="line"/>
      <point x="-292" y="-253" type="line" smooth="yes"/>
      <point x="-292" y="-289"/>
      <point x="-307" y="-310"/>
      <point x="-332" y="-310" type="curve" smooth="yes"/>
    </contour>
    <contour>
      <point x="-197" y="-491" type="line"/>
      <point x="-197" y="-478" type="line"/>
      <point x="-227" y="-370" type="line"/>
      <point x="-269" y="-370" type="line"/>
      <point x="-299" y="-478" type="line"/>
      <point x="-299" y="-491" type="line"/>
    </contour>
  </outline>
</glyph>
<glyph name="knDI" format="1">
  <advance width="721"/>
  <outline>
    <contour>
      <point x="359" y="442" type="curve" smooth="yes"/>
      <point x="223" y="442"/>
      <point x="91" y="303"/>
      <point x="91" y="172" type="curve" smooth="yes"/>
      <point x="91" y="80"/>
      <point x="143" y="27"/>
      <point x="216" y="27" type="curve" smooth="yes"/>
      <point x="281" y="27"/>
      <point x="320" y="61"/>
      <point x="355" y="128" type="curve"/>
      <point x="360" y="128" type="line"/>
      <point x="398" y="58"/>
      <point x="435" y="27"/>
      <point x="504" y="27" type="curve" smooth="yes"/>
      <point x="576" y="27"/>
      <point x="630" y="80"/>
      <point x="630" y="172" type="curve" smooth="yes"/>
      <point x="630" y="302"/>
      <point x="493" y="442"/>
    </contour>
    <contour>
      <point x="585" y="313" type="move"/>
      <point x="591" y="340"/>
      <point x="593" y="364"/>
      <point x="593" y="401" type="curve" smooth="yes"/>
      <point x="593" y="444"/>
      <point x="577" y="496"/>
      <point x="524" y="541" type="curve" smooth="yes"/>
      <point x="476" y="583"/>
      <point x="414" y="613"/>
      <point x="306" y="613" type="curve" smooth="yes"/>
      <point x="184" y="613"/>
      <point x="127" y="547"/>
      <point x="127" y="492" type="curve" smooth="yes"/>
      <point x="127" y="453"/>
      <point x="149" y="419"/>
      <point x="187" y="399" type="curve"/>
    </contour>
  </outline>
</glyph>
<glyph name="knGA.base" format="1">
  <advance width="609"/>
  <outline>
    <contour>
      <point x="61" y="437" type="move"/>
      <point x="422" y="437" type="line" smooth="yes"/>
    </contour>
    <contour>
      <point x="474" y="27" type="move"/>
      <point x="496" y="73"/>
      <point x="509" y="118"/>
      <point x="509" y="180" type="curve" smooth="yes"/>
      <point x="509" y="273"/>
      <point x="445" y="379"/>
      <point x="320" y="437" type="curve"/>
    </contour>
    <contour>
      <point x="282" y="437" type="move"/>
      <point x="159" y="380"/>
      <point x="100" y="274"/>
      <point x="100" y="180" type="curve" smooth="yes"/>
      <point x="100" y="119"/>
      <point x="112" y="71"/>
      <point x="135" y="27" type="curve"/>
    </contour>
  </outline>
</glyph>
<glyph name="knGAc2" format="1">
  <advance width="0"/>
  <outline>
    <contour>
      <point x="97" y="-354" type="move"/>
      <point x="105" y="-336"/>
      <point x="117" y="-312"/>
      <point x="117" y="-267" type="curve" smooth="yes"/>
      <point x="117" y="-177"/>
      <point x="52" y="-91"/>
      <point x="-26" y="-91" type="curve" smooth="yes"/>
      <point x="-104" y="-91"/>
      <point x="-170" y="-179"/>
      <point x="-170" y="-267" type="curve" smooth="yes"/>
      <point x="-170" y="-311"/>
      <point x="-160" y="-336"/>
      <point x="-150" y="-354" type="curve"/>
    </contour>
  </outline>
</glyph>
<glyph name="knGE" format="1">
  <advance width="612"/>
  <outline>
    <contour>
      <point x="207" y="0" type="line"/>
      <point x="189" y="58"/>
      <point x="178" y="121"/>
      <point x="178" y="206" type="curve" smooth="yes"/>
      <point x="178" y="322"/>
      <point x="199" y="464"/>
      <point x="292" y="464" type="curve"/>
      <point x="384" y="464"/>
      <point x="406" y="322"/>
      <point x="406" y="206" type="curve" smooth="yes"/>
      <point x="406" y="121"/>
      <point x="395" y="58"/>
      <point x="377" y="0" type="curve"/>
      <point x="526" y="0" type="line"/>
      <point x="540" y="51"/>
      <point x="549" y="115"/>
      <point x="549" y="181" type="curve" smooth="yes"/>
      <point x="549" y="353"/>
      <point x="496" y="540"/>
      <point x="292" y="540" type="curve"/>
      <point x="88" y="540"/>
      <point x="35" y="353"/>
      <point x="35" y="181" type="curve" smooth="yes"/>
      <point x="35" y="115"/>
      <point x="44" y="51"/>
      <point x="58" y="0" type="curve"/>
    </contour>
    <contour>
      <point x="381" y="464" type="line" smooth="yes"/>
      <point x="508" y="464"/>
      <point x="582" y="527"/>
      <point x="582" y="630" type="curve" smooth="yes"/>
      <point x="582" y="709"/>
      <point x="528" y="780"/>
      <point x="428" y="780" type="curve" smooth="yes"/>
      <point x="397" y="780"/>
      <point x="369" y="775"/>
      <point x="345" y="765" type="curve"/>
      <point x="345" y="655" type="line"/>
      <point x="361" y="662"/>
      <point x="380" y="665"/>
      <point x="395" y="665" type="curve" smooth="yes"/>
      <point x="427" y="665"/>
      <point x="442" y="646"/>
      <point x="442" y="622" type="curve" smooth="yes"/>
      <point x="442" y="592"/>
      <point x="419" y="576"/>
      <point x="379" y="576" type="curve" smooth="yes"/>
      <point x="30" y="576" type="line"/>
      <point x="30" y="464" type="line"/>
    </contour>
  </outline>
</glyph>
<glyph name="knGH" format="1">
  <advance width="1297"/>
  <outline>
    <contour>
      <point x="318" y="-10"/>
      <point x="380" y="38"/>
      <point x="395" y="114" type="curve"/>
      <point x="407" y="35"/>
      <point x="475" y="-10"/>
      <point x="558" y="-10" type="curve" smooth="yes"/>
      <point x="685" y="-10"/>
      <point x="757" y="89"/>
      <point x="757" y="200" type="curve" smooth="yes"/>
      <point x="757" y="315"/>
      <point x="681" y="393"/>
      <point x="578" y="393" type="curve" smooth="yes"/>
      <point x="562" y="393"/>
      <point x="545" y="391"/>
      <point x="527" y="387" type="curve"/>
      <point x="527" y="275" type="line"/>
      <point x="534" y="277"/>
      <point x="541" y="278"/>
      <point x="548" y="278" type="curve" smooth="yes"/>
      <point x="592" y="278"/>
      <point x="615" y="248"/>
      <point x="615" y="200" type="curve" smooth="yes"/>
      <point x="615" y="151"/>
      <point x="592" y="106"/>
      <point x="542" y="106" type="curve"/>
      <point x="488" y="106"/>
      <point x="466" y="151"/>
      <point x="466" y="210" type="curve" smooth="yes"/>
      <point x="466" y="246" type="line"/>
      <point x="324" y="246" type="line"/>
      <point x="324" y="210" type="line" smooth="yes"/>
      <point x="324" y="147"/>
      <point x="296" y="106"/>
      <point x="245" y="106" type="curve" smooth="yes"/>
      <point x="202" y="106"/>
      <point x="172" y="132"/>
      <point x="172" y="184" type="curve" smooth="yes"/>
      <point x="172" y="226"/>
      <point x="199" y="257"/>
      <point x="239" y="257" type="curve" smooth="yes"/>
      <point x="246" y="257"/>
      <point x="253" y="256"/>
      <point x="260" y="254" type="curve"/>
      <point x="260" y="366" type="line"/>
      <point x="242" y="370"/>
      <point x="225" y="372"/>
      <point x="209" y="372" type="curve" smooth="yes"/>
      <point x="106" y="372"/>
      <point x="30" y="299"/>
      <point x="30" y="184" type="curve" smooth="yes"/>
      <point x="30" y="69"/>
      <point x="106" y="-10"/>
      <point x="233" y="-10" type="curve" smooth="yes"/>
    </contour>
    <contour>
      <point x="471" y="-186" type="line"/>
      <point x="471" y="-171" type="line"/>
      <point x="427" y="14" type="line"/>
      <point x="361" y="14" type="line"/>
      <point x="317" y="-171" type="line"/>
      <point x="317" y="-186" type="line"/>
    </contour>
    <contour>
      <point x="437" y="289"/>
      <point x="468" y="320"/>
      <point x="468" y="361" type="curve" smooth="yes"/>
      <point x="468" y="402"/>
      <point x="437" y="433"/>
      <point x="396" y="433" type="curve" smooth="yes"/>
      <point x="355" y="433"/>
      <point x="324" y="402"/>
      <point x="324" y="361" type="curve" smooth="yes"/>
      <point x="324" y="320"/>
      <point x="355" y="289"/>
      <point x="396" y="289" type="curve" smooth="yes"/>
    </contour>
    <contour>
      <point x="766" y="464" type="line"/>
      <point x="766" y="576" type="line"/>
      <point x="44" y="576" type="line"/>
      <point x="44" y="464" type="line"/>
    </contour>
    <contour>
      <point x="849" y="269"/>
      <point x="887" y="306"/>
      <point x="887" y="368" type="curve" smooth="yes"/>
      <point x="887" y="392"/>
      <point x="880" y="417"/>
      <point x="866" y="438" type="curve"/>
      <point x="750" y="438" type="line"/>
      <point x="759" y="424"/>
      <point x="765" y="407"/>
      <point x="765" y="392" type="curve" smooth="yes"/>
      <point x="765" y="362"/>
      <point x="746" y="355"/>
      <point x="720" y="355" type="curve" smooth="yes"/>
      <point x="698" y="355"/>
      <point x="681" y="363"/>
      <point x="660" y="374" type="curve"/>
      <point x="648" y="365" type="line"/>
      <point x="672" y="321"/>
      <point x="719" y="269"/>
      <point x="783" y="269" type="curve" smooth="yes"/>
    </contour>
    <component base="knVirama" xOffset="725"/>
  </outline>
</glyph>
<glyph name="knGHA.base" format="1">
  <advance width="828"/>
  <outline>
    <contour>
      <point x="704" y="362" type="move"/>
      <point x="720" y="343"/>
      <point x="733" y="320"/>
      <point x="733" y="287" type="curve" smooth="yes"/>
      <point x="733" y="249"/>
      <point x="705" y="214"/>
      <point x="661" y="214" type="curve" smooth="yes"/>
      <point x="635" y="214"/>
      <point x="606" y="223"/>
      <point x="582" y="237" type="curve"/>
    </contour>
    <contour>
      <point x="359" y="-89" type="move"/>
      <point x="359" y="-192" type="line"/>
    </contour>
    <contour>
      <point x="91" y="437" type="move"/>
      <point x="496" y="437" type="line" smooth="yes"/>
    </contour>
    <contour>
      <point x="358" y="415" type="curve" smooth="yes"/>
      <point x="310" y="415"/>
      <point x="275" y="379"/>
      <point x="275" y="333" type="curve" smooth="yes"/>
      <point x="275" y="289"/>
      <point x="309" y="253"/>
      <point x="359" y="253" type="curve" smooth="yes"/>
      <point x="410" y="253"/>
      <point x="443" y="288"/>
      <point x="443" y="334" type="curve" smooth="yes"/>
      <point x="443" y="379"/>
      <point x="410" y="415"/>
    </contour>
    <contour>
      <point x="197" y="225" type="move"/>
      <point x="132" y="225"/>
      <point x="88" y="173"/>
      <point x="88" y="125" type="curve" smooth="yes"/>
      <point x="88" y="72"/>
      <point x="131" y="27"/>
      <point x="199" y="27" type="curve" smooth="yes"/>
      <point x="275" y="27"/>
      <point x="319" y="59"/>
      <point x="356" y="128" type="curve"/>
      <point x="361" y="128" type="line"/>
      <point x="403" y="63"/>
      <point x="449" y="27"/>
      <point x="522" y="27" type="curve" smooth="yes"/>
      <point x="594" y="27"/>
      <point x="637" y="76"/>
      <point x="637" y="134" type="curve" smooth="yes"/>
      <point x="637" y="181"/>
      <point x="613" y="215"/>
      <point x="572" y="238" type="curve"/>
    </contour>
  </outline>
</glyph>
<glyph name="knGHAc2" format="1">
  <advance width="94"/>
  <outline>
    <contour>
      <point x="110" y="-156" type="move"/>
      <point x="137" y="-204"/>
      <point x="172" y="-230"/>
      <point x="220" y="-230" type="curve" smooth="yes"/>
      <point x="269" y="-230"/>
      <point x="294" y="-199"/>
      <point x="294" y="-161" type="curve" smooth="yes"/>
      <point x="294" y="-145"/>
      <point x="292" y="-131"/>
      <point x="288" y="-117" type="curve"/>
    </contour>
    <contour>
      <point x="-83" y="-430" type="move"/>
      <point x="-83" y="-496" type="line"/>
    </contour>
    <contour>
      <point x="-82" y="-284" type="move"/>
      <point x="-45" y="-327"/>
      <point x="-10" y="-348"/>
      <point x="27" y="-348" type="curve" smooth="yes"/>
      <point x="83" y="-348"/>
      <point x="112" y="-307"/>
      <point x="112" y="-222" type="curve" smooth="yes"/>
      <point x="112" y="-131"/>
      <point x="90" y="-23"/>
      <point x="35" y="79" type="curve"/>
    </contour>
    <contour>
      <point x="-217" y="-204" type="move"/>
      <point x="-254" y="-223"/>
      <point x="-272" y="-250"/>
      <point x="-272" y="-282" type="curve" smooth="yes"/>
      <point x="-272" y="-317"/>
      <point x="-246" y="-350"/>
      <point x="-196" y="-350" type="curve" smooth="yes"/>
      <point x="-152" y="-350"/>
      <point x="-118" y="-322"/>
      <point x="-85" y="-284" type="curve"/>
    </contour>
  </outline>
</glyph>
